<svg xmlns="http://www.w3.org/2000/svg" width="134.751" height="216.418" viewBox="0 0 134.751 216.418">
  <g id="Group_385" data-name="Group 385" transform="translate(0)">
    <g id="Group_381" data-name="Group 381" transform="translate(0.668 46.043)">
      <path id="Path_425" data-name="Path 425" d="M-2578.614,638.4l-.6-.533-67.857-60.29,1.153-1.345,67.258,59.757,63.992-61.38,1.2,1.3Z" transform="translate(2647.07 -573.635)"/>
      <path id="Path_426" data-name="Path 426" d="M-2561.433,659.854l-1.755-.03.374-22.889-.374-63.531,1.755-.01.374,63.551Z" transform="translate(2630.369 -573.393)"/>
      <path id="Path_427" data-name="Path 427" d="M-2569.934,641.057l-33.418-62.293,1.54-.855,31.88,59.425,31.939-59.425,1.539.857Z" transform="translate(2638.366 -574.292)"/>
      <path id="Path_428" data-name="Path 428" d="M-2529.918,708.653l-42.559-27.544-42.006,26.1-.915-1.524,42.94-26.683,43.481,28.141Z" transform="translate(2640.764 -594.42)"/>
    </g>
    <g id="Group_383" data-name="Group 383" transform="translate(20.114 154.255)">
      <g id="Group_382" data-name="Group 382">
        <path id="Path_429" data-name="Path 429" d="M-2525.2,759.058a9.662,9.662,0,0,1-9.374,10.082l-78.672,1.527a9.454,9.454,0,0,1-9.541-9.557V718.584a10.159,10.159,0,0,1,6.16-9.411c.072-.033.155-.057.227-.09a9.518,9.518,0,0,1,3.482-.577c.524-.008,1.062.1,1.618.1h8.8c14.4,0,34.465.037,53.58,1.119,1.825.1,3.643.1,5.445.22.572.041,1.144-.187,1.715-.139.191.017.381-.308.572-.308h.008c2.2,0,4.366,0,6.5,1.785h.063a7.024,7.024,0,0,1,6.818,7.01Z" transform="translate(2622.789 -708.505)" fill="#17609f"/>
        <path id="Path_430" data-name="Path 430" d="M-2598.508,740.1a2.561,2.561,0,0,1-2.818,2.757l-10.866-1.251c-1.294-.137-1.833-1.259-1.833-2.584v-29.94a7.288,7.288,0,0,1,3.167-.577c.524-.008.745.1,1.3.1h8.8Z" transform="translate(2621.044 -708.505)" fill="#fff" opacity="0.37"/>
        <path id="Path_431" data-name="Path 431" d="M-2604.613,735.586a1.138,1.138,0,0,1-1.072,1.206.173.173,0,0,1-.064,0,1.049,1.049,0,0,1-1.135-.977l-1.563-27.184h2.286Z" transform="translate(2619.934 -708.531)" fill="#fff"/>
        <path id="Path_432" data-name="Path 432" d="M-2514.2,740.475a2.521,2.521,0,0,1-2.817,2.693l-11.4-1.283a2.694,2.694,0,0,1-2.369-2.616V709.88c2.631.106,3.735-.187,5.537-.066.762.049,1.615-.067,2.377-.067h.008c2.2,0,4.366,0,6.5,1.785h.063Z" transform="translate(2604.472 -708.753)" fill="#fff" opacity="0.37"/>
        <path id="Path_433" data-name="Path 433" d="M-2520.02,735.447a1.307,1.307,0,0,1-1.073,1.386c-.015.008-.039.092-.063.092a1.112,1.112,0,0,1-1.135-1.049l-1.469-26.083c.763.049,1.524-.046,2.287-.046h.008Z" transform="translate(2603.073 -708.753)" fill="#fff"/>
      </g>
    </g>
    <g id="Group_384" data-name="Group 384">
      <path id="Path_434" data-name="Path 434" d="M-2513.152,565.214l-16.9-8.892-16.509,10.97-16.4-12.414-15.851,12.414-15.261-11.837L-2611.389,567l-16.759-10.682-19.755,10.589c3.7-15.22,17.815-51.007,68.726-51.007C-2530.069,515.905-2516.725,549.186-2513.152,565.214Z" transform="translate(2647.903 -515.905)" fill="#0c2545"/>
      <path id="Path_435" data-name="Path 435" d="M-2623.238,556.323s12.235-38.878,47.621-40.418c0,0-33.192,20.786-30.862,51.1C-2611.355,562.042-2623.238,556.323-2623.238,556.323Z" transform="translate(2642.992 -515.905)" fill="#0a1c32"/>
      <path id="Path_436" data-name="Path 436" d="M-2565.454,567.293l-.375-51.388s-16.721,22.711-14.887,39.551C-2572.043,564.282-2565.454,567.293-2565.454,567.293Z" transform="translate(2634.555 -515.905)" fill="#0a1c32"/>
      <path id="Path_437" data-name="Path 437" d="M-2562.093,515.905s16,20.979,16.226,38.974l16.4,12.414S-2522.566,533.419-2562.093,515.905Z" transform="translate(2630.819 -515.905)" fill="#0a1c32"/>
      <path id="Path_438" data-name="Path 438" d="M-2560.681,516.146s43.616,14.242,48,40.225l16.9,8.892S-2502.625,516.916-2560.681,516.146Z" transform="translate(2630.538 -515.953)" fill="#0a1c32"/>
    </g>
  </g>
</svg>
