<svg xmlns="http://www.w3.org/2000/svg" width="116.664" height="124.975" viewBox="0 0 116.664 124.975">
  <g id="Group_338" data-name="Group 338" transform="translate(3680.89 -287.028)">
    <path id="Path_345" data-name="Path 345" d="M-3564.229,353.192a17.381,17.381,0,0,1-17.072,17.687,17.381,17.381,0,0,1-17.686-17.072,17.382,17.382,0,0,1,17.072-17.687A17.382,17.382,0,0,1-3564.229,353.192Z" fill="#ea6222"/>
    <path id="Path_346" data-name="Path 346" d="M-3637.832,359.008a26.3,26.3,0,0,1,7.425,2.109l24.707,11.132V339.36h-35.744l-.5,8.967h4.11Z" fill="#163b63" opacity="0.71"/>
    <path id="Path_347" data-name="Path 347" d="M-3572.844,378.965s-8.986,4.876-14.15,6.954c-9.927,3.995-27.312,8.872-29.257,9.088-4.358.484-11.461-3.971-15.174-5.1s-8.071-2.738-12.752-2.776c-4.4-.036-9.459.452-9.459.452V366.629c-.523.213-4.32.872-4.823,1.027l-.569,29.32s11.745-2.569,16.143-2.744c5.326-.213,9.378,1.738,12.994,3.4,6.941,3.182,11.246,4.868,14.326,3.667,1.821-.717,17.708-6.191,27-10.049,7.033-2.921,17.554-7.385,17.554-7.385Z" fill="#163b63" opacity="0.71"/>
    <path id="Path_348" data-name="Path 348" d="M-3605.9,385.423l-1.259-4.968a4.375,4.375,0,0,1-2.123,1.711,4.393,4.393,0,0,1-3.306-.087l-11.373-5.1a11.182,11.182,0,0,0-8.341-.186l-.878.529,10.687,5.66s12.487,4.31,12.583,4.275S-3605.9,385.423-3605.9,385.423Z" fill="#163b63" opacity="0.71"/>
    <circle id="Ellipse_4" data-name="Ellipse 4" cx="17.382" cy="17.382" r="17.382" transform="matrix(0.99, -0.144, 0.144, 0.99, -3666.975, 297.843)" fill="#ea6222"/>
    <path id="Path_349" data-name="Path 349" d="M-3671.746,391.145a3.039,3.039,0,0,0,3.039,3.038,3.038,3.038,0,0,0,3.038-3.038,3.039,3.039,0,0,0-3.038-3.039A3.04,3.04,0,0,0-3671.746,391.145Z" fill="#0c2545"/>
    <g id="Group_321" data-name="Group 321">
      <path id="Path_350" data-name="Path 350" d="M-3618.452,412a20.268,20.268,0,0,1-5.689-.816l-.32-.1-14.556-4.859a1.761,1.761,0,0,1-1.112-2.228,1.764,1.764,0,0,1,2.228-1.112l14.776,4.927a16.723,16.723,0,0,0,4.673.666,16.584,16.584,0,0,0,7.158-1.617c.047-.021.095-.042.144-.06l24.515-9.064a1.761,1.761,0,0,1,2.261,1.041,1.759,1.759,0,0,1-1.041,2.261l-24.443,9.038A20.067,20.067,0,0,1-3618.452,412Z" fill="#0c2545"/>
    </g>
    <g id="Group_322" data-name="Group 322">
      <path id="Path_351" data-name="Path 351" d="M-3618.456,404.079a12.376,12.376,0,0,1-3.466-.5l-14.586-4.868a40.339,40.339,0,0,0-15.428-2.1c-4.12.262-5.659,1.005-6.129,1.313a1.763,1.763,0,0,1-2.437-.512,1.762,1.762,0,0,1,.511-2.437c1.554-1.014,4.189-1.646,7.832-1.878a43.964,43.964,0,0,1,16.767,2.276l14.52,4.848a8.753,8.753,0,0,0,6.412-.627c.061-.031.124-.058.188-.083l39.6-14.641a4.378,4.378,0,0,0,2.033-5.4c-.271-.722-1.09-2.925-6.078-2.448l-26.452,1.906a1.8,1.8,0,0,1-.849-.151l-26.2-11.8a21.612,21.612,0,0,0-16.593-.527l-10.1,3.687a1.764,1.764,0,0,1-2.258-1.05,1.76,1.76,0,0,1,1.051-2.257l10.084-3.682a25.1,25.1,0,0,1,19.262.619l25.789,11.618,25.968-1.871c6.628-.621,8.905,2.687,9.668,4.721a7.9,7.9,0,0,1-3.817,9.816,1.744,1.744,0,0,1-.188.082l-39.609,14.646A12.3,12.3,0,0,1-3618.456,404.079Z" fill="#0c2545"/>
    </g>
    <g id="Group_323" data-name="Group 323">
      <path id="Path_352" data-name="Path 352" d="M-3611.35,389.2a7.86,7.86,0,0,1-3.258-.708l-18.089-8.2a1.759,1.759,0,0,1-.877-2.329,1.758,1.758,0,0,1,2.33-.877l18.089,8.2a4.392,4.392,0,0,0,3.373.1,4.38,4.38,0,0,0,2.467-2.3,4.385,4.385,0,0,0,.1-3.372,4.377,4.377,0,0,0-2.3-2.467l-13.939-6.318a1.759,1.759,0,0,1-.877-2.33,1.756,1.756,0,0,1,2.329-.876l13.94,6.317a7.94,7.94,0,0,1,3.951,10.5,7.874,7.874,0,0,1-4.434,4.142A7.964,7.964,0,0,1-3611.35,389.2Z" fill="#1d2646"/>
    </g>
    <g id="Group_324" data-name="Group 324">
      <path id="Path_353" data-name="Path 353" d="M-3659.566,402.769h-19.394a1.761,1.761,0,0,1-1.76-1.761,1.76,1.76,0,0,1,1.76-1.76h17.634V366.062h-17.8a1.761,1.761,0,0,1-1.76-1.761,1.76,1.76,0,0,1,1.76-1.76h19.564a1.76,1.76,0,0,1,1.76,1.76v36.707A1.761,1.761,0,0,1-3659.566,402.769Z" fill="#0c2545"/>
    </g>
    <path id="Path_354" data-name="Path 354" d="M-3577.515,396.437a1.78,1.78,0,0,0-1.788-1.771,1.78,1.78,0,0,0-1.771,1.788,1.78,1.78,0,0,0,1.788,1.771A1.78,1.78,0,0,0-3577.515,396.437Z" fill="#0c2545"/>
    <g id="Group_325" data-name="Group 325">
      <path id="Path_355" data-name="Path 355" d="M-3603.923,349.933H-3641.9a1.761,1.761,0,0,1-1.76-1.761v-9.715a1.76,1.76,0,0,1,1.76-1.76h40.907a1.76,1.76,0,0,1,1.76,1.76,1.76,1.76,0,0,1-1.76,1.761h-39.146v6.194h36.212a1.761,1.761,0,0,1,1.761,1.76A1.762,1.762,0,0,1-3603.923,349.933Z" fill="#0c2545"/>
    </g>
    <g id="Group_326" data-name="Group 326">
      <path id="Path_356" data-name="Path 356" d="M-3637.412,359.647a1.762,1.762,0,0,1-1.761-1.761v-9.714a1.761,1.761,0,0,1,1.761-1.76,1.76,1.76,0,0,1,1.76,1.76v9.714A1.761,1.761,0,0,1-3637.412,359.647Z" fill="#1d2646"/>
    </g>
    <g id="Group_327" data-name="Group 327">
      <path id="Path_357" data-name="Path 357" d="M-3604.8,359.647h-32.609a1.762,1.762,0,0,1-1.761-1.761,1.761,1.761,0,0,1,1.761-1.76h32.609a1.76,1.76,0,0,1,1.76,1.76A1.761,1.761,0,0,1-3604.8,359.647Z" fill="#0c2545"/>
    </g>
    <g id="Group_331" data-name="Group 331">
      <g id="Group_328" data-name="Group 328">
        <path id="Path_358" data-name="Path 358" d="M-3580.4,366.927a1.779,1.779,0,0,1-1.778-1.749l-.023-1.275a1.779,1.779,0,0,1,1.748-1.81h.032a1.781,1.781,0,0,1,1.779,1.749l.022,1.275a1.779,1.779,0,0,1-1.748,1.81Z" fill="#fff"/>
      </g>
      <g id="Group_329" data-name="Group 329">
        <path id="Path_359" data-name="Path 359" d="M-3581.938,345.726a1.78,1.78,0,0,1-1.778-1.748l-.024-1.358a1.779,1.779,0,0,1,1.747-1.811,1.748,1.748,0,0,1,1.812,1.748l.024,1.357a1.779,1.779,0,0,1-1.748,1.811Z" fill="#fff"/>
      </g>
      <g id="Group_330" data-name="Group 330">
        <path id="Path_360" data-name="Path 360" d="M-3581.37,364.342a9.269,9.269,0,0,1-6.444-2.864,1.78,1.78,0,0,1,.055-2.517,1.78,1.78,0,0,1,2.516.055,5.638,5.638,0,0,0,4.286,1.747c1.183-.106,3.088-.726,3.486-2a3.042,3.042,0,0,0-.708-2.68c-.758-.871-1.819-1.029-3.487-1.215-1.786-.2-4.009-.446-5.525-2.434a6.1,6.1,0,0,1-.844-5.816c1.1-2.8,4.288-3.952,6.775-3.833a7.827,7.827,0,0,1,5.532,2.837,1.781,1.781,0,0,1-.224,2.507,1.78,1.78,0,0,1-2.508-.225,4.33,4.33,0,0,0-2.966-1.563c-1.284-.061-2.877.512-3.3,1.579a2.583,2.583,0,0,0,.363,2.356c.565.74,1.494.877,3.088,1.054,1.813.2,4.069.454,5.778,2.414a6.537,6.537,0,0,1,1.42,6.084c-.925,2.952-4.114,4.257-6.565,4.477C-3580.887,364.33-3581.131,364.342-3581.37,364.342Z" fill="#fff"/>
      </g>
    </g>
    <g id="Group_332" data-name="Group 332">
      <path id="Path_361" data-name="Path 361" d="M-3661.474,333.342a1.754,1.754,0,0,1-1.052-.349,25.559,25.559,0,0,1-8.165-10.34,25.539,25.539,0,0,1,13.309-33.532,25.36,25.36,0,0,1,10.1-2.093,25.553,25.553,0,0,1,6.283.783,1.759,1.759,0,0,1,1.274,2.138,1.76,1.76,0,0,1-2.139,1.274,22.049,22.049,0,0,0-5.418-.674,21.857,21.857,0,0,0-8.709,1.8,22.017,22.017,0,0,0-11.472,28.9,22.02,22.02,0,0,0,7.039,8.913,1.763,1.763,0,0,1,.359,2.465A1.76,1.76,0,0,1-3661.474,333.342Z" fill="#ea6222"/>
    </g>
    <g id="Group_336" data-name="Group 336">
      <g id="Group_333" data-name="Group 333">
        <path id="Path_362" data-name="Path 362" d="M-3641.724,324.635a1.783,1.783,0,0,1-1.636-1.076l-.5-1.17a1.781,1.781,0,0,1,.93-2.34,1.78,1.78,0,0,1,2.34.93l.5,1.171a1.779,1.779,0,0,1-.93,2.339A1.774,1.774,0,0,1-3641.724,324.635Z" fill="#fff"/>
      </g>
      <g id="Group_334" data-name="Group 334">
        <path id="Path_363" data-name="Path 363" d="M-3651.205,305.609a1.782,1.782,0,0,1-1.636-1.075l-.537-1.247a1.78,1.78,0,0,1,.93-2.339,1.782,1.782,0,0,1,2.34.93l.537,1.246a1.781,1.781,0,0,1-.93,2.34A1.772,1.772,0,0,1-3651.205,305.609Z" fill="#fff"/>
      </g>
      <g id="Group_335" data-name="Group 335">
        <path id="Path_364" data-name="Path 364" d="M-3646.1,323.093a9.92,9.92,0,0,1-3.878-.813,1.781,1.781,0,0,1-.908-2.348,1.781,1.781,0,0,1,2.348-.908,5.627,5.627,0,0,0,4.629-.012c1.055-.548,2.581-1.844,2.466-3.172a3.032,3.032,0,0,0-1.673-2.209c-1.031-.518-2.074-.261-3.687.2-1.729.495-3.879,1.109-6.035-.152a6.1,6.1,0,0,1-2.992-5.059c-.048-3.006,2.459-5.28,4.808-6.121a7.85,7.85,0,0,1,6.2.523,1.779,1.779,0,0,1,.745,2.4,1.78,1.78,0,0,1-2.4.745,4.362,4.362,0,0,0-3.339-.32c-1.217.435-2.466,1.57-2.448,2.713a2.581,2.581,0,0,0,1.231,2.042c.8.471,1.715.245,3.257-.2,1.753-.5,3.938-1.126,6.261.037a6.533,6.533,0,0,1,3.626,5.087c.267,3.083-2.188,5.5-4.371,6.636A8.223,8.223,0,0,1-3646.1,323.093Z" fill="#fff"/>
      </g>
    </g>
    <g id="Group_337" data-name="Group 337">
      <path id="Path_365" data-name="Path 365" d="M-3600.5,368.649h-10.02a1.761,1.761,0,0,1-1.761-1.76,1.761,1.761,0,0,1,1.761-1.761h10.02a1.76,1.76,0,0,1,1.76,1.761A1.76,1.76,0,0,1-3600.5,368.649Z" fill="#0c2545"/>
    </g>
    <path id="Path_366" data-name="Path 366" d="M-3632.9,291.8a1.78,1.78,0,0,0-1.788-1.77,1.779,1.779,0,0,0-1.771,1.788,1.78,1.78,0,0,0,1.788,1.771A1.78,1.78,0,0,0-3632.9,291.8Z" fill="#ea6222"/>
  </g>
</svg>
