<svg xmlns="http://www.w3.org/2000/svg" xmlns:xlink="http://www.w3.org/1999/xlink" width="1623.798" height="1148.974" viewBox="0 0 1623.798 1148.974">
  <defs>
    <clipPath id="clip-path">
      <rect id="Rectangle_38" data-name="Rectangle 38" width="1623.798" height="1148.974" transform="translate(-3896.11 3498.84)" fill="none"/>
    </clipPath>
    <clipPath id="clip-path-2">
      <circle id="Ellipse_16" data-name="Ellipse 16" cx="176.178" cy="176.178" r="176.178" transform="translate(-2717.669 3832.547)" fill="none"/>
    </clipPath>
  </defs>
  <g id="Group_861" data-name="Group 861" transform="translate(3896.11 -3498.84)">
    <g id="Group_860" data-name="Group 860" clip-path="url(#clip-path)">
      <g id="Group_859" data-name="Group 859">
        <g id="Group_802" data-name="Group 802">
          <path id="Path_695" data-name="Path 695" d="M-3582.252,4204.913c0-204.986,261.366-643.028,633.12-583.745,267.141,42.6,156.193,338.449,651.652,448.682,385.839,85.843,275.206,634.843-266.6,664.622C-3165.17,4767.508-3582.251,4589.2-3582.252,4204.913Z" fill="#eef1ef" opacity="0.38"/>
          <path id="Path_696" data-name="Path 696" d="M-2303.437,4336.7c-170.407,139.677-55.59,379.409,11.55,357.257,59.95-19.78-85.055-334.268-299.256-309.436-352.72,40.89-452.074,203.949-692.421,140.182-242.02-64.211-289.019-332.934-54.066-486.3,234.129-152.826-138.23-414.322-167.53-329.956-16.713,48.126,168.113,166.213,300.006,53.853s306.545-126.746,416.244,77.672,333.533,83.364,476.473,55.261S-1937.185,4036.5-2303.437,4336.7Z" fill="none" stroke="#60806b" stroke-miterlimit="10" stroke-width="0.25"/>
        </g>
        <g id="Group_858" data-name="Group 858">
          <g id="Group_803" data-name="Group 803">
            <circle id="Ellipse_11" data-name="Ellipse 11" cx="176.178" cy="176.178" r="176.178" transform="translate(-2731.938 3836.762)" fill="#fff" opacity="0.51"/>
            <circle id="Ellipse_12" data-name="Ellipse 12" cx="176.178" cy="176.178" r="176.178" transform="translate(-2717.669 3832.547)" fill="#eef1ef" opacity="0.37"/>
            <circle id="Ellipse_13" data-name="Ellipse 13" cx="176.178" cy="176.178" r="176.178" transform="translate(-2731.938 3836.762)" fill="none" stroke="#60806b" stroke-miterlimit="10" stroke-width="0.25" opacity="0.56"/>
          </g>
          <g id="Group_813" data-name="Group 813">
            <g id="Group_812" data-name="Group 812" clip-path="url(#clip-path-2)">
              <g id="Group_811" data-name="Group 811">
                <g id="Group_804" data-name="Group 804">
                  <path id="Path_697" data-name="Path 697" d="M-2586.781,4189.118h-29.127l2.3-63.864h25.394Z" fill="#9a2f23"/>
                  <path id="Path_698" data-name="Path 698" d="M-2603.594,4016.992l-30.36,104.7,10.431,10.352-10.431,12.589,55.284,6.187Z" fill="#f9a638"/>
                </g>
                <g id="Group_807" data-name="Group 807">
                  <g id="Group_806" data-name="Group 806">
                    <path id="Path_699" data-name="Path 699" d="M-2586.781,4191.408h85.972l29.655-187.2-47.7-2.994-53.585,2.994-31.152,12.782Z" fill="#f9a638"/>
                    <path id="Path_700" data-name="Path 700" d="M-2557.918,4032.111l39.061-30.9-14.3-47.332-41.5,5.441Z" fill="#9a2f23"/>
                    <path id="Path_701" data-name="Path 701" d="M-2566.114,3996.458l19.111-23.841-27.648-13.293Z" fill="#4a1c15"/>
                    <path id="Path_702" data-name="Path 702" d="M-2602.747,3934.148c-1.924,21.769,5.242,48.449,27.011,50.374s48.106-23.969,50.03-45.738,9.962-57.958-19.556-60.567C-2588.164,3874.424-2600.822,3912.378-2602.747,3934.148Z" fill="#9a2f23"/>
                    <path id="Path_703" data-name="Path 703" d="M-2563.3,3914.818s.972,7.533,9.721,12.15" fill="none" stroke="#000" stroke-miterlimit="10" stroke-width="1"/>
                    <path id="Path_704" data-name="Path 704" d="M-2596.241,3916.141s5.632,1.859,10.418-1.323" fill="none" stroke="#000" stroke-miterlimit="10" stroke-width="1"/>
                    <g id="Group_805" data-name="Group 805">
                      <path id="Path_705" data-name="Path 705" d="M-2518.857,3947.651c27.041-32.344,37.336-39.326,0-65.225,0,0-3.648-24.6-35.764-16.68-49.5,12.207-40.411,16.68-42.016,43.659,0,0,26.689,3.423,48.236-9.168,0,0,.749,15.161,9.612,22.9l-1.537,16.22Z"/>
                      <path id="Path_706" data-name="Path 706" d="M-2518.857,3882.426a17.6,17.6,0,0,0,0-13.853" fill="none" stroke="#000" stroke-miterlimit="10" stroke-width="1"/>
                      <path id="Path_707" data-name="Path 707" d="M-2521.043,3886.153s11.759-5.237,12.739-10.653" fill="none" stroke="#000" stroke-miterlimit="10" stroke-width="1"/>
                    </g>
                    <ellipse id="Ellipse_14" data-name="Ellipse 14" cx="16.311" cy="12.67" rx="16.311" ry="12.67" transform="translate(-2543.326 3955.653) rotate(-69.285)" fill="#9a2f23"/>
                    <path id="Path_708" data-name="Path 708" d="M-2511.109,4004.21l-9.933-25.074-55.432,12.906,15.649,47.215Z" fill="#f9a638"/>
                  </g>
                </g>
                <path id="Path_709" data-name="Path 709" d="M-2574.65,3997.547l31.045-1.659-28.837,8.322Z" fill="#fbcc71"/>
                <path id="Path_710" data-name="Path 710" d="M-2471.154,4004.21l7.056,138.536-43.619,22.875-3.392-161.41Z" fill="#f9a638"/>
                <g id="Group_808" data-name="Group 808">
                  <rect id="Rectangle_21" data-name="Rectangle 21" width="21.752" height="45.451" rx="1.306" transform="translate(-2530.128 3932.589) rotate(17.313)" fill="#6a7075"/>
                  <rect id="Rectangle_22" data-name="Rectangle 22" width="22.518" height="45.451" rx="1.306" transform="translate(-2526.902 3933.594) rotate(17.313)" fill="#e0d5c2"/>
                  <circle id="Ellipse_15" data-name="Ellipse 15" cx="2.3" cy="2.3" r="2.3" transform="translate(-2525.243 3938.552)" fill="#6a7075"/>
                </g>
                <g id="Group_810" data-name="Group 810">
                  <path id="Path_711" data-name="Path 711" d="M-2472.882,4136.828l-41.945-156.271-6.369,2.89s-5.946,120.753,21.261,166.836Z" fill="#9a2f23"/>
                  <g id="Group_809" data-name="Group 809">
                    <path id="Path_712" data-name="Path 712" d="M-2514.827,3980.557l12.46-27.342s-32.8,7.77-18.829,30.232Z" fill="#9a2f23"/>
                    <path id="Path_713" data-name="Path 713" d="M-2502.367,3953.215l-14.606-12.767s-5.137,8.536,11.988,14.406Z" fill="#9a2f23"/>
                    <path id="Path_714" data-name="Path 714" d="M-2521.223,3963.824l8.29-5.424-8.66-10.749s-3.067,5.564,4.823,11.21Z" fill="#9a2f23"/>
                    <path id="Path_715" data-name="Path 715" d="M-2504.985,3954.854l-15.391-12.2s-4.442,7.769,13.015,13.161Z" fill="#9a2f23"/>
                  </g>
                </g>
                <path id="Path_716" data-name="Path 716" d="M-2586.781,4191.408l-16.812-174.417,27.119,174.417Z" fill="#fbcc71"/>
              </g>
            </g>
          </g>
          <g id="Group_852" data-name="Group 852">
            <g id="Group_814" data-name="Group 814">
              <rect id="Rectangle_23" data-name="Rectangle 23" width="198.547" height="29.146" transform="translate(-3153.792 4643.889)" fill="#71462e"/>
              <path id="Path_717" data-name="Path 717" d="M-2879.371,4816.1H-2904.1l-116.453-324.411h24.725Z" fill="#a27b52"/>
              <path id="Path_718" data-name="Path 718" d="M-3078.776,4816.1h24.725l29.113-324.411h-24.725Z" fill="#a27b52"/>
              <path id="Path_719" data-name="Path 719" d="M-3224.343,4816.1h24.725l116.453-324.411h-24.725Z" fill="#a27b52"/>
            </g>
            <g id="Group_815" data-name="Group 815">
              <path id="Rectangle_24" data-name="Rectangle 24" d="M2.234,0H226.985a5.42,5.42,0,0,1,5.42,5.42V232.4a0,0,0,0,1,0,0H3.554A3.554,3.554,0,0,1,0,228.851V2.234A2.234,2.234,0,0,1,2.234,0Z" transform="translate(-3200.958 4262.199)" fill="#f9a638"/>
              <path id="Rectangle_25" data-name="Rectangle 25" d="M0,0H208.268a2.041,2.041,0,0,1,2.041,2.041V28.909a2.041,2.041,0,0,1-2.041,2.041H0a0,0,0,0,1,0,0V0A0,0,0,0,1,0,0Z" transform="translate(-3099.802 4494.604)" fill="#f9a638"/>
              <path id="Path_720" data-name="Path 720" d="M-3184.252,4461.356V4275.3a13.1,13.1,0,0,0-13.1-13.1h0a13.1,13.1,0,0,0-13.1,13.1v188.5a61.751,61.751,0,0,0,61.751,61.75h45.369a15.475,15.475,0,0,0,15.475-15.474h0a15.475,15.475,0,0,0-15.475-15.475H-3151A33.248,33.248,0,0,1-3184.252,4461.356Z" fill="#fbcc71"/>
            </g>
            <path id="Path_721" data-name="Path 721" d="M-2974.113,4491.693h-104.409c-48.849,0-83.565-47.545-68.692-94.075l17.241-53.935,153.126-18.5Z" fill="#0c2545"/>
            <g id="Group_819" data-name="Group 819">
              <path id="Path_722" data-name="Path 722" d="M-2958.525,4124l44.019,156.8h-44.019l-46.3-78.4Z" fill="#e9e4d5"/>
              <g id="Group_818" data-name="Group 818">
                <path id="Path_723" data-name="Path 723" d="M-2916.528,4273.6l112.878,21.832-3.06,9.406s-100.169,23.881-151.815-24.037Z" fill="#b17b6b"/>
                <g id="Group_817" data-name="Group 817">
                  <g id="Group_816" data-name="Group 816">
                    <path id="Path_724" data-name="Path 724" d="M-2803.65,4295.431l48.556-4.414-13.454,12.113a30.066,30.066,0,0,1-38.162,1.707h0Z" fill="#b17b6b"/>
                  </g>
                  <path id="Path_725" data-name="Path 725" d="M-2755.094,4291.017l8.821,19.836s-12.807,2.906-12.582-16.449Z" fill="#b17b6b"/>
                  <path id="Path_726" data-name="Path 726" d="M-2765.834,4293.6l8,20.943S-2772.616,4316.192-2765.834,4293.6Z" fill="#b17b6b"/>
                  <path id="Path_727" data-name="Path 727" d="M-2755.094,4291.017l16.5,13.064s-11.131,5.876-17.65-10.485Z" fill="#b17b6b"/>
                </g>
              </g>
            </g>
            <rect id="Rectangle_26" data-name="Rectangle 26" width="205.054" height="14.57" transform="translate(-2983.615 4305.108)" fill="#fff"/>
            <g id="Group_825" data-name="Group 825">
              <g id="Group_820" data-name="Group 820">
                <path id="Path_728" data-name="Path 728" d="M-2958.525,4124l-48.7-19.649h-57.494l-73.5,21.851,33.047,139.654-30.147,75.372h142.361l-10.916-78.864.456-1.39a31.3,31.3,0,0,1,15.956-18.034c12.73-6.409,20.107-15.044,21.15-24.227a47.7,47.7,0,0,0-.83-13.737,135.729,135.729,0,0,1,4.067-67.083Z" fill="#fff"/>
                <path id="Path_729" data-name="Path 729" d="M-2984.9,4247.2c7.956-4.006,14.989-12.684,17.2-23.073,0,0-17.454,15.682-77.99,10.042-69.828-6.5-26.27,45.1-51.208,107.061h103.929l-10.916-78.864.456-1.39C-3000.815,4253.026-2992.371,4250.967-2984.9,4247.2Z" fill="#e9e4d5"/>
                <path id="Path_730" data-name="Path 730" d="M-3016.074,4142.834l-48.648-38.478,25.777-52.174h43.711Z" fill="#faaf98"/>
                <path id="Path_731" data-name="Path 731" d="M-3005.866,4098.431l-23.8-29.693,34.434-16.555Z" fill="#b17b6b"/>
                <path id="Path_732" data-name="Path 732" d="M-3041.4,3945.075s11.419-9.4,25.7-9.4c12.47,0,44.507,13.164,56.418,43.253s16.408,55.538,4.519,89.641l-52.583-16.383Z" fill="#322222"/>
                <path id="Path_733" data-name="Path 733" d="M-2960.242,4020.826c2.4,27.113-6.527,60.342-33.64,62.739s-67.578-29.852-69.975-56.965-4.742-72.183,32.021-75.433C-2978.4,3946.443-2962.639,3993.714-2960.242,4020.826Z" fill="#faaf98"/>
                <path id="Path_734" data-name="Path 734" d="M-2981.636,3998.983s7.547-3.929,13.646,1.36" fill="none" stroke="#322222" stroke-miterlimit="10" stroke-width="1"/>
                <path id="Path_735" data-name="Path 735" d="M-3067.293,4022.341s63.814-.727,77.887-56.417c0,0,9.709,1.666,23.09,16.692,0,0-6.411-32.911-59.591-32.911C-3080.142,3949.705-3067.293,4022.341-3067.293,4022.341Z" fill="#322222"/>
                <path id="Path_736" data-name="Path 736" d="M-2990.4,3961.746s10.509,43.37-57.572,57.824" fill="none" stroke="#322222" stroke-miterlimit="10" stroke-width="1"/>
                <path id="Path_737" data-name="Path 737" d="M-3041.4,4012.248s-10.484,33.159,5.3,64.661c0,0-51.838,6.782-86.017-31.5-.841-34.552,16.424-68.082,38.123-90.378,18.156-18.655,69.733-24.739,82.813,10.9C-3001.176,3965.924-3036.739,3964.887-3041.4,4012.248Z" fill="#322222"/>
                <path id="Path_738" data-name="Path 738" d="M-2949.705,4070.9s24.168-67.67-28.63-113.032" fill="none" stroke="#322222" stroke-miterlimit="10" stroke-width="1"/>
                <path id="Path_739" data-name="Path 739" d="M-3127.434,4040.409s5.293-104.737,95.185-97.045" fill="none" stroke="#322222" stroke-miterlimit="10" stroke-width="1"/>
                <ellipse id="Ellipse_17" data-name="Ellipse 17" cx="15.78" cy="20.314" rx="15.78" ry="20.314" transform="translate(-3077.927 4020.771) rotate(-20.715)" fill="#faaf98"/>
              </g>
              <g id="Group_824" data-name="Group 824">
                <g id="Group_821" data-name="Group 821">
                  <rect id="Rectangle_27" data-name="Rectangle 27" width="7.691" height="41.175" transform="translate(-3065.319 3978.395)" fill="#0c2545"/>
                  <rect id="Rectangle_28" data-name="Rectangle 28" width="7.691" height="41.175" transform="translate(-3070.444 3978.395)" fill="#4f6178"/>
                  <path id="Path_740" data-name="Path 740" d="M-3053.239,3987.679V3967.74a25.831,25.831,0,0,1,12.326-21.4c3.814-2.3,14.613-9.027,14.613-9.027s-18.742.017-27.068,3.214l-2.192.842a22.772,22.772,0,0,0-14.611,21.26v25.048Z" fill="#0c2545"/>
                  <path id="Path_741" data-name="Path 741" d="M-3058.364,3987.679V3967.74a22.774,22.774,0,0,1,12.327-20.236l19.737-10.189-6.038-.508a59.144,59.144,0,0,0-26.154,3.722l-2.193.842a22.772,22.772,0,0,0-14.61,21.26v25.048Z" fill="#4f6178"/>
                </g>
                <g id="Group_822" data-name="Group 822">
                  <circle id="Ellipse_18" data-name="Ellipse 18" cx="21.775" cy="21.775" r="21.775" transform="translate(-3084.948 4007.291)" fill="#0c2545"/>
                  <circle id="Ellipse_19" data-name="Ellipse 19" cx="21.775" cy="21.775" r="21.775" transform="translate(-3089.233 4007.291)" fill="#ebe3d5"/>
                  <circle id="Ellipse_20" data-name="Ellipse 20" cx="13.661" cy="13.661" r="13.661" transform="translate(-3081.119 4015.405)" fill="#0c2545"/>
                  <circle id="Ellipse_21" data-name="Ellipse 21" cx="6.204" cy="6.204" r="6.204" transform="translate(-3073.661 4022.863)" fill="#ebe3d5"/>
                </g>
                <g id="Group_823" data-name="Group 823">
                  <path id="Path_742" data-name="Path 742" d="M-2990.015,4072.658l-51.826-5.964-27.042-36.573,2.85-2.109,26.128,35.337,50.3,5.787Z" fill="#ebe3d5"/>
                </g>
                <rect id="Rectangle_29" data-name="Rectangle 29" width="17.286" height="9.558" rx="0.63" transform="translate(-3003.878 4064.89)" fill="#0c2545"/>
              </g>
            </g>
            <path id="Path_743" data-name="Path 743" d="M-3101.479,4210.315l-9.921,29.243-5.889-20.215Z" fill="#e9e4d5"/>
            <path id="Path_744" data-name="Path 744" d="M-3138.223,4126.207l-62.72,156.475h51.815l47.648-72.367Z" fill="#fff"/>
            <path id="Path_745" data-name="Path 745" d="M-2861.936,4319.678h-44.943a22.472,22.472,0,0,1,22.472-22.472A22.472,22.472,0,0,1-2861.936,4319.678Z" fill="#454545"/>
            <g id="Group_828" data-name="Group 828">
              <path id="Path_746" data-name="Path 746" d="M-3141.723,4271.435l218.121,24-3.06,9.406s-170.229,58.142-274.281-22.156Z" fill="#faaf98"/>
              <g id="Group_827" data-name="Group 827">
                <g id="Group_826" data-name="Group 826">
                  <path id="Path_747" data-name="Path 747" d="M-2923.6,4295.431l48.557-4.414-13.455,12.113a30.067,30.067,0,0,1-38.162,1.707h0Z" fill="#faaf98"/>
                </g>
                <path id="Path_748" data-name="Path 748" d="M-2875.045,4291.017l8.82,19.836s-12.806,2.906-12.582-16.449Z" fill="#faaf98"/>
                <path id="Path_749" data-name="Path 749" d="M-2885.785,4293.6l8,20.943S-2892.568,4316.192-2885.785,4293.6Z" fill="#faaf98"/>
                <path id="Path_750" data-name="Path 750" d="M-2875.045,4291.017l16.5,13.064s-11.13,5.876-17.649-10.485Z" fill="#faaf98"/>
              </g>
            </g>
            <g id="Group_844" data-name="Group 844">
              <path id="Path_751" data-name="Path 751" d="M-2672.983,4256.088h-199.8a21.785,21.785,0,0,1-21.751-23l7.806-129.759a21.784,21.784,0,0,1,21.75-20.564h199.8a21.785,21.785,0,0,1,21.751,23l-7.806,129.759A21.784,21.784,0,0,1-2672.983,4256.088Z" fill="#454545"/>
              <path id="Path_752" data-name="Path 752" d="M-2660.475,4256.088h-199.8a21.784,21.784,0,0,1-21.75-23l7.8-129.759a21.784,21.784,0,0,1,21.751-20.564h199.8a21.784,21.784,0,0,1,21.75,23l-7.805,129.759A21.784,21.784,0,0,1-2660.475,4256.088Z" fill="#5c5c5c"/>
              <g id="Group_831" data-name="Group 831">
                <g id="Group_830" data-name="Group 830">
                  <path id="Path_753" data-name="Path 753" d="M-2729.839,4207.036h-62.35l26.178,95.7a4.937,4.937,0,0,1-4.762,6.24h-60.836v10.932h111.8a15.83,15.83,0,0,0,15.273-19.99Zm-4.787,78.5a14.1,14.1,0,0,1-14.1-14.1,14.1,14.1,0,0,1,14.1-14.1,14.1,14.1,0,0,1,14.1,14.1A14.1,14.1,0,0,1-2734.626,4285.532Z" fill="#454545"/>
                  <g id="Group_829" data-name="Group 829">
                    <path id="Path_754" data-name="Path 754" d="M-2741.068,4169.5h-35.7a15.419,15.419,0,0,0-15.419,15.419v22.12h66.539v-22.12A15.418,15.418,0,0,0-2741.068,4169.5Z" fill="#454545"/>
                    <path id="Path_755" data-name="Path 755" d="M-2730.82,4169.5h-35.7a15.418,15.418,0,0,0-15.418,15.419v22.12h66.539v-22.12A15.419,15.419,0,0,0-2730.82,4169.5Z" fill="#dadada"/>
                    <path id="Path_756" data-name="Path 756" d="M-2690.133,4299.046l-25.064-92.01h-66.743l3.753,13.779h-.03l23.54,86.415a10.072,10.072,0,0,1-9,12.678h57.609A16.521,16.521,0,0,0-2690.133,4299.046Zm-39.368-13.514a14.1,14.1,0,0,1-14.1-14.1,14.1,14.1,0,0,1,14.1-14.1,14.1,14.1,0,0,1,14.1,14.1A14.1,14.1,0,0,1-2729.5,4285.532Z" fill="#dadada"/>
                    <path id="Path_757" data-name="Path 757" d="M-2730.82,4169.5h-35.7a15.418,15.418,0,0,0-15.418,15.419v22.12h66.539v-22.12A15.419,15.419,0,0,0-2730.82,4169.5Z" fill="#5c5c5c"/>
                  </g>
                </g>
                <path id="Path_758" data-name="Path 758" d="M-2690.133,4299.046l-25.064-92.01h-66.743l3.753,13.779h-.03l23.54,86.415a10.072,10.072,0,0,1-9,12.678h57.609A16.521,16.521,0,0,0-2690.133,4299.046Zm-39.368-13.514a14.1,14.1,0,0,1-14.1-14.1,14.1,14.1,0,0,1,14.1-14.1,14.1,14.1,0,0,1,14.1,14.1A14.1,14.1,0,0,1-2729.5,4285.532Z" fill="#5c5c5c"/>
                <path id="Path_759" data-name="Path 759" d="M-2690.133,4299.046l-25.064-92.01h-.2v-22.12a15.419,15.419,0,0,0-15.419-15.419h-35.7" fill="none" stroke="#eef1ef" stroke-linecap="round" stroke-linejoin="round" stroke-width="1"/>
                <path id="Path_760" data-name="Path 760" d="M-2715.2,4207.036l25.064,92.01a16.521,16.521,0,0,1-15.94,20.862" fill="none" stroke="#eef1ef" stroke-linecap="round" stroke-linejoin="round" stroke-width="1"/>
              </g>
              <g id="Group_837" data-name="Group 837">
                <g id="Group_832" data-name="Group 832">
                  <path id="Path_761" data-name="Path 761" d="M-2855.437,4198.479l-.088,0a1.568,1.568,0,0,1-1.479-1.654l4.3-76.7a1.546,1.546,0,0,1,1.654-1.479,1.567,1.567,0,0,1,1.478,1.653l-4.3,76.705A1.569,1.569,0,0,1-2855.437,4198.479Z" fill="#c4c1b9"/>
                </g>
                <g id="Group_833" data-name="Group 833">
                  <path id="Path_762" data-name="Path 762" d="M-2845.214,4198.479l-.089,0a1.568,1.568,0,0,1-1.478-1.654l4.3-76.7a1.543,1.543,0,0,1,1.653-1.479,1.568,1.568,0,0,1,1.479,1.653l-4.3,76.705A1.57,1.57,0,0,1-2845.214,4198.479Z" fill="#c4c1b9"/>
                </g>
                <g id="Group_834" data-name="Group 834">
                  <path id="Path_763" data-name="Path 763" d="M-2834.99,4198.479l-.088,0a1.568,1.568,0,0,1-1.479-1.654l4.3-76.7a1.537,1.537,0,0,1,1.654-1.479,1.567,1.567,0,0,1,1.478,1.653l-4.3,76.705A1.569,1.569,0,0,1-2834.99,4198.479Z" fill="#c4c1b9"/>
                </g>
                <g id="Group_835" data-name="Group 835">
                  <path id="Path_764" data-name="Path 764" d="M-2824.767,4198.479l-.089,0a1.568,1.568,0,0,1-1.478-1.654l4.3-76.7a1.558,1.558,0,0,1,1.653-1.479,1.568,1.568,0,0,1,1.479,1.653l-4.3,76.705A1.57,1.57,0,0,1-2824.767,4198.479Z" fill="#c4c1b9"/>
                </g>
                <g id="Group_836" data-name="Group 836">
                  <path id="Path_765" data-name="Path 765" d="M-2814.542,4198.479l-.089,0a1.569,1.569,0,0,1-1.479-1.654l4.3-76.7a1.553,1.553,0,0,1,1.653-1.479,1.567,1.567,0,0,1,1.479,1.653l-4.3,76.705A1.569,1.569,0,0,1-2814.542,4198.479Z" fill="#c4c1b9"/>
                </g>
              </g>
              <g id="Group_843" data-name="Group 843">
                <g id="Group_838" data-name="Group 838">
                  <path id="Path_766" data-name="Path 766" d="M-2695.929,4198.479l-.089,0a1.569,1.569,0,0,1-1.479-1.654l4.3-76.7a1.553,1.553,0,0,1,1.653-1.479,1.567,1.567,0,0,1,1.478,1.653l-4.3,76.705A1.569,1.569,0,0,1-2695.929,4198.479Z" fill="#c4c1b9"/>
                </g>
                <g id="Group_839" data-name="Group 839">
                  <path id="Path_767" data-name="Path 767" d="M-2685.707,4198.479l-.089,0a1.568,1.568,0,0,1-1.478-1.654l4.3-76.7a1.548,1.548,0,0,1,1.654-1.479,1.567,1.567,0,0,1,1.478,1.653l-4.3,76.705A1.569,1.569,0,0,1-2685.707,4198.479Z" fill="#c4c1b9"/>
                </g>
                <g id="Group_840" data-name="Group 840">
                  <path id="Path_768" data-name="Path 768" d="M-2675.482,4198.479l-.089,0a1.568,1.568,0,0,1-1.479-1.654l4.3-76.7a1.543,1.543,0,0,1,1.653-1.479,1.568,1.568,0,0,1,1.479,1.653l-4.3,76.705A1.569,1.569,0,0,1-2675.482,4198.479Z" fill="#c4c1b9"/>
                </g>
                <g id="Group_841" data-name="Group 841">
                  <path id="Path_769" data-name="Path 769" d="M-2665.26,4198.479l-.088,0a1.568,1.568,0,0,1-1.479-1.654l4.3-76.7a1.538,1.538,0,0,1,1.654-1.479,1.567,1.567,0,0,1,1.478,1.653l-4.3,76.705A1.569,1.569,0,0,1-2665.26,4198.479Z" fill="#c4c1b9"/>
                </g>
                <g id="Group_842" data-name="Group 842">
                  <path id="Path_770" data-name="Path 770" d="M-2655.035,4198.479l-.089,0a1.568,1.568,0,0,1-1.479-1.654l4.3-76.7a1.56,1.56,0,0,1,1.653-1.479,1.568,1.568,0,0,1,1.479,1.653l-4.3,76.705A1.569,1.569,0,0,1-2655.035,4198.479Z" fill="#c4c1b9"/>
                </g>
              </g>
            </g>
            <path id="Path_771" data-name="Path 771" d="M-2875.245,4380.442h-69.811L-2979.5,4753.4h10.784c81.009-216.71,104.267-314.213,110.944-352.171A17.721,17.721,0,0,0-2875.245,4380.442Z" fill="#0c2545"/>
            <path id="Path_772" data-name="Path 772" d="M-2978.193,4739.2s77.339-199.32,57.425-334.013c-1.267-8.574-24.288-24.741-24.288-24.741Z" fill="#061628" opacity="0.66"/>
            <path id="Path_773" data-name="Path 773" d="M-2942.845,4380.442h-59.279L-3141.333,4739.2l8.717,14.2c100.324-154.2,191.918-291.051,210.889-342.635A22.519,22.519,0,0,0-2942.845,4380.442Z" fill="#0c2545"/>
            <path id="Path_774" data-name="Path 774" d="M-3024.938,4442.683c-33.888,8.3-69.573-3.474-76.542-24.714-7.9-24.093,12.247-37.527,12.247-37.527l-14.861-39.886-25.879,3.127-17.241,53.935c-14.873,46.53,19.843,94.074,68.692,94.074h33.229l-96.04,247.5C-2997.278,4509.964-3024.938,4442.683-3024.938,4442.683Z" fill="#061628" opacity="0.66"/>
            <path id="Path_775" data-name="Path 775" d="M-3131.634,4348.88h155.025l.681,31.562h-165.795Z" fill="#fff"/>
            <g id="Group_845" data-name="Group 845">
              <path id="Path_776" data-name="Path 776" d="M-2968.721,4753.4v44.453l27.833,3.021h-36.346l-2.271-27.186-12.833-16.829,14.144-17.662Z" fill="#9a2f21"/>
              <path id="Path_777" data-name="Path 777" d="M-2940.888,4800.873l-4.336,15.231h-28.724a8.951,8.951,0,0,1-8.951-8.952v-29.967l-14.686-19.092,19.392-18.9.959,61.677Z" fill="#e0d5c2"/>
              <path id="Path_778" data-name="Path 778" d="M-2997.585,4758.093V4816.1l10.1-51.58Z" fill="#e0d5c2"/>
            </g>
            <g id="Group_846" data-name="Group 846">
              <path id="Path_779" data-name="Path 779" d="M-3131.861,4753.4v44.453l27.833,3.021h-36.346l-2.271-27.186-12.833-16.829,14.144-17.662Z" fill="#9a2f21"/>
              <path id="Path_780" data-name="Path 780" d="M-3104.028,4800.873l-4.335,15.231h-28.725a8.952,8.952,0,0,1-8.951-8.952v-29.967l-14.686-19.092,19.392-18.9.959,61.677Z" fill="#e0d5c2"/>
              <path id="Path_781" data-name="Path 781" d="M-3160.725,4758.093V4816.1l10.1-51.58Z" fill="#e0d5c2"/>
            </g>
            <g id="Group_851" data-name="Group 851">
              <g id="Group_849" data-name="Group 849">
                <g id="Group_847" data-name="Group 847">
                  <path id="Rectangle_30" data-name="Rectangle 30" d="M0,0H142.836a0,0,0,0,1,0,0V459.883a7.34,7.34,0,0,1-7.34,7.34H7.34A7.34,7.34,0,0,1,0,459.883V0A0,0,0,0,1,0,0Z" transform="translate(-3284.277 4348.88)" fill="#6a7075"/>
                  <path id="Rectangle_31" data-name="Rectangle 31" d="M0,0H142.836a0,0,0,0,1,0,0V459.883a7.34,7.34,0,0,1-7.34,7.34H7.34A7.34,7.34,0,0,1,0,459.883V0A0,0,0,0,1,0,0Z" transform="translate(-3304.656 4348.88)" fill="#505a63"/>
                </g>
                <g id="Group_848" data-name="Group 848">
                  <path id="Rectangle_32" data-name="Rectangle 32" d="M0,0H142.836a0,0,0,0,1,0,0V459.883a7.34,7.34,0,0,1-7.34,7.34H7.34A7.34,7.34,0,0,1,0,459.883V0A0,0,0,0,1,0,0Z" transform="translate(-2730.971 4348.88)" fill="#6a7075"/>
                  <path id="Rectangle_33" data-name="Rectangle 33" d="M0,0H142.836a0,0,0,0,1,0,0V459.883a7.34,7.34,0,0,1-7.34,7.34H7.34A7.34,7.34,0,0,1,0,459.883V0A0,0,0,0,1,0,0Z" transform="translate(-2751.351 4348.88)" fill="#505a63"/>
                </g>
              </g>
              <g id="Group_850" data-name="Group 850">
                <rect id="Rectangle_34" data-name="Rectangle 34" width="757.576" height="44.984" rx="2.966" transform="translate(-3363.696 4319.678)" fill="#323c47"/>
                <rect id="Rectangle_35" data-name="Rectangle 35" width="538.602" height="44.984" rx="2.966" transform="translate(-3035.501 4319.678)" fill="#505a63"/>
              </g>
              <rect id="Rectangle_36" data-name="Rectangle 36" width="142.836" height="26.304" transform="translate(-3304.656 4364.661)" fill="#323c47"/>
              <rect id="Rectangle_37" data-name="Rectangle 37" width="142.836" height="26.304" transform="translate(-2751.351 4364.661)" fill="#323c47"/>
            </g>
          </g>
          <g id="Group_854" data-name="Group 854">
            <path id="Path_782" data-name="Path 782" d="M-2623.184,3946.206l-25.738-20.61h-162.947a19.651,19.651,0,0,1-19.651-19.652v-26.957a19.651,19.651,0,0,1,19.651-19.651h169.033a19.651,19.651,0,0,1,19.652,19.651Z" fill="#fff" stroke="#60806b" stroke-miterlimit="10" stroke-width="0.25"/>
            <g id="Group_853" data-name="Group 853">
              <line id="Line_3" data-name="Line 3" x2="114.117" transform="translate(-2808.27 3875.726)" fill="none" stroke="#60806b" stroke-miterlimit="10" stroke-width="0.25"/>
              <line id="Line_4" data-name="Line 4" x2="114.117" transform="translate(-2808.27 3890.885)" fill="none" stroke="#60806b" stroke-miterlimit="10" stroke-width="0.25"/>
              <line id="Line_5" data-name="Line 5" x2="114.117" transform="translate(-2808.27 3906.043)" fill="none" stroke="#60806b" stroke-miterlimit="10" stroke-width="0.25"/>
            </g>
          </g>
          <g id="Group_856" data-name="Group 856">
            <path id="Path_783" data-name="Path 783" d="M-2876.19,4038.363l25.738-20.61h162.946a19.651,19.651,0,0,0,19.652-19.652v-26.957a19.651,19.651,0,0,0-19.652-19.651h-169.033a19.651,19.651,0,0,0-19.651,19.651Z" fill="#fff" stroke="#60806b" stroke-miterlimit="10" stroke-width="0.25"/>
            <g id="Group_855" data-name="Group 855">
              <line id="Line_6" data-name="Line 6" x1="114.117" transform="translate(-2805.221 3967.883)" fill="none" stroke="#60806b" stroke-miterlimit="10" stroke-width="0.25"/>
              <line id="Line_7" data-name="Line 7" x1="114.117" transform="translate(-2805.221 3983.042)" fill="none" stroke="#60806b" stroke-miterlimit="10" stroke-width="0.25"/>
              <line id="Line_8" data-name="Line 8" x1="114.117" transform="translate(-2805.221 3998.2)" fill="none" stroke="#60806b" stroke-miterlimit="10" stroke-width="0.25"/>
            </g>
          </g>
          <g id="Group_857" data-name="Group 857">
            <path id="Path_784" data-name="Path 784" d="M-2470.451,3917.552l.662-.144c10.438,6.25,17.233,5.949,20.648.631l.1-.161c2.9-4.511,1.451-9.878-4.35-13.6-5.076-3.26-10.712-3.695-17.219-2.07l-1.9-10.327c8.088-2.315,16.459-2.06,25.16,3.529,11.278,7.244,14.9,18.444,8.427,28.515l-.1.161c-6.52,10.151-16.8,10.034-26.727,5.82l-4.945,5.928-6.526-4.191Zm-13.455,19.353,10.795,6.934-7.141,11.118-10.8-6.934Z" fill="#0c2545"/>
          </g>
          <circle id="Ellipse_22" data-name="Ellipse 22" cx="30.996" cy="30.996" r="30.996" transform="translate(-2454.279 4251.685)" fill="#eef1ef" stroke="#60806b" stroke-miterlimit="10" stroke-width="0.25"/>
          <circle id="Ellipse_23" data-name="Ellipse 23" cx="15.498" cy="15.498" r="15.498" transform="translate(-2527.896 4566.994)" fill="#eef1ef" stroke="#60806b" stroke-miterlimit="10" stroke-width="0.25"/>
          <path id="Path_785" data-name="Path 785" d="M-2401.1,4023.068l-8.42,34.626-26.205-26.206Z" fill="#eef1ef" stroke="#60806b" stroke-miterlimit="10" stroke-width="0.25"/>
          <path id="Path_786" data-name="Path 786" d="M-3185.967,3967.883l-43.125,26.253V3941.63Z" fill="#eef1ef" stroke="#60806b" stroke-miterlimit="10" stroke-width="0.25"/>
          <path id="Path_787" data-name="Path 787" d="M-2303.169,4420.13l-43.125,26.253v-52.507Z" fill="#eef1ef" stroke="#60806b" stroke-miterlimit="10" stroke-width="0.25"/>
        </g>
      </g>
    </g>
  </g>
</svg>
