<svg xmlns="http://www.w3.org/2000/svg" xmlns:xlink="http://www.w3.org/1999/xlink" width="2346.596" height="1857.159" viewBox="0 0 2346.596 1857.159">
  <defs>
    <linearGradient id="linear-gradient" x1="310.591" y1="0.5" x2="311.591" y2="0.5" gradientUnits="objectBoundingBox">
      <stop offset="0" stop-color="#fff"/>
      <stop offset="1" stop-color="#cdd3d7"/>
    </linearGradient>
    <linearGradient id="linear-gradient-2" x1="261.445" y1="0.5" x2="262.445" y2="0.5" xlink:href="#linear-gradient"/>
    <linearGradient id="linear-gradient-3" x1="208.165" y1="0.5" x2="209.165" y2="0.5" xlink:href="#linear-gradient"/>
    <linearGradient id="linear-gradient-4" x1="115.739" y1="0.5" x2="116.739" y2="0.5" xlink:href="#linear-gradient"/>
  </defs>
  <g id="Group_234" data-name="Group 234" transform="translate(4618.282 3483.513)">
    <g id="Group_1043" data-name="Group 1043">
      <g id="Group_17" data-name="Group 17">
        <path id="Path_47" data-name="Path 47" d="M-3330.885-2751.214l-892.893,10.56v-456.679l892.893,110.248Z" fill="#001224"/>
        <path id="Path_48" data-name="Path 48" d="M-3330.885-2751.214l-892.893,10.56v-65.416h892.893Z" fill="#ff7600"/>
        <path id="Path_49" data-name="Path 49" d="M-3353.435-2925.632l-870.343-38.49v-19.09l870.343,49.049Z" fill="#ff7600"/>
        <path id="Path_50" data-name="Path 50" d="M-3602.122-2964.838l-621.656-35.377V-3010.3l621.656,42.918Z" fill="#ff7600"/>
        <path id="Path_51" data-name="Path 51" d="M-3677.038-2828.276l-546.74-2.143v-41.121l122.732,7.407Z" fill="#ff7600"/>
        <path id="Path_52" data-name="Path 52" d="M-3330.885-2751.214l-892.893,10.56v-20.61l892.893-1.516Z" fill="#004184"/>
        <path id="Path_53" data-name="Path 53" d="M-3330.885-3075.21l-892.893-99.446v-22.677l892.893,110.248Z" fill="#004184"/>
        <path id="Path_54" data-name="Path 54" d="M-3914.238-2717.376l-31.8-.7v-461.792l31.8.406Z" fill="#00214b"/>
        <path id="Path_55" data-name="Path 55" d="M-3946.034-2742.652l-10.075-.218V-3152.8l10.075.134Z" fill="#004184"/>
        <path id="Path_56" data-name="Path 56" d="M-3604.363-2752.478l-14.63-.31v-363.73l14.63,1.965Z" fill="#004184"/>
        <path id="Path_57" data-name="Path 57" d="M-3330.885-2757.781l-22.55-.89v-331.505l22.55,3.09Z" fill="#004184"/>
        <path id="Path_58" data-name="Path 58" d="M-3575.246-2732.833l-29.117-.628v-401.324l29.117.395Z" fill="#00214b"/>
      </g>
      <g id="Group_18" data-name="Group 18">
        <path id="Path_59" data-name="Path 59" d="M-3066.183-2711.4l-970.877,51.441v-23.67l970.877-41.712Z" fill="#c7cdcd"/>
        <path id="Path_60" data-name="Path 60" d="M-3066.19-2725.359l-970.817,43.61-117.172-49.326,932.58-4.058Z" fill="#d9dfdf"/>
      </g>
      <g id="Group_22" data-name="Group 22">
        <path id="Path_61" data-name="Path 61" d="M-3525.732-2902.215l213.324,7.564c2.8.1,5.624,2.643,5.733,5.163l5.755,135.712s1.222,6.952-4.8,6.955l-215.2,1.853c-4.893,0-4.7-7.379-4.7-7.379l-5.319-145.517C-3531.029-2900.534-3528.885-2902.326-3525.732-2902.215Z" fill="#002c5a"/>
        <g id="Group_19" data-name="Group 19">
          <path id="Path_62" data-name="Path 62" d="M-3446.727-2776.611l74.745,3.53a1.961,1.961,0,0,1,1.831,1.734l-68.511,45.519-8.883-.879-1.119-48.414C-3448.684-2776.053-3447.885-2776.667-3446.727-2776.611Z" fill="#002c5a"/>
        </g>
        <g id="Group_20" data-name="Group 20">
          <path id="Path_63" data-name="Path 63" d="M-3437.847-2776.812l74.626,3.531a1.953,1.953,0,0,1,1.825,1.733l-.4,43.976-76.864,1.744-1.119-49.494C-3439.8-2776.251-3439-2776.865-3437.847-2776.812Z" fill="#004184"/>
        </g>
        <path id="Path_64" data-name="Path 64" d="M-3521.844-2902.215l213.327,7.564c2.8.1,5.623,2.643,5.73,5.163l5.754,135.712s1.225,6.952-4.794,6.955l-215.2,1.853c-4.9,0-4.7-7.379-4.7-7.379l-5.319-145.517C-3527.141-2900.534-3525-2902.326-3521.844-2902.215Z" fill="#1b6ba3"/>
        <g id="Group_21" data-name="Group 21">
          <path id="Path_65" data-name="Path 65" d="M-3515.207-2896.152l200.628,6.446c2.643.084,5.305,2.463,5.406,4.828l5.364,127.334-211.331,1.48-4.943-136C-3520.172-2894.565-3518.163-2896.246-3515.207-2896.152Z" fill="#004184"/>
        </g>
        <rect id="Rectangle_8" data-name="Rectangle 8" width="18.995" height="6.132" transform="translate(-3457.57 -2730.145)" fill="#001224"/>
        <rect id="Rectangle_9" data-name="Rectangle 9" width="86.668" height="6.132" transform="translate(-3438.575 -2730.145)" fill="#002c5a"/>
      </g>
      <g id="Group_26" data-name="Group 26">
        <path id="Path_66" data-name="Path 66" d="M-3918.094-2914.708l239.146,8.479c3.142.111,6.3,2.962,6.424,5.788l6.453,152.138s1.373,7.795-5.375,7.795l-241.245,2.079c-5.486,0-5.269-8.272-5.269-8.272l-5.964-163.13C-3924.033-2912.826-3921.627-2914.834-3918.094-2914.708Z" fill="#002c5a"/>
        <g id="Group_23" data-name="Group 23">
          <path id="Path_67" data-name="Path 67" d="M-3829.525-2773.9l83.793,3.958a2.192,2.192,0,0,1,2.049,1.945l-76.8,51.028-9.955-.985-1.256-54.274C-3831.721-2773.276-3830.823-2773.965-3829.525-2773.9Z" fill="#002c5a"/>
        </g>
        <g id="Group_24" data-name="Group 24">
          <path id="Path_68" data-name="Path 68" d="M-3819.57-2774.127l83.657,3.958a2.188,2.188,0,0,1,2.046,1.942l-.45,49.3-86.168,1.956-1.254-55.482C-3821.764-2773.5-3820.868-2774.189-3819.57-2774.127Z" fill="#004184"/>
        </g>
        <path id="Path_69" data-name="Path 69" d="M-3913.734-2914.708l239.148,8.479c3.14.111,6.3,2.962,6.421,5.788l6.453,152.138s1.373,7.795-5.375,7.795l-241.244,2.079c-5.487,0-5.269-8.272-5.269-8.272l-5.964-163.13C-3919.673-2912.826-3917.267-2914.834-3913.734-2914.708Z" fill="#1b6ba3"/>
        <g id="Group_25" data-name="Group 25">
          <path id="Path_70" data-name="Path 70" d="M-3906.294-2907.911l224.909,7.224c2.967.095,5.95,2.762,6.062,5.413l6.014,142.746-236.909,1.66-5.54-152.467C-3911.862-2906.133-3909.607-2908.018-3906.294-2907.911Z" fill="#004184"/>
        </g>
        <rect id="Rectangle_10" data-name="Rectangle 10" width="21.297" height="6.877" transform="translate(-3841.682 -2721.815)" fill="#001224"/>
        <rect id="Rectangle_11" data-name="Rectangle 11" width="97.156" height="6.877" transform="translate(-3820.385 -2721.815)" fill="#002c5a"/>
      </g>
      <g id="Group_80" data-name="Group 80">
        <g id="Group_29" data-name="Group 29">
          <path id="Path_71" data-name="Path 71" d="M-3871.424-2495.429c7.555-3.746,31.95-3.243,47.573-.545s33.435,4.39,36.1,17.1c1.295,6.166-2.191,17.136-25.308,13.137s-37.227,3.539-53.066-11.044S-3878.982-2491.687-3871.424-2495.429Z" fill="#00214b"/>
          <path id="Path_72" data-name="Path 72" d="M-3874.843-2493.71c-.642,2.16,2.352,5.414,12.319,13.134,16.737,12.961,29.572,5.517,52.248,8.45,14.431,1.865,20.582-1.615,22.67-5.852.776,6.263-3.422,16.05-25.453,12.238-23.114-4-37.227,3.539-53.066-11.044C-3879.236-2488.857-3879.445-2491.154-3874.843-2493.71Z" fill="#00d3f1"/>
          <g id="Group_28" data-name="Group 28">
            <g id="Group_27" data-name="Group 27">
              <path id="Path_73" data-name="Path 73" d="M-3821.529-2639.47c16.394,15.319,43.8,153.125,43.8,153.125-24.108,16.438-57.52-3.835-57.52-3.835s-38.059-131.09-39.706-145.885C-3876.01-2645.526-3837.92-2654.786-3821.529-2639.47Z" fill="#070b0b"/>
            </g>
          </g>
        </g>
        <g id="Group_32" data-name="Group 32">
          <path id="Path_74" data-name="Path 74" d="M-3900.338-2492.309c7.555-3.745,31.95-3.243,47.573-.544s33.435,4.39,36.1,17.1c1.3,6.165-2.193,17.136-25.307,13.136s-37.228,3.539-53.066-11.043S-3907.9-2488.564-3900.338-2492.309Z" fill="#00214b"/>
          <path id="Path_75" data-name="Path 75" d="M-3903.76-2490.59c-.639,2.16,2.356,5.414,12.322,13.134,16.737,12.961,29.572,5.518,52.248,8.451,14.432,1.864,20.583-1.616,22.671-5.853.775,6.266-3.422,16.051-25.453,12.238-23.114-4-37.228,3.539-53.066-11.043C-3908.15-2485.734-3908.359-2488.034-3903.76-2490.59Z" fill="#00d3f1"/>
          <g id="Group_31" data-name="Group 31">
            <g id="Group_30" data-name="Group 30">
              <path id="Path_76" data-name="Path 76" d="M-3850.443-2636.349c16.394,15.319,43.8,153.124,43.8,153.124-24.108,16.438-57.521-3.835-57.521-3.835s-38.059-131.09-39.7-145.885C-3904.924-2642.406-3866.834-2651.666-3850.443-2636.349Z" fill="#001224"/>
            </g>
          </g>
        </g>
        <g id="Group_38" data-name="Group 38">
          <g id="Group_37" data-name="Group 37">
            <g id="Group_33" data-name="Group 33">
              <path id="Path_77" data-name="Path 77" d="M-3725.076-2657.211l89.236,24.685c7.247.938,13.2,5.026,14.13,9.255l24.241,184.547-5.015,2.238-26.854-181.667c-.552-2.487-4.289-10.884-8.04-10.544l-86.13-24.953c-3.748.346-7.362,2.83-7.889,5.425l-31.476,160.7-5.744,2.4,28.038-162.8C-3739.681-2652.341-3731.453-2656.625-3725.076-2657.211Z" fill="#00d3f1"/>
            </g>
            <g id="Group_36" data-name="Group 36">
              <g id="Group_35" data-name="Group 35">
                <g id="Group_34" data-name="Group 34">
                  <path id="Path_78" data-name="Path 78" d="M-3731.239-2656.645l87.693,24.82c8.574,1.546,13.307,4.959,14.51,9.095l26.552,186.244-7.142-2.766-24.705-182.294c-.725-2.49-5.313-5.873-9.209-6.587l-87.665-24.811c-3.745.346-7.348,2.827-7.867,5.42l-29.3,162.368-7.021-3.583,30.992-158.833C-3743.521-2651.987-3737.616-2656.059-3731.239-2656.645Z" fill="#1b6ba3"/>
                </g>
              </g>
            </g>
          </g>
        </g>
        <g id="Group_44" data-name="Group 44">
          <g id="Group_43" data-name="Group 43">
            <g id="Group_39" data-name="Group 39">
              <path id="Path_79" data-name="Path 79" d="M-3821.323-2635.953l86.9,29.349c7.112,1.32,12.771,5.713,13.469,9.98l15.836,185.309-4.971,1.775-18.676-182.381c-.411-2.509-3.657-11.086-7.382-10.941l-83.811-29.455c-3.725.146-7.432,2.434-8.1,5l-38.735,158.932-5.69,1.915,35.33-161.037C-3836.028-2631.867-3827.661-2635.705-3821.323-2635.953Z" fill="#00d3f1"/>
            </g>
            <g id="Group_42" data-name="Group 42">
              <g id="Group_41" data-name="Group 41">
                <g id="Group_40" data-name="Group 40">
                  <path id="Path_80" data-name="Path 80" d="M-3827.449-2635.716l85.373,29.408c8.39,1.992,12.883,5.648,13.852,9.838l18.132,186.93-6.907-3.129-16.519-182.9c-.584-2.523-4.94-6.14-8.75-7.058l-85.345-29.391c-3.72.145-7.418,2.431-8.071,4.993l-36.556,160.54-6.756-3.944,38.042-156.928C-3839.846-2631.716-3833.787-2635.467-3827.449-2635.716Z" fill="#1b6ba3"/>
                </g>
              </g>
            </g>
          </g>
        </g>
        <g id="Group_48" data-name="Group 48">
          <g id="Group_46" data-name="Group 46">
            <g id="Group_45" data-name="Group 45">
              <path id="Path_81" data-name="Path 81" d="M-3839.089-2627.614l108.632-15.783a5.139,5.139,0,0,1,2.955-.142l111.692,14.421c4.7,1.339,3.162,14.362-5.61,16.631l-119.765,18.436a5.132,5.132,0,0,1-2.933.154l-96.425-19.433C-3845.28-2614.639-3844.819-2625.764-3839.089-2627.614Z" fill="#070b0b"/>
            </g>
          </g>
          <g id="Group_47" data-name="Group 47">
            <path id="Path_82" data-name="Path 82" d="M-3835.285-2630.067l105.593-20.924a5.126,5.126,0,0,1,2.958-.145l109.919,19.953c4.7,1.336,6.028,8.581-3.756,11.138l-119.863,18.487a5.151,5.151,0,0,1-2.936.153l-96.5-19.463C-3844.61-2622.178-3843.909-2628.468-3835.285-2630.067Z" fill="#002c5a"/>
          </g>
        </g>
        <g id="Group_50" data-name="Group 50">
          <g id="Group_49" data-name="Group 49">
            <path id="Path_83" data-name="Path 83" d="M-3894.008-2654.892c48.74-29.779,94.577-30.918,115.523-31.945,54.14-2.654,129.957,10.045,119.5,49.064s-75.114,6.609-165.921,22.174S-3911.672-2644.1-3894.008-2654.892Z" fill="#001224"/>
          </g>
        </g>
        <g id="Group_52" data-name="Group 52">
          <g id="Group_51" data-name="Group 51">
            <path id="Path_84" data-name="Path 84" d="M-3765.491-2907.8c0-11.7,10.5-27.377,29.254-29.441s26.489,4.731,31.755,10.565c22.249,24.654-3.5,51.756-2.253,61.132s10.254,15.5,10.254,15.5c-6.126,5-38.232,15.441-38.232,15.441.126-6.876-4.376-10.767-6.556-10.317-23.055,4.769-25.782-28.719-25.782-28.719-4.876-.688-8.3-3.937-7.376-5.688C-3768.053-2891.392-3765.491-2895.3-3765.491-2907.8Z" fill="#cda78d"/>
          </g>
        </g>
        <g id="Group_54" data-name="Group 54">
          <g id="Group_53" data-name="Group 53">
            <path id="Path_85" data-name="Path 85" d="M-3759.873-2905.638a23.668,23.668,0,0,0-.483-4.252c-1.537-7.391.483-15.171,6.319-19.961a33.552,33.552,0,0,1,17.8-7.391c18.752-2.062,26.489,4.731,31.755,10.565,22.249,24.654-3.5,51.756-2.253,61.132s10.254,15.5,10.254,15.5c-3.823,3.122-20.019,7.315-31.651,10.025-4.125-4.629-10.176-7.718-18.1-7.718a24.343,24.343,0,0,0-10.614,2.259c-13.832-5.544-10.209-28.161-10.209-28.161-1.931-.272-2.928-3.754-2.269-4.87C-3763.674-2888.108-3759.622-2894.75-3759.873-2905.638Z" fill="#c5a28a"/>
          </g>
        </g>
        <g id="Group_56" data-name="Group 56">
          <g id="Group_55" data-name="Group 55">
            <path id="Path_86" data-name="Path 86" d="M-3745.123-2834.564c12.98-5.972,41.724-9.238,56.27-10.02s38.762,22.23,42.29,54.934,15.442,107.745-2.012,153.393c0,0-71.729,17.085-128.758-50.962C-3755.181-2734.636-3790.4-2813.732-3745.123-2834.564Z" fill="#d75521"/>
          </g>
        </g>
        <g id="Group_58" data-name="Group 58">
          <g id="Group_57" data-name="Group 57">
            <path id="Path_87" data-name="Path 87" d="M-3750.909-2886.932c.04-.926,4.776-1.3,4.781-.523.023,4.093.285,8.73,1.627,12.588,7.513,21.572-4.99,30.241-5.612,30.6-20.5-.113-18.1-25.55-17.714-28.3C-3753.694-2868.431-3751.143-2881.017-3750.909-2886.932Z" fill="#070b0b"/>
          </g>
        </g>
        <g id="Group_60" data-name="Group 60">
          <g id="Group_59" data-name="Group 59">
            <path id="Path_88" data-name="Path 88" d="M-3757.942-2741.694c9.129-12.02,18.557-2.216,18.306-16.662-.106-6.07,19.9-20.549,22.947-25.871,3.2-5.588,6.6-48.553,39.58-56.98,13.248,7.475,27.867,26.715,30.546,51.557,3.531,32.7,15.442,107.745-2.012,153.393,0,0-71.729,17.085-128.758-50.962,4.4-9.411,6.511-20.077,7.469-31.28C-3760.57-2718.588-3764.779-2732.693-3757.942-2741.694Z" fill="#cb491b"/>
          </g>
        </g>
        <g id="Group_62" data-name="Group 62">
          <g id="Group_61" data-name="Group 61">
            <path id="Path_89" data-name="Path 89" d="M-3698.473-2855.081s8.894,6.5,11.241,9.851c0,0-20.951,18.343-57.291,10.4l5.8-7.312S-3707.468-2843.958-3698.473-2855.081Z" fill="#fff"/>
          </g>
        </g>
        <g id="Group_71" data-name="Group 71">
          <g id="Group_64" data-name="Group 64">
            <g id="Group_63" data-name="Group 63">
              <path id="Path_90" data-name="Path 90" d="M-3835.721-2913.274c2.06-7.619,14.276-21.717,16.815-21.739,5.716-.049-.547,13.893-.547,13.893s5.836-8,7.681-2.481c1.392,4.162-1.178,8.52-2.526,10.411-.455.565-.751.97-.751.97s.313-.357.751-.97c1.594-1.99,5.292-6.106,6.344-2.944,1.18,3.558-3.531,11.275-3.531,11.275s-.19,12.376,5.6,17.429,2.1,9.274-1.529,13.688-3.841,17.55-3.841,17.55l-21.4.838s10.6-22.671,6.625-32.577S-3837.78-2905.653-3835.721-2913.274Z" fill="#cda78d"/>
            </g>
          </g>
          <g id="Group_66" data-name="Group 66">
            <g id="Group_65" data-name="Group 65">
              <path id="Path_91" data-name="Path 91" d="M-3831.777-2908.33c3.848,2.3,10.206,3.6,15.324-5.126,1.544-2.634,4.9-8.589,4.985-8.782.528,3.719-1.63,7.364-2.83,9.048,1.594-1.99,5.292-6.106,6.344-2.944,1.18,3.558-3.531,11.275-3.531,11.275s-.19,12.376,5.6,17.429,2.1,9.274-1.529,13.688-3.841,17.55-3.841,17.55l-18.969-2.961c.2-5.346,8.755-7.216,9-11.237.385-6.2,3.455-12.188,2.126-18.269C-3820.335-2894.337-3836.435-2911.115-3831.777-2908.33Z" fill="#c5a28a"/>
            </g>
          </g>
          <g id="Group_68" data-name="Group 68">
            <g id="Group_67" data-name="Group 67">
              <path id="Path_92" data-name="Path 92" d="M-3827.675-2798.454c41.554-25.358,73.225-37.4,87.277-34.488,14.5,3.006,23.63,16.727,10.725,33.07-14.032,17.769-65.672,38.664-92.808,39.934S-3869.228-2773.1-3827.675-2798.454Z" fill="#cb491b"/>
            </g>
          </g>
          <g id="Group_70" data-name="Group 70">
            <g id="Group_69" data-name="Group 69">
              <path id="Path_93" data-name="Path 93" d="M-3829.238-2876.227s15.417-8.009,27.407,5.334c0,0-4.019,42.5-10.4,92.951-1.756,13.909-46.789,29.128-39.787-7.838S-3832.173-2864.2-3829.238-2876.227Z" fill="#cb491b"/>
            </g>
          </g>
        </g>
        <g id="Group_75" data-name="Group 75">
          <g id="Group_72" data-name="Group 72">
            <path id="Path_94" data-name="Path 94" d="M-3713.321-2773.876c2.548-7.971,12.788-14.588,22.536-14.768l92.61-1.889c12.4-.233,18.847,8.293,19.525,12.811.193,1.262-9.879.754-10.236,2.216l-22.682,78.2s-111.976,8.936-116.919,9.673c-5.009.745-9.888-3.4-5.821-12.707C-3733.312-2702.622-3713.321-2773.876-3713.321-2773.876Z" fill="#002c5a"/>
          </g>
          <g id="Group_74" data-name="Group 74">
            <g id="Group_73" data-name="Group 73">
              <path id="Path_95" data-name="Path 95" d="M-3682.172-2781.347l93.651-2.875c7.056-.205,11.445,4.968,9.88,11.546l-21.021,73.6s-43.29,14.544-128.825,11.44l24.306-78.853C-3701.705-2774.415-3691.706-2781.071-3682.172-2781.347Z" fill="#070b0b"/>
            </g>
          </g>
        </g>
        <g id="Group_76" data-name="Group 76">
          <path id="Path_96" data-name="Path 96" d="M-3695.392-2748.858a4.284,4.284,0,0,1,2.791,5.38c-27.178,85.667-26.612,155.366-26.6,156.061a4.288,4.288,0,0,1-4.231,4.343h-.056a4.287,4.287,0,0,1-4.287-4.231c-.008-.706-.617-71.7,27.005-158.762A4.278,4.278,0,0,1-3695.392-2748.858Z" fill="#00d3f1"/>
        </g>
        <g id="Group_77" data-name="Group 77">
          <path id="Path_97" data-name="Path 97" d="M-3601.041-2758.077a4.288,4.288,0,0,1,2.8,5.379c-27.283,86.587-20.928,144.417-20.862,144.991a4.286,4.286,0,0,1-3.753,4.759,4.594,4.594,0,0,1-.508.031,4.286,4.286,0,0,1-4.251-3.782c-.287-2.411-6.689-60.071,21.2-148.578A4.284,4.284,0,0,1-3601.041-2758.077Z" fill="#00d3f1"/>
        </g>
        <path id="Path_98" data-name="Path 98" d="M-3698.387-2935.8c17.161,19.13,1.387,45.7-5.492,64.253-.7,1.892-2.559,7.721-2.333,9.337-.768-.166-11.943-.648-20.274-7.741-3.1-2.641-13.454-10.382-10.32-19.5,4.072-11.854-4.77-22.954-9.86-9.126a18.98,18.98,0,0,0-3.132-2.163c-.826-8.545-7.5-9.991-6.617-17.135.631-5.05,2.291-7.248-2.093-8.957-11.993-4.676-5.819-18.677-5.819-18.677C-3748.014-2933.784-3722.308-2962.464-3698.387-2935.8Z" fill="#070b0b"/>
        <g id="Group_79" data-name="Group 79">
          <path id="Path_99" data-name="Path 99" d="M-3732.885-2910.151a14.041,14.041,0,0,1,3.793,19.49,14.041,14.041,0,0,1-19.492,3.792,14.041,14.041,0,0,1-3.79-19.489A14.039,14.039,0,0,1-3732.885-2910.151Z" fill="#c7cdcd"/>
          <path id="Path_100" data-name="Path 100" d="M-3740.052-2907.245a9.653,9.653,0,0,1,2.607,13.4,9.652,9.652,0,0,1-13.4,2.608,9.656,9.656,0,0,1-2.61-13.405A9.657,9.657,0,0,1-3740.052-2907.245Z" fill="url(#linear-gradient)"/>
          <g id="Group_78" data-name="Group 78">
            <path id="Path_101" data-name="Path 101" d="M-3734.571-2950.148a2.852,2.852,0,0,1,3.785,1.337,2.871,2.871,0,0,1-1.306,3.815c-.7.347-17.083,8.95-12.509,44.869a2.861,2.861,0,0,1-2.476,3.2,2.98,2.98,0,0,1-.362.022,2.86,2.86,0,0,1-2.833-2.5C-3755.407-2939.751-3735.422-2949.742-3734.571-2950.148Z" fill="#004184"/>
          </g>
        </g>
      </g>
      <g id="Group_102" data-name="Group 102">
        <g id="Group_81" data-name="Group 81">
          <path id="Path_102" data-name="Path 102" d="M-3339.976-2817.912c4.5-5.512-5.085-29.3-8.49-33.2s3.307-3.529,4.535-.459c0,0-3.215-8.691-5.743-11.5s3.9-2.931,7.253,2.783a14.075,14.075,0,0,0-1.786-3.234c-.662-.543,3.567-3.356,7.728,5.914,0,0,2.61-3.072,5.007,1.7s5.085,13.875,5.085,13.875,1.3-5.788.349-10.512,4.331.362,4.819,7.234.919,14.8,3.378,19.716-7.318,11.495-10.851,19.646-23.712,54.017-32.344,62.535-31.844-4-16.86-21.063C-3377.9-2764.479-3344.472-2812.4-3339.976-2817.912Z" fill="#ffb4b3"/>
        </g>
        <g id="Group_83" data-name="Group 83">
          <g id="Group_82" data-name="Group 82">
            <path id="Path_103" data-name="Path 103" d="M-3332.069-2809.7c3.935-7.26,6.354-16.351,5.824-24.636-.243-3.781-4.471-19.033-6.034-22.879a8.192,8.192,0,0,1,.807,1.307c2.4,4.77,5.085,13.875,5.085,13.875s1.3-5.788.352-10.512,4.328.362,4.816,7.234.919,14.8,3.378,19.716-7.318,11.495-10.851,19.646-23.712,54.017-32.344,62.535c-6.146,6.062-8.867-10.092-2.654-26.184C-3360.107-2778.894-3335.109-2804.1-3332.069-2809.7Z" fill="#ef8985"/>
          </g>
        </g>
        <g id="Group_95" data-name="Group 95">
          <g id="Group_85" data-name="Group 85" style="isolation: isolate">
            <path id="Path_104" data-name="Path 104" d="M-3176.173-2514.042a7.473,7.473,0,0,1-1.538,4.089c-.377.477-6.277,5.088-6.277,5.088a7.706,7.706,0,0,0,.664-.584,7.5,7.5,0,0,0,.595-.669,3.929,3.929,0,0,0,.455-.659c4.546-9.171-8.052-17.973-15.727-13.536a7.39,7.39,0,0,0-.893.609s5.632-4.4,5.944-4.586C-3184.906-2528.663-3175.691-2520.972-3176.173-2514.042Z" fill="#001224"/>
            <g id="Group_84" data-name="Group 84">
              <path id="Path_105" data-name="Path 105" d="M-3194.345-2521.491a12.287,12.287,0,0,1,8.309,2.345c4.8,3.435,6.254,9.271,3.307,13.028a8.22,8.22,0,0,1-5.73,2.975,12.253,12.253,0,0,1-8.144-2.228c-4.82-3.357-6.441-9.182-3.555-13.027A8.148,8.148,0,0,1-3194.345-2521.491Z" fill="#1b6ba3"/>
              <path id="Path_106" data-name="Path 106" d="M-3194.292-2519.688a10.583,10.583,0,0,1,7.089,2.026c4.027,2.875,5.381,7.617,3.067,10.575a6.23,6.23,0,0,1-4.362,2.219h-.006a10.551,10.551,0,0,1-6.968-1.945c-4.03-2.816-5.5-7.566-3.229-10.586A6.171,6.171,0,0,1-3194.292-2519.688Z" fill="#070b0b"/>
              <path id="Path_107" data-name="Path 107" d="M-3195.545-2519.448c-.938,2.763.511,6.319,3.7,8.571a9.8,9.8,0,0,0,6.517,1.836h.006a6.754,6.754,0,0,0,2.255-.633,5.305,5.305,0,0,1-1.072,2.587,6.23,6.23,0,0,1-4.362,2.219h-.006a10.551,10.551,0,0,1-6.968-1.945c-4.03-2.816-5.5-7.566-3.229-10.586A5.821,5.821,0,0,1-3195.545-2519.448Z" fill="#070b0b"/>
            </g>
          </g>
          <path id="Path_108" data-name="Path 108" d="M-3270.486-2520.151c-3.926-3.33-37.169-5.677-37.169-5.677,12.771-3.971,96.188-12.517,123.114.617,1.725.84,3.062,3.946-7.376,2.52-10.505-1.434-45.806,8.811-45.806,8.811l-21.337,14.873c-35.185-1.881-64.782,12.07-64.782,12.07s-1.873-2.255-.809-3.9S-3270.486-2520.151-3270.486-2520.151Z" fill="#070b0b"/>
          <g id="Group_87" data-name="Group 87" style="isolation: isolate">
            <path id="Path_109" data-name="Path 109" d="M-3250.98-2453.273a6.743,6.743,0,0,1-1.013,3.946c-.3.458-5.3,4.882-5.3,4.882a6.051,6.051,0,0,0,.555-.561,6.141,6.141,0,0,0,.483-.642,3.358,3.358,0,0,0,.354-.634c3.288-8.841-9.268-17.426-15.93-13.17a6.2,6.2,0,0,0-.765.58s4.773-4.228,5.041-4.406C-3260.539-2467.47-3251.229-2459.971-3250.98-2453.273Z" fill="#001224"/>
            <g id="Group_86" data-name="Group 86">
              <path id="Path_110" data-name="Path 110" d="M-3268.563-2460.577a11.989,11.989,0,0,1,7.935,2.314c4.789,3.352,6.726,9,4.376,12.615a6.584,6.584,0,0,1-5,2.841,11.919,11.919,0,0,1-7.762-2.194c-4.8-3.268-6.893-8.906-4.613-12.612A6.529,6.529,0,0,1-3268.563-2460.577Z" fill="#1b6ba3"/>
              <path id="Path_111" data-name="Path 111" d="M-3268.328-2458.83a10.33,10.33,0,0,1,6.77,2c4.019,2.8,5.749,7.393,3.908,10.239a5.008,5.008,0,0,1-3.816,2.121h0a10.282,10.282,0,0,1-6.645-1.917c-4.016-2.741-5.864-7.343-4.067-10.251A4.964,4.964,0,0,1-3268.328-2458.83Z" fill="#070b0b"/>
              <path id="Path_112" data-name="Path 112" d="M-3269.464-2458.6c-.589,2.669,1.113,6.115,4.3,8.309a9.566,9.566,0,0,0,6.221,1.808h0a5.484,5.484,0,0,0,2.024-.6,4.748,4.748,0,0,1-.731,2.495,5.008,5.008,0,0,1-3.816,2.121h0a10.282,10.282,0,0,1-6.645-1.917c-4.016-2.741-5.864-7.343-4.067-10.251A4.636,4.636,0,0,1-3269.464-2458.6Z" fill="#00214b"/>
            </g>
          </g>
          <g id="Group_89" data-name="Group 89" style="isolation: isolate">
            <path id="Path_113" data-name="Path 113" d="M-3291.917-2517.4a6.357,6.357,0,0,1-.915,3.979c-.3.464-5.431,4.951-5.431,4.951h0a5.687,5.687,0,0,0,.569-.569,6.006,6.006,0,0,0,.486-.65,3.139,3.139,0,0,0,.351-.642c3.134-8.925-10.547-17.491-17.451-13.179a6.258,6.258,0,0,0-.79.589s4.9-4.275,5.18-4.454C-3302.645-2531.621-3292.456-2524.136-3291.917-2517.4Z" fill="#001224"/>
            <g id="Group_88" data-name="Group 88">
              <path id="Path_114" data-name="Path 114" d="M-3310.884-2524.653a13.6,13.6,0,0,1,8.515,2.286c5.222,3.346,7.513,9.026,5.161,12.682a6.8,6.8,0,0,1-5.206,2.894,13.507,13.507,0,0,1-8.341-2.174c-5.233-3.268-7.673-8.939-5.4-12.682A6.734,6.734,0,0,1-3310.884-2524.653Z" fill="#1b6ba3"/>
              <path id="Path_115" data-name="Path 115" d="M-3310.568-2522.9a11.709,11.709,0,0,1,7.27,1.973c4.381,2.8,6.41,7.415,4.563,10.3a5.166,5.166,0,0,1-3.969,2.157h0a11.657,11.657,0,0,1-7.142-1.9c-4.379-2.744-6.517-7.368-4.722-10.3A5.111,5.111,0,0,1-3310.568-2522.9Z" fill="#070b0b"/>
              <path id="Path_116" data-name="Path 116" d="M-3311.766-2522.663c-.519,2.688,1.424,6.146,4.893,8.339a10.845,10.845,0,0,0,6.684,1.792h0a5.927,5.927,0,0,0,2.127-.617,4.48,4.48,0,0,1-.678,2.521,5.166,5.166,0,0,1-3.969,2.157h0a11.657,11.657,0,0,1-7.142-1.9c-4.379-2.744-6.517-7.368-4.722-10.3A4.672,4.672,0,0,1-3311.766-2522.663Z" fill="#070b0b"/>
            </g>
          </g>
          <g id="Group_91" data-name="Group 91" style="isolation: isolate">
            <path id="Path_117" data-name="Path 117" d="M-3322.7-2488.932c.337.128,6.706,3.536,6.706,3.536a7.251,7.251,0,0,0-.985-.444c-8.309-3.025-18.319,8.482-11.552,17.3a7.691,7.691,0,0,0,.584.586,7.833,7.833,0,0,0,.72.569,7.578,7.578,0,0,0,.767.469s-6.664-3.556-7.133-3.971a8.537,8.537,0,0,1-2.437-3.921C-3338.165-2481.9-3331.344-2491.812-3322.7-2488.932Z" fill="#001224"/>
            <g id="Group_90" data-name="Group 90">
              <path id="Path_118" data-name="Path 118" d="M-3320.71-2486.309a7.784,7.784,0,0,1,6.223,2.01c3.639,3.4,3.508,9.776-.226,14.25a10.9,10.9,0,0,1-7.128,3.991,7.821,7.821,0,0,1-6.106-1.895c-3.679-3.279-3.718-9.634-.028-14.2A10.931,10.931,0,0,1-3320.71-2486.309Z" fill="#1b6ba3"/>
              <path id="Path_119" data-name="Path 119" d="M-3320.325-2484.425a5.9,5.9,0,0,1,4.7,1.465c2.864,2.666,2.615,7.9-.5,11.652a9.385,9.385,0,0,1-6.09,3.455h-.006a5.926,5.926,0,0,1-4.638-1.392c-2.891-2.587-2.76-7.787.338-11.6A9.437,9.437,0,0,1-3320.325-2484.425Z" fill="#070b0b"/>
              <path id="Path_120" data-name="Path 120" d="M-3326.214-2471.514h.005a8.747,8.747,0,0,0,5.694-3.255c2.464-3,2.975-6.988,1.426-9.664a5.684,5.684,0,0,1,3.469,1.473c2.864,2.666,2.615,7.9-.5,11.652a9.385,9.385,0,0,1-6.09,3.455h-.006a5.926,5.926,0,0,1-4.638-1.392,6.018,6.018,0,0,1-1.633-2.462A6.085,6.085,0,0,0-3326.214-2471.514Z" fill="#00214b"/>
            </g>
          </g>
          <path id="Path_121" data-name="Path 121" d="M-3273.506-2519.838c28.716-5.529-34.149-5.99-34.149-5.99s5.353-5.006,10.41-5.729c16.667-2.386,52.43-2.216,105.741.949,2.495.147,8.074,2.891,8.139,6.89.027,1.706-6.422-1.563-9.062-1.5-5.619.136-21.412-.57-32.115.27a.8.8,0,0,0-.215,1.563c19.4,5.308,46.9,29.193,49.5,31.78,2.906,2.891.818,10.636.818,10.636l-1.789,1.086c.084-14.527-56.091-17.513-71.36-18.786-.6-.05-1.136-.114-1.644-.187-4.22,12.7-10.312,26.229-8.515,37.861a15.317,15.317,0,0,0-6.776-.686s-.318-40.016,3.405-46.242c3.778-6.324-22.517-.383-32.149,3.226-9.564,3.586-31.2,14.716-31.2,14.716l.631,3.042-3.43-1.875-.636-3.017S-3307.007-2513.391-3273.506-2519.838Z" fill="#00214b"/>
          <path id="Path_122" data-name="Path 122" d="M-3311.537-2504.533a11.025,11.025,0,0,0,7.544,1.753,64.274,64.274,0,0,1,6.715-.288c-10.544,4.524-27.195,13.089-27.195,13.089l.631,3.042-3.43-1.875-.636-3.017A96.911,96.911,0,0,1-3311.537-2504.533Z" fill="#004184"/>
          <path id="Path_123" data-name="Path 123" d="M-3191.5-2530.608c2.495.147,8.074,2.891,8.139,6.89.027,1.706-6.422-1.563-9.062-1.5-5.619.136-21.412-.57-32.115.27a.8.8,0,0,0-.215,1.563c19.4,5.308,46.9,29.193,49.5,31.78,2.906,2.891.818,10.636.818,10.636l-1.789,1.086c.045-7.9-9.983-15.292-30.078-16.832-3.329-6.911-9.059-10.765-16.516-13.19-7.655-2.486-14.6-6.02-22.12-8.911-9.029-3.469-16.528-8.018-26.475-8.222-5.71-.117-11.364.717-17.08.483-5.794-.238-11.325-.759-17.125-.171-.416.042-.815.106-1.208.182,1.686-1.407,5.721-4.463,9.589-5.015C-3280.578-2533.943-3244.815-2533.773-3191.5-2530.608Z" fill="#001224"/>
          <path id="Path_124" data-name="Path 124" d="M-3258.382-2498.3c2.624,1.1,5.211,2.235,7.8,3.379-4.038,11.524-8.777,23.486-7.164,33.926a15.317,15.317,0,0,0-6.776-.686s-.2-25.439,1.607-38.905C-3261.4-2499.775-3259.894-2498.929-3258.382-2498.3Z" fill="#001224"/>
          <g id="Group_92" data-name="Group 92">
            <path id="Path_125" data-name="Path 125" d="M-3233.347-2520.715h0v.011c-.064,2.92-5.515,5.269-12.177,5.269s-12.082-2.349-12.109-5.269c0-.016,0-.03,0-.047h0l-.109-11.68h24.654Z" fill="#070b0b"/>
            <path id="Path_126" data-name="Path 126" d="M-3245.382-2537.937c6.855,0,12.358,2.475,12.291,5.506-.064,3.009-5.6,5.428-12.36,5.428s-12.266-2.419-12.294-5.428C-3257.773-2535.462-3252.239-2537.937-3245.382-2537.937Z" fill="#001224"/>
          </g>
          <g id="Group_94" data-name="Group 94" style="isolation: isolate">
            <path id="Path_127" data-name="Path 127" d="M-3169.431-2472.014a7.988,7.988,0,0,1-1.456,4.136c-.352.48-5.856,5.1-5.856,5.1a7.333,7.333,0,0,0,.62-.586,7.7,7.7,0,0,0,.555-.673,6.767,6.767,0,0,0,.424-.664c4.488-9.556-7.339-18.331-14.5-13.885a7.272,7.272,0,0,0-.831.606s5.255-4.421,5.548-4.608C-3177.424-2486.962-3168.928-2479.05-3169.431-2472.014Z" fill="#001224"/>
            <g id="Group_93" data-name="Group 93">
              <path id="Path_128" data-name="Path 128" d="M-3186.237-2479.748a10.694,10.694,0,0,1,7.694,2.459c4.426,3.534,5.735,9.473,2.975,13.257a7.407,7.407,0,0,1-5.331,2.964,10.685,10.685,0,0,1-7.535-2.331c-4.448-3.446-5.916-9.374-3.218-13.259A7.371,7.371,0,0,1-3186.237-2479.748Z" fill="#1b6ba3"/>
              <path id="Path_129" data-name="Path 129" d="M-3186.2-2477.916a9.225,9.225,0,0,1,6.567,2.126c3.714,2.956,4.937,7.784,2.769,10.762a5.621,5.621,0,0,1-4.058,2.213h-.006a9.209,9.209,0,0,1-6.447-2.035c-3.72-2.894-5.057-7.73-2.93-10.778A5.585,5.585,0,0,1-3186.2-2477.916Z" fill="#070b0b"/>
              <path id="Path_130" data-name="Path 130" d="M-3187.365-2477.679c-.887,2.8.436,6.421,3.383,8.738a8.553,8.553,0,0,0,6.031,1.923l0,0a5.782,5.782,0,0,0,2.1-.622,5.612,5.612,0,0,1-1.013,2.615,5.621,5.621,0,0,1-4.058,2.213h-.006a9.209,9.209,0,0,1-6.447-2.035c-3.72-2.894-5.057-7.73-2.93-10.778A5.347,5.347,0,0,1-3187.365-2477.679Z" fill="#00214b"/>
            </g>
          </g>
          <path id="Path_131" data-name="Path 131" d="M-3237.919-2533.91a3.725,3.725,0,0,1-1.51,3.159,11.417,11.417,0,0,1-11.638.009,3.651,3.651,0,0,1-1.557-3.2l-.352-73.44h16.078Z" fill="#00214b"/>
          <path id="Path_132" data-name="Path 132" d="M-3241.4-2508.172c21.277,1.144,38.226,8.7,62.147,18.21a4.745,4.745,0,0,1,3.048,4.5l-.031,5.579s-3.112-2.694-6.575-2.024l-.009-1.92a2.719,2.719,0,0,0-2.129-2.654c-9.009-2.26-35.349-10.552-51.69-10.552a4.831,4.831,0,0,0-4.421,2.855l-16.7,33.183s-4.591-15.383,12.012-45.148A4.623,4.623,0,0,1-3241.4-2508.172Z" fill="#070b0b"/>
        </g>
        <g id="Group_96" data-name="Group 96">
          <path id="Path_133" data-name="Path 133" d="M-3312.02-2509.59c18.747,0,18.546-11.594,14.987-33.351s-17.621-65.2-17.621-65.2,24.018-39.912,32.368-20.309,11.948,94.231,12.244,107.527,13.223,32.26-1.32,38.146-17.644-1.309-29.851-1.309-30.6-3.268-35.966-13.731S-3330.766-2509.59-3312.02-2509.59Z" fill="#ffb4b3"/>
          <path id="Path_134" data-name="Path 134" d="M-3292.618-2500.872c20.9-9.81-4.537-107.884-7.005-113.583,7.5-1.636,17.879-23.787,21.925-14.289,8.348,19.6,7.36,94.521,7.656,107.817s13.223,32.26-1.32,38.146-17.644-1.309-29.851-1.309c-11.591,0-28.752-2.953-35.048-12.207a24.791,24.791,0,0,0,7.052,1.007C-3320.462-2495.376-3301.334-2496.78-3292.618-2500.872Z" fill="#ef8985"/>
          <path id="Path_135" data-name="Path 135" d="M-3317.057-2509.551a25.482,25.482,0,0,0,22.916,13.173,41.4,41.4,0,0,0,25.751-9.04c.449-.36.9-.734,1.337-1.125,2.852,10.034,5.42,19.824-4.309,23.762-14.54,5.886-17.644-1.309-29.851-1.309s-30.6-3.268-35.966-13.731C-3342.047-2507.31-3332.806-2509.269-3317.057-2509.551Z" fill="#183656"/>
        </g>
        <g id="Group_97" data-name="Group 97">
          <path id="Path_136" data-name="Path 136" d="M-3335.4-2501.745c18.746,0,17.211-16.525,6.667-33.527s-26.5-65.025-26.5-65.025,23.541-17.192,35.31,2.409,21.906,71.513,24.524,84.809,18.852,32.26,5.339,38.146-17.873-1.309-30.08-1.309-31.172-3.268-38.364-13.731S-3354.143-2501.745-3335.4-2501.745Z" fill="#ffb4b3"/>
          <path id="Path_137" data-name="Path 137" d="M-3314.47-2493.026c19.182-9.808-4.505-51.88-10.413-63.73-2.9-5.819-6.3-11.376-9.062-17.251a72.372,72.372,0,0,1-1.959-9.168q-.133-2.181-.232-4.365c-.3-6.921-1.705-13.368-5.168-19.067,7.214-1.638,15.679-.779,21.383,8.719,11.772,19.6,21.906,71.513,24.524,84.809s18.852,32.26,5.339,38.146-17.873-1.309-30.08-1.309c-11.591,0-29.266-2.953-37.181-12.207a26.646,26.646,0,0,0,7.232,1.007C-3341.357-2487.528-3322.474-2488.932-3314.47-2493.026Z" fill="#ef8985"/>
          <path id="Path_138" data-name="Path 138" d="M-3340.428-2501.7c5.794,7.82,14.652,13.17,25.216,13.17a35.269,35.269,0,0,0,24.174-9.04c.385-.357.768-.734,1.142-1.122,4.6,10.031,8.88,19.824-.162,23.762-13.514,5.883-17.873-1.309-30.08-1.309s-31.172-3.268-38.364-13.731C-3365.027-2499.465-3356.127-2501.424-3340.428-2501.7Z" fill="#183656"/>
        </g>
        <path id="Path_139" data-name="Path 139" d="M-3355.655-2682.257c25.068-5.012,88.591-24.8,89.026-25.09l73.532-28.045s2.6,24.958,9.863,40.654,17.62,50.825-5.049,67.972-51.227,11.644-51.227,11.644c-35.165,13.949,2.56,50.947,2.56,50.947-21.362,11.773-26.045-12.388-63.532,6.794s-74.115-1.745-74.115-1.745-8.638-21.425-8.2-59.789S-3380.723-2677.244-3355.655-2682.257Z" fill="#d75521"/>
        <path id="Path_140" data-name="Path 140" d="M-3264.67-2631.865c11.644-3.882,23.463-6.918,32.629-15.628,14.289-13.587,17.8-14.181,4.334-28.749a43.934,43.934,0,0,0-14.264-10.366,53.283,53.283,0,0,0-12.785-3.893c-.584-.142-1.153-.3-1.708-.486a44.9,44.9,0,0,0-10.176-4.233,47.974,47.974,0,0,0-12.816-1.332c2.936-8.336,12.467-10.555,12.827-10.795l73.532-28.045s2.6,24.958,9.863,40.654,17.62,50.825-5.049,67.972-38.152,10.416-51.227,11.644c-37.665,3.536,2.56,50.947,2.56,50.947-21.362,11.773-26.045-12.388-63.532,6.794q-1.587.812-3.171,1.523c1-6.435-12.3-13.089-12.3-20.15,0-31.263-20.309-18.47-19.006-51.009C-3314.5-2620.975-3284.354-2625.3-3264.67-2631.865Z" fill="#cb491b"/>
        <g id="Group_98" data-name="Group 98">
          <path id="Path_141" data-name="Path 141" d="M-3296.737-2638.725l75.066.241c12.01.039,23.38,3.784,28.122,9.237l21.855,17.639c6.991,8.04-5.171,22.411-23.033,22.477l-96.852.366c-16.67.064-31.61-6.958-31.029-14.683l1.836-24.459C-3320.3-2634.184-3310.169-2638.766-3296.737-2638.725Z" fill="#004184"/>
          <path id="Path_142" data-name="Path 142" d="M-3297.747-2645.3l75.465.24c12.074.039,23.508,3.827,28.275,9.336l21.721,20.918c7.032,8.121-4.937,19.55-22.888,19.616l-97.346.372c-16.756.064-31.78-7.031-31.205-14.834l1.826-24.719C-3321.433-2640.714-3311.249-2645.345-3297.747-2645.3Z" fill="#070b0b"/>
          <path id="Path_143" data-name="Path 143" d="M-3298.512-2650.281l75.77.242c12.123.039,23.6,3.857,28.392,9.411l21,24.353c7.058,8.186-4.136,16.43-22.156,16.5l-97.723.374c-16.818.064-31.906-7.086-31.333-14.951l1.813-24.911C-3322.29-2645.657-3312.07-2650.326-3298.512-2650.281Z" fill="#1b6ba3"/>
        </g>
        <path id="Path_144" data-name="Path 144" d="M-3355.655-2682.257c25.068-5.012,88.591-24.8,89.026-25.09l73.532-28.045s2.6,24.958,9.863,40.652,17.62,50.827-5.049,67.974-46.594,16.559-55.078,16.559c-75.714,0-121.722-26.9-135.481-51.6C-3375.348-2672.969-3368.677-2679.653-3355.655-2682.257Z" fill="#ea6222"/>
        <path id="Path_145" data-name="Path 145" d="M-3243.049-2716.342l49.952-19.05s2.6,24.958,9.863,40.652,17.62,50.827-5.049,67.974-46.594,16.559-55.078,16.559c-40.479,0-70.774-5.875-91.6-16.81C-3311.768-2621.884-3243.049-2645.624-3243.049-2716.342Z" fill="#cb491b"/>
        <path id="Path_146" data-name="Path 146" d="M-3189.38-2801.934c11.85,27.274,15.113,24.193,15.113,24.193s1.3,5.671-10.717,7.379-5.85,8.833-15.325,9.9-6.729-7.582-22-1.6-2.333-59.835-2.333-59.835S-3201.23-2829.208-3189.38-2801.934Z" fill="#ff1b1a"/>
        <path id="Path_147" data-name="Path 147" d="M-3189.38-2801.934c11.85,27.274,15.113,24.193,15.113,24.193s1.3,5.671-10.717,7.379-5.85,8.833-15.325,9.9-6.729-7.582-22-1.6-2.333-59.835-2.333-59.835S-3201.23-2829.208-3189.38-2801.934Z" fill="#cb491b"/>
        <path id="Path_148" data-name="Path 148" d="M-3240.6-2821.089c16.277-5.39,40.688-12.629,44.467,38.812s14.823,38.074,6.687,60.161-63.648,20.926-80.8,22.09-3.779-7.268-19.181-34.588-5.524-64.228-5.524-64.228C-3286.522-2813.954-3256.877-2815.7-3240.6-2821.089Z" fill="#d75521"/>
        <path id="Path_149" data-name="Path 149" d="M-3349.356-2783.182c34.342-26.1,45.851-26.954,58-23.877,14.82,3.749,14.161,14.709,3.031,28.12s-66.953,41.934-83.021,37.875S-3383.7-2757.08-3349.356-2783.182Z" fill="#ffb4b3"/>
        <path id="Path_150" data-name="Path 150" d="M-3240.6-2821.089c16.277-5.39,40.688-12.629,44.467,38.812s14.823,38.074,6.687,60.161-63.648,20.926-80.8,22.09c-5.224.354-7.608-.19-8.844-1.879.17-.008.329-.016.508-.028,15.785-1.122,5.188-8.967,12.4-24.81s18.6-13.1,15.687-27.851c-2.514-12.72-21.35,4.937-44.12-2.911C-3294.618-2757.5-3256.877-2815.7-3240.6-2821.089Z" fill="#cb491b"/>
        <path id="Path_151" data-name="Path 151" d="M-3310.875-2812.594c24.638-17.988,36.864-8.642,41.564.628,15,29.585-37.325,69.728-39.184,57.1s-6.391-9.506-14.225-15.364,1.317-8.967-8.426-16.709-5.657-12.09-5.657-12.09S-3335.513-2794.607-3310.875-2812.594Z" fill="#d75521"/>
        <path id="Path_152" data-name="Path 152" d="M-3279.6-2889.629c6.337-22.1,52.9-1.294,50.838,19.392s-9.567,25.143-30.217,36.1-26.351-7.562-26.787-21.075,4.974-12.1,4.639-18.589A49.782,49.782,0,0,1-3279.6-2889.629Z" fill="#ffb4b3"/>
        <path id="Path_153" data-name="Path 153" d="M-3293.887-2828.8c9.938-24.1,29.857-24.515,27.161-39.841s-21.454-27.162-16.054-35.33a14.692,14.692,0,0,1,13.871-6.832c12.16-14.79,44.336-13.274,57.255,9.7s-3.483,27.626,8.4,52.565,9.581,37.652-4.934,58.793-50.764,13.028-50.764,13.028c9.205-3.391,14.312-12.1,14.312-12.1-14.976,17.362-40.317,7.962-40.317,7.962C-3277.943-2791.952-3303.826-2804.7-3293.887-2828.8Z" fill="#44290a"/>
        <path id="Path_154" data-name="Path 154" d="M-3235.114-2720-3236.5-2596.8h-15.526l1.312-123.193Z" fill="#070b0b"/>
        <g id="Group_99" data-name="Group 99">
          <path id="Path_155" data-name="Path 155" d="M-3311.635-2739.2c10.969-.009,49.332.016,79.273.739,35.3.849,47.872-12.227,47.872-12.227l6.9,3.274-55.547,63.325-73.093,5.576c-7.748.2-9.525-4.61-9.718-8.043l1.209-50.247C-3314.71-2738.133-3313.337-2739.194-3311.635-2739.2Z" fill="#1b6ba3"/>
          <path id="Path_156" data-name="Path 156" d="M-3305.109-2733.7c10.968-.008,49.328.017,79.269.737,35.305.851,48.246-14.446,48.246-14.446s-3.723,37.646-4.061,51.718c-.469,19.472-44.964,17.1-44.964,17.1l-79.615.08c-1.781,0-3.229-1.152-3.2-2.548l1.212-50.247C-3308.188-2732.641-3306.815-2733.7-3305.109-2733.7Z" fill="#070b0b"/>
        </g>
        <g id="Group_101" data-name="Group 101">
          <path id="Path_157" data-name="Path 157" d="M-3259.925-2878.233a14.042,14.042,0,0,1,6.179,18.87,14.04,14.04,0,0,1-18.872,6.177,14.037,14.037,0,0,1-6.176-18.869A14.039,14.039,0,0,1-3259.925-2878.233Z" fill="#c7cdcd"/>
          <path id="Path_158" data-name="Path 158" d="M-3266.679-2874.462a9.652,9.652,0,0,1,4.25,12.977,9.655,9.655,0,0,1-12.977,4.25,9.658,9.658,0,0,1-4.248-12.979A9.652,9.652,0,0,1-3266.679-2874.462Z" fill="url(#linear-gradient-2)"/>
          <g id="Group_100" data-name="Group 100">
            <path id="Path_159" data-name="Path 159" d="M-3255.289-2922.01a2.848,2.848,0,0,1,3.862,1.156,2.862,2.862,0,0,1-1.147,3.873c-1.1.6-26.739,15.023-17.736,50.147a2.859,2.859,0,0,1-2.06,3.478,2.811,2.811,0,0,1-.711.091,2.86,2.86,0,0,1-2.766-2.149C-3285.986-2904.971-3255.6-2921.846-3255.289-2922.01Z" fill="#004184"/>
          </g>
        </g>
      </g>
      <g id="Group_157" data-name="Group 157">
        <g id="Group_122" data-name="Group 122">
          <g id="Group_103" data-name="Group 103">
            <path id="Path_160" data-name="Path 160" d="M-3740.6-2670.264a5.719,5.719,0,0,1,4.792,6.511c-.123.8-12.115,81.53-10.622,231.788a5.717,5.717,0,0,1-5.66,5.772h-.056a5.716,5.716,0,0,1-5.715-5.66c-1.5-151.3,10.627-232.816,10.75-233.619A5.755,5.755,0,0,1-3740.6-2670.264Z" fill="#00d3f1"/>
          </g>
          <g id="Group_104" data-name="Group 104">
            <path id="Path_161" data-name="Path 161" d="M-3870.735-2685.815a5.717,5.717,0,0,1,4.792,6.511c-.123.8-12.115,81.4-10.622,231.789a5.717,5.717,0,0,1-5.66,5.771h-.056a5.718,5.718,0,0,1-5.716-5.66c-1.5-151.3,10.628-232.815,10.751-233.619A5.728,5.728,0,0,1-3870.735-2685.815Z" fill="#00d3f1"/>
          </g>
          <g id="Group_109" data-name="Group 109">
            <g id="Group_106" data-name="Group 106">
              <g id="Group_105" data-name="Group 105">
                <path id="Path_162" data-name="Path 162" d="M-3891.929-2730.313c-.316-2.325-15.06-1.306-14.6-3.3,1.63-7.156,12.249-18.334,30.658-18.537,0,0,150.384-2.066,151.149-2.035,22.316.921,36.262,21.219,33.873,43.426-3.813,35.439-12.266,92.7-13.059,96.11-3.095,13.276-8.239,20.7-17.624,18.47-7.435-1.767-128.931-10.717-174.082-14a15.311,15.311,0,0,1-13.99-17.772Z" fill="#2c7db9"/>
              </g>
            </g>
            <g id="Group_108" data-name="Group 108">
              <g id="Group_107" data-name="Group 107">
                <path id="Path_163" data-name="Path 163" d="M-3907.268-2725.652c-1.309-10.34,5.775-18.649,16.07-18.565l147.1.818c17.524.133,43.222,10.449,37.554,34.732l-15,112.484c-101.974-5.788-160.055-9.79-185.837-11.68a15.3,15.3,0,0,1-14.035-17.376Z" fill="#00214b"/>
              </g>
            </g>
          </g>
          <g id="Group_118" data-name="Group 118">
            <g id="Group_113" data-name="Group 113">
              <g id="Group_112" data-name="Group 112">
                <g id="Group_110" data-name="Group 110">
                  <path id="Path_164" data-name="Path 164" d="M-4060.987-2446.486l163.526-15.324c10.564,1.685,21.889,6.3,22.886,13.055l11.11,273.613-8.551-3.98-17.828-271.235c-.586-3.971-4.427-5.3-10.636-6.293l-158.38,16.123c-6.213-.988-13.4,11.177-14.6,14.845l-56.172,280.129-7.452-3.676,51.489-285.114C-4083.554-2440.586-4073.175-2445.986-4060.987-2446.486Z" fill="#00d3f1"/>
                </g>
                <g id="Group_111" data-name="Group 111">
                  <path id="Path_165" data-name="Path 165" d="M-4048.224-2444.457l159.069-18.587c10.564,1.686,19.947,8.554,20.918,15.308l15.539,268.391-11.135,4.142-13.3-273.13c-.572-3.969-6.3-8.155-12.5-9.146l-159.022,18.574c-6.576.583-14.611,5.1-16.1,8.749l-53.647,281.609-11.23,2.994,56.188-287.051C-4070.967-2438.674-4062.692-2443.215-4048.224-2444.457Z" fill="#1b6ba3"/>
                </g>
              </g>
            </g>
            <g id="Group_117" data-name="Group 117">
              <g id="Group_116" data-name="Group 116">
                <g id="Group_114" data-name="Group 114">
                  <path id="Path_166" data-name="Path 166" d="M-3938.456-2418.619l163.2-14.141c10.535,1.169,24.046,8,25.422,14.691l19.749,286.828-7.91-1.466-27.021-286.219c-.812-3.938-6.729-7.848-12.925-8.534l-158.064,14.685c-6.193-.686-12.576,11.806-13.55,15.526l-25.4,308.733-7.43-3.031,20.343-313.759C-3960.392-2411.639-3950.46-2417.533-3938.456-2418.619Z" fill="#00d3f1"/>
                </g>
                <g id="Group_115" data-name="Group 115">
                  <path id="Path_167" data-name="Path 167" d="M-3925.735-2417.215l160.657-14.417c10.539,1.172,20.212,7.577,21.565,14.275l23.829,284.1-10.773,1.97-21.881-286.239c-.8-3.932-6.7-7.839-12.885-8.523l-160.613,14.4c-6.455.905-14.127,5.8-15.386,9.517l-22.824,310.092-10.909,3.528,25.012-315.643C-3947.856-2410.338-3939.949-2415.272-3925.735-2417.215Z" fill="#1b6ba3"/>
                </g>
              </g>
            </g>
          </g>
          <g id="Group_120" data-name="Group 120">
            <g id="Group_119" data-name="Group 119">
              <path id="Path_168" data-name="Path 168" d="M-4090.732-2445.04l201.594-17a10.577,10.577,0,0,1,4.432.29l160.261,31.852c4.66,1.943,8.582,16.045-2.384,16.935L-3946.22-2393.8a10.476,10.476,0,0,1-4.374-.3l-142.976-32.234C-4102.119-2428.811-4101.72-2444.122-4090.732-2445.04Z" fill="#2c7db9"/>
            </g>
          </g>
          <g id="Group_121" data-name="Group 121">
            <path id="Path_169" data-name="Path 169" d="M-4089.479-2445.986l188.985-21.674a10.612,10.612,0,0,1,4.437.29l169.186,36.731c9.98,1.881,1.918,6.464-9.056,7.354l-211.465,18.143a10.453,10.453,0,0,1-4.377-.295l-143.01-32.285C-4099.529-2439.425-4100.467-2445.068-4089.479-2445.986Z" fill="#00214b"/>
          </g>
        </g>
        <g id="Group_155" data-name="Group 155">
          <g id="Group_128" data-name="Group 128">
            <g id="Group_124" data-name="Group 124">
              <g id="Group_123" data-name="Group 123">
                <path id="Path_170" data-name="Path 170" d="M-4242.947-2600.183a7.708,7.708,0,0,1,7.047.877c1.789,1.206.583,3.541-.84,5.33a22.952,22.952,0,0,1-2.3,2.482,26.437,26.437,0,0,1,4.125-.656c3.651-.329,6.609.109,9.6-.511a13.366,13.366,0,0,0,4.309-1.68c5.838-3.5,2.919-8.945-11.976-8.945a7.075,7.075,0,0,1-4.27-1.314l-1.459-1.46c-3.542-4.672-1.681-13.324,1.568-9.854,4.382,4.635,4.711,3.831,16.974,2.774,12.305-1.061,11.574,3.43,25.3,10.658,8.251,4.345,57.353,2.593,103.643.876,21.392-.8,42.2-1.607,58.081-1.825,7.117-.109,13.212-.073,17.959.145,8.141.366,12.922,5.222,15.113,12.012a35.549,35.549,0,0,1,1.423,13.689,51.8,51.8,0,0,1-3.43,15.222c-.329.84-.658,1.644-1.021,2.448-.438.948-.913,1.9-1.423,2.774-.04.072-.04.145-.112.181-3.394,6.062-7.957,10.187-13,10.187-5.551,0-15.481-1.17-27.744-3-3.907-.583-8.032-1.242-12.341-1.934-5.146-.8-10.586-1.716-16.134-2.665-3.285-.547-6.609-1.094-9.966-1.68-42.385-7.265-88.965-15.88-94.223-13.8-14.711,5.768-31.029,18.545-43.223,16.318-3.357-.622-3.393-5.66-7.156-8.652-10.075-8.032-2.006-13.363-10.8-16.72-8.764-3.358-17.854-.913-12.012-12.339C-4248.459-2596.641-4245.573-2599.2-4242.947-2600.183Z" fill="#ffb4b3"/>
              </g>
            </g>
            <g id="Group_126" data-name="Group 126">
              <g id="Group_125" data-name="Group 125">
                <path id="Path_171" data-name="Path 171" d="M-4043.53-2611.591s-7.306-8.119,9.963-14.516,13.21-122.626,61.143-135.737c27.231-7.449,76.1,16.586,47.749,91.867-27.886,74.04-71.748,129.36-92.325,134.643-3.642.933-71.868-3.96-71.868-3.96s15.707-29.067-3.954-65.44Z" fill="#cb491b"/>
              </g>
            </g>
            <g id="Group_127" data-name="Group 127">
              <path id="Path_172" data-name="Path 172" d="M-4033.567-2626.107c17.27-6.4,13.21-122.626,61.143-135.737,14.446-3.952,34.978.96,46.845,17.68-12.545-7.092-27.306-8.9-38.648-6.313-53.909,12.294-47.258,128.874-66.652,134.981s-11,14.376-11,14.376l-46.862,5.06a87.957,87.957,0,0,0-4.085-8.674l49.292-6.857S-4050.836-2619.71-4033.567-2626.107Z" fill="#d75521"/>
            </g>
          </g>
          <g id="Group_131" data-name="Group 131">
            <g id="Group_129" data-name="Group 129">
              <path id="Path_173" data-name="Path 173" d="M-4104.349-2190.941c19.232-8.591,35.542-29.168,42.176-46.365s-22.855-69.848-22.855-69.848l47.4-23.273s33.686,79.917,40.6,84.662,19.689,17.541,14.713,30.434-30.214,18.387-36.759,18.63-9.307,2.1-25.293,15.656-63.111,15.414-67.495,14.792S-4123.581-2182.353-4104.349-2190.941Z" fill="#00214b"/>
            </g>
            <g id="Group_130" data-name="Group 130">
              <path id="Path_174" data-name="Path 174" d="M-3997.031-2245.771c6.921,4.742,19.692,17.552,14.705,30.446-3.533,9.193-17.4,14.607-27.4,17.08,4.39-2.671,7.979-6.009,9.545-10.069,4.959-12.883-7.815-25.693-14.736-30.438-3.893-2.674-8-10.756-18.1-33.407-29.6,4.075-41.718-24.905-41.718-24.905l37.091-33.368S-4003.95-2250.515-3997.031-2245.771Z" fill="#070b0b"/>
            </g>
            <path id="Path_175" data-name="Path 175" d="M-3982.423-2228.172c1.663,4.784,1.314,4.619,1.456,5.875,3.054,26.617-31.7,22.525-46.8,29.132-15.721,13.781-32.687,23.887-52.779,25.329-11.071.944-29.265,5.365-34.14-.281,47.819-4.709,62.49-15.548,86.467-36.611C-4011.669-2210.555-3991.734-2212.718-3982.423-2228.172Z" fill="#00d3f1"/>
          </g>
          <g id="Group_132" data-name="Group 132">
            <path id="Path_176" data-name="Path 176" d="M-4122.61-2500.506c50.228,28.118,90.478,178.206,102.445,208.764-22.969,22.357-57.235,19.932-57.235,19.932-21.454-50.467-100.522-143.775-112.283-201.719C-4193.922-2494.416-4138.381-2509.334-4122.61-2500.506Z" fill="#070b0b"/>
          </g>
          <g id="Group_133" data-name="Group 133">
            <path id="Path_177" data-name="Path 177" d="M-4138.241-2523.349c110.119-46.776,303.263-42.132,320.856,14.25,14.694,47.093-15.595,58.106-119.145,60.328s-146.72,13.176-197.486,13.176C-4170.549-2435.595-4236.3-2481.7-4138.241-2523.349Z" fill="#070b0b"/>
          </g>
          <g id="Group_134" data-name="Group 134">
            <path id="Path_178" data-name="Path 178" d="M-4084.7-2518.915c58.913-20.451,141.869-46.646,206.93-36.761,60.66,9.212,92.147,45.452,98.181,75.368,10.449,51.787-10.5,60.118-113.838,52.6s-145.3-4.769-197.876-4.769C-4127.84-2432.475-4186.071-2483.722-4084.7-2518.915Z" fill="#001224"/>
          </g>
          <g id="Group_137" data-name="Group 137">
            <g id="Group_135" data-name="Group 135">
              <path id="Path_179" data-name="Path 179" d="M-4220.215-2195.532c20.811,3.243,45.686-5.163,60.6-15.992s16.8-60.21,16.8-60.21l54.417-4.617s-15.16,85.393-11.934,93.135,6.994,25.425-4.192,33.544-35.355-.991-40.981-4.346-8.956-3.293-29.742-.6-61.353-21.365-64.693-24.27S-4241.027-2198.775-4220.215-2195.532Z" fill="#00214b"/>
            </g>
            <g id="Group_136" data-name="Group 136">
              <path id="Path_180" data-name="Path 180" d="M-4137.672-2268.508l49.27-7.851s-15.16,85.393-11.931,93.135,6.991,25.438-4.206,33.549c-7.962,5.8-22.544,2.8-32.279-.555,5.135.145,9.961-.707,13.483-3.263,11.166-8.122,7.407-25.816,4.175-33.558-1.811-4.362-.871-13.382,2.969-37.88C-4143.251-2237.6-4137.672-2268.508-4137.672-2268.508Z" fill="#070b0b"/>
            </g>
            <path id="Path_181" data-name="Path 181" d="M-4149.173-2165.525c16.773,4.017,34.1,12.769,50.191,5.677.327-.159,1.058-.6,1.368-.776-7.7,28.487-39.941,9.258-56.482,5.094-19.894,2.182-38.961,3.167-56.1-6.168-10.773-5.445-29.977-12.311-31-19.857C-4198.5-2159.519-4180.752-2160.875-4149.173-2165.525Z" fill="#00d3f1"/>
          </g>
          <g id="Group_138" data-name="Group 138">
            <path id="Path_182" data-name="Path 182" d="M-4056.773-2468.718s-4.577,20.53-6.039,59.136c-2.629,69.295-31.95,175.2-31.95,175.2-31.434,6.282-58.877-14.381-58.877-14.381,9.422-54.023,12.353-223.118,12.353-223.118Z" fill="#001224"/>
          </g>
          <g id="Group_139" data-name="Group 139">
            <path id="Path_183" data-name="Path 183" d="M-3934.367-2786.29c10.217,4.376,9.2,13.321,37.816,18.775s76.772,58.541,88.131,118.961,28.994,52.932,37.185,128.082-10.384,83.671-10.384,83.671-86.766-38.16-122.654-81.77-51.333-40.432-61.782-60.42-33.119-93.4-26.907-127.047C-3985.96-2743.941-3975.351-2803.857-3934.367-2786.29Z" fill="#d75521"/>
          </g>
          <path id="Path_184" data-name="Path 184" d="M-3984.91-2718.82s-3.441-3.369-3.453-7-3.921,5.928-3.921,5.928,1.825-25.9,11.038-34.568S-3984.91-2718.82-3984.91-2718.82Z" fill="#fff"/>
          <g id="Group_140" data-name="Group 140">
            <path id="Path_185" data-name="Path 185" d="M-3934.775-2599.058c9.258-14.152,12.849-29.058,14.99-45.516,1.926-14.8.173-29.723,1.476-44.554a.454.454,0,0,1,.012-.056c3.508-13.8-6.874-83.785,21.746-78.331s76.772,58.541,88.131,118.961,28.994,52.932,37.185,128.082-10.384,83.671-10.384,83.671a567.887,567.887,0,0,1-67.889-36.617c6.126-3.592,56.787-23.4,57.214-35.667.452-12.919-16.3-8.607-25.68-17.842-9.717-9.567,2.783-66.954-11.269-66.814-11.772.114,4.7,79.493-45.751,73.054-9.919-7.8-80.757-44.294-86.277-51.023C-3951.007-2579.276-3942.02-2587.978-3934.775-2599.058Z" fill="#cb491b"/>
          </g>
          <g id="Group_146" data-name="Group 146">
            <g id="Group_142" data-name="Group 142">
              <g id="Group_141" data-name="Group 141">
                <path id="Path_186" data-name="Path 186" d="M-4192.044-2600.183a7.71,7.71,0,0,1,7.047.877c1.786,1.206.583,3.541-.84,5.33a23.329,23.329,0,0,1-2.3,2.482,26.437,26.437,0,0,1,4.125-.656c3.651-.329,6.606.109,9.6-.511a13.327,13.327,0,0,0,4.306-1.68c5.841-3.5,2.922-8.945-11.973-8.945a7.073,7.073,0,0,1-4.27-1.314l-1.462-1.46c-3.539-4.672-1.677-13.324,1.571-9.854,4.379,4.635,4.708,3.831,16.974,2.774,12.3-1.061,11.574,3.43,25.3,10.658,8.249,4.345,57.349,2.593,103.639.876,21.392-.8,42.2-1.607,58.081-1.825,7.12-.109,13.215-.073,17.962.145,8.141.366,12.922,5.222,15.113,12.012a35.554,35.554,0,0,1,1.423,13.689,51.893,51.893,0,0,1-3.43,15.222c-.329.84-.658,1.644-1.024,2.448-.438.948-.913,1.9-1.423,2.774-.037.072-.037.145-.109.181-3.394,6.062-7.96,10.187-13,10.187-5.549,0-15.479-1.17-27.744-3-3.9-.583-8.033-1.242-12.339-1.934-5.146-.8-10.586-1.716-16.134-2.665-3.288-.547-6.609-1.094-9.969-1.68-42.383-7.265-88.962-15.88-94.221-13.8-14.71,5.768-31.029,18.545-43.222,16.318-3.357-.622-3.4-5.66-7.156-8.652-10.075-8.032-2.006-13.363-10.806-16.72-8.761-3.358-17.85-.913-12.009-12.339C-4197.556-2596.641-4194.673-2599.2-4192.044-2600.183Z" fill="#ffb4b3"/>
              </g>
            </g>
            <g id="Group_145" data-name="Group 145">
              <g id="Group_143" data-name="Group 143">
                <path id="Path_187" data-name="Path 187" d="M-3992.627-2611.591s-7.307-8.119,9.964-14.516,13.206-122.626,61.139-135.737c27.231-7.449,76.1,16.586,47.749,91.867-27.883,74.04-71.747,129.36-92.325,134.643-3.639.933-71.865-3.96-71.865-3.96s15.707-29.067-3.957-65.44Z" fill="#ea6222"/>
              </g>
              <g id="Group_144" data-name="Group 144">
                <path id="Path_188" data-name="Path 188" d="M-3968.355-2570.1c0-35.182,11.878,2.883,25.835-10.253,18.959-16.877,85.29-122.333,67.719-163.99,10.6,14.783,14.392,38.88,1.026,74.363-27.883,74.04-71.747,129.36-92.325,134.643-3.639.933-71.865-3.96-71.865-3.96s21.886-1.945,30.672-11.928C-3999.716-2559.832-3968.355-2546.329-3968.355-2570.1Z" fill="#d75521"/>
              </g>
            </g>
          </g>
          <path id="Path_189" data-name="Path 189" d="M-3936.787-2794.787c34.526,17.8-10.957,85.6-10.957,85.6-15.715-3.859-16.692-10.87-21.92-14.35-3.039-2.024-9.583,7.476-15.257,4.741C-3984.921-2718.8-3945.481-2799.267-3936.787-2794.787Z" fill="#fff"/>
          <g id="Group_147" data-name="Group 147">
            <path id="Path_190" data-name="Path 190" d="M-3976.73-2806.357c2.983,9.243,24.437,15.733,35.62,18.528a7.978,7.978,0,0,1,5.931,9.17c-6.554,35.129-49.731,59.839-49.731,59.839,12.98-62.586-28.414-55.067-28.414-55.067S-3980.794-2818.942-3976.73-2806.357Z" fill="#ffb4b3"/>
          </g>
          <g id="Group_148" data-name="Group 148">
            <path id="Path_191" data-name="Path 191" d="M-3963.016-2799.637c0,24.078-40.741,25.448-40.741,25.448S-3963.016-2812.86-3963.016-2799.637Z" fill="#ef8985"/>
          </g>
          <g id="Group_149" data-name="Group 149">
            <path id="Path_192" data-name="Path 192" d="M-4038.085-2832.124c3.165-11.535,12.978-1.463,15.551-25.152s25.433-28.46,25.433-28.46c63.97-22.948,73.32,42.388,64.877,67.488s-40.141,19.978-40.141,19.978c-3.14,6.513-8.674,19.407-37.775,25.656s-30.769-11.576-27.384-19.736S-4041.253-2820.591-4038.085-2832.124Z" fill="#ffb4b3"/>
          </g>
          <g id="Group_151" data-name="Group 151">
            <g id="Group_150" data-name="Group 150">
              <path id="Path_193" data-name="Path 193" d="M-4040.614-2789.646l12.509,3.6a17.559,17.559,0,0,0,11.711-.719l34.247-14.592a1,1,0,0,1,1.311.527,1,1,0,0,1-.53,1.312l-34.244,14.592a19.531,19.531,0,0,1-7.658,1.559,19.526,19.526,0,0,1-5.389-.756l-12.509-3.6a1,1,0,0,1-.684-1.238A1,1,0,0,1-4040.614-2789.646Z" fill="#070b0b"/>
            </g>
            <path id="Path_194" data-name="Path 194" d="M-4042.578-2795.822a5.425,5.425,0,0,1,3.712,6.712,5.424,5.424,0,0,1-6.712,3.712,5.423,5.423,0,0,1-3.712-6.712A5.425,5.425,0,0,1-4042.578-2795.822Z" fill="#070b0b"/>
          </g>
          <g id="Group_152" data-name="Group 152">
            <path id="Path_195" data-name="Path 195" d="M-3935.911-2799.454c2.038,7.884-1.858,24.755-23.7,18.738s-14.178-23.474-7.946-31.39-.974-21.154-13.111-9.187-14.044,3.415-9.771-6.741-6.165-15.474-6.165-15.474C-3925.25-2864.4-3937.948-2807.337-3935.911-2799.454Z" fill="#3f2508"/>
          </g>
          <g id="Group_153" data-name="Group 153">
            <path id="Path_196" data-name="Path 196" d="M-4011.167-2897.615c20.552-12.053,24.956,8.205,50.426,3.739s16.008,10.984,38.235,24.633,13.346,23.527,13.346,23.527-80.38-12.154-94.432-14.942S-4031.716-2885.563-4011.167-2897.615Z" fill="#54350f"/>
          </g>
          <g id="Group_154" data-name="Group 154">
            <path id="Path_197" data-name="Path 197" d="M-3980.609-2863.082c27.657-5.286,85.275,4.12,71.262,33.376s-21.049,14.081-21.442,30.557-29.91-9.633-26.706-28.789-12.744-11.549-36.67-15.121-30.666-27.408-27.292-40.12C-4021.457-2883.179-4008.27-2857.8-3980.609-2863.082Z" fill="#44290a"/>
          </g>
        </g>
        <path id="Path_198" data-name="Path 198" d="M-3971.651-2836.985a22.48,22.48,0,0,1,22.481,22.481,22.479,22.479,0,0,1-22.481,22.479,22.479,22.479,0,0,1-22.478-22.479A22.48,22.48,0,0,1-3971.651-2836.985Z" fill="#c7cdcd"/>
        <path id="Path_199" data-name="Path 199" d="M-3964.735-2826.713a15.461,15.461,0,0,1,15.462,15.46,15.462,15.462,0,0,1-15.462,15.462,15.464,15.464,0,0,1-15.462-15.462A15.463,15.463,0,0,1-3964.735-2826.713Z" fill="url(#linear-gradient-3)"/>
        <g id="Group_156" data-name="Group 156">
          <path id="Path_200" data-name="Path 200" d="M-3975.092-2901.319c.477.26,47.389,26.61,17.371,92.916a4.287,4.287,0,0,1-3.908,2.52,4.277,4.277,0,0,1-1.764-.382,4.287,4.287,0,0,1-2.137-5.674c26.63-58.824-12-80.935-13.656-81.847a4.288,4.288,0,0,1-1.716-5.8A4.288,4.288,0,0,1-3975.092-2901.319Z" fill="#004184"/>
        </g>
      </g>
      <g id="Group_220" data-name="Group 220">
        <g id="Group_176" data-name="Group 176">
          <g id="Group_158" data-name="Group 158">
            <path id="Path_201" data-name="Path 201" d="M-3364.039-2526.7a8.576,8.576,0,0,1,7.187,9.766c-.187,1.236-18.755,126.234-16.444,358.88a8.574,8.574,0,0,1-8.487,8.659h-.09a8.572,8.572,0,0,1-8.57-8.487c-2.328-234.216,16.449-360.386,16.639-361.634A8.575,8.575,0,0,1-3364.039-2526.7Z" fill="#00d3f1"/>
          </g>
          <g id="Group_159" data-name="Group 159">
            <path id="Path_202" data-name="Path 202" d="M-3565.5-2550.77a8.575,8.575,0,0,1,7.187,9.766c-.187,1.236-18.755,126.234-16.444,358.879a8.574,8.574,0,0,1-8.487,8.66h-.089a8.572,8.572,0,0,1-8.571-8.487c-2.328-234.216,16.449-360.386,16.639-361.634A8.57,8.57,0,0,1-3565.5-2550.77Z" fill="#00d3f1"/>
          </g>
          <g id="Group_163" data-name="Group 163">
            <g id="Group_161" data-name="Group 161">
              <g id="Group_160" data-name="Group 160">
                <path id="Path_203" data-name="Path 203" d="M-3598.269-2619.931c-.486-3.6-23.315-2.026-22.612-5.116,2.526-11.076,18.967-28.383,47.464-28.7,0,0,232.813-3.2,234-3.151,34.549,1.424,56.142,32.849,52.441,67.23-5.9,54.863-18.989,143.512-20.22,148.79-4.789,20.552-12.751,32.045-27.281,28.593-11.512-2.735-199.6-16.589-269.5-21.671a23.7,23.7,0,0,1-21.658-27.516Z" fill="#001224"/>
              </g>
            </g>
            <g id="Group_162" data-name="Group 162">
              <path id="Path_204" data-name="Path 204" d="M-3622.017-2612.716c-2.026-16.011,8.939-28.869,24.881-28.744l227.733,1.27c27.13.2,66.914,16.173,58.137,53.77l-23.215,174.137c-157.872-8.962-247.786-15.158-287.7-18.083a23.693,23.693,0,0,1-21.73-26.9Z" fill="#002c5a"/>
            </g>
          </g>
          <g id="Group_172" data-name="Group 172">
            <g id="Group_167" data-name="Group 167">
              <g id="Group_166" data-name="Group 166">
                <g id="Group_164" data-name="Group 164">
                  <path id="Path_205" data-name="Path 205" d="M-3859.99-2180.531l253.158-23.725c16.352,2.609,33.887,9.759,35.428,20.208l17.2,423.587-13.24-6.16-27.6-419.9c-.91-6.148-6.852-8.211-16.464-9.743l-245.19,24.959c-9.62-1.527-20.745,17.306-22.606,22.983l-86.959,433.675-11.534-5.69,79.707-441.393C-3894.929-2171.4-3878.859-2179.761-3859.99-2180.531Z" fill="#00d3f1"/>
                </g>
                <g id="Group_165" data-name="Group 165">
                  <path id="Path_206" data-name="Path 206" d="M-3840.233-2177.394l246.256-28.774c16.354,2.609,30.878,13.245,32.385,23.7l24.058,415.5-17.237,6.414-20.591-422.839c-.885-6.139-9.748-12.626-19.349-14.155L-3840.9-2168.8c-10.178.9-22.62,7.89-24.928,13.544l-83.054,435.964-17.385,4.638,86.987-444.389C-3875.444-2168.441-3862.631-2175.469-3840.233-2177.394Z" fill="#1b6ba3"/>
                </g>
              </g>
            </g>
            <g id="Group_171" data-name="Group 171">
              <g id="Group_170" data-name="Group 170">
                <g id="Group_168" data-name="Group 168">
                  <path id="Path_207" data-name="Path 207" d="M-3670.3-2137.392l252.645-21.892c16.313,1.811,37.23,12.38,39.36,22.746l30.571,444.04-12.246-2.266-41.83-443.1c-1.256-6.1-10.418-12.149-20.008-13.215l-244.705,22.735c-9.586-1.058-19.469,18.28-20.976,24.04l-39.318,477.953-11.5-4.691,31.5-485.737C-3704.259-2126.583-3688.884-2135.709-3670.3-2137.392Z" fill="#00d3f1"/>
                </g>
                <g id="Group_169" data-name="Group 169">
                  <path id="Path_208" data-name="Path 208" d="M-3650.607-2135.218l248.718-22.319c16.313,1.811,31.291,11.73,33.387,22.1l36.89,439.824-16.678,3.048-33.873-443.129c-1.234-6.089-10.371-12.137-19.949-13.2l-248.646,22.29c-10,1.4-21.875,8.973-23.823,14.731l-35.332,480.062-16.891,5.459,38.718-488.65C-3684.848-2124.574-3672.61-2132.213-3650.607-2135.218Z" fill="#1b6ba3"/>
                </g>
              </g>
            </g>
          </g>
          <g id="Group_174" data-name="Group 174">
            <g id="Group_173" data-name="Group 173">
              <path id="Path_209" data-name="Path 209" d="M-3906.043-2178.3l312.091-26.312c3.148-.262,5.523-.106,6.866.449l248.1,49.315c7.214,3,13.284,24.836-3.693,26.212l-339.645,29.656c-3.1.251-5.445.092-6.768-.461l-221.347-49.9C-3923.67-2153.169-3923.05-2176.875-3906.043-2178.3Z" fill="#2c7db9"/>
            </g>
          </g>
          <g id="Group_175" data-name="Group 175">
            <path id="Path_210" data-name="Path 210" d="M-3904.1-2179.761l292.574-33.552c3.148-.265,5.526-.109,6.868.45L-3342.736-2156c15.447,2.908,2.966,10.005-14.027,11.384l-327.374,28.09c-3.1.251-5.448.092-6.773-.461l-221.4-49.981C-3919.659-2169.6-3921.113-2178.338-3904.1-2179.761Z" fill="#00214b"/>
          </g>
        </g>
        <g id="Group_178" data-name="Group 178">
          <g id="Group_177" data-name="Group 177">
            <path id="Path_211" data-name="Path 211" d="M-3901.549-2315.54c71.759-25.958,224.75-40.281,273.024-27.133s118,78.63,92.09,145.143c-10.571,27.149-41.444,64.8-128.249,43.992s-260.2-10.262-298.538-31.774C-4045.45-2231.454-3991.706-2282.929-3901.549-2315.54Z" fill="#070b0b"/>
          </g>
        </g>
        <g id="Group_180" data-name="Group 180">
          <g id="Group_179" data-name="Group 179">
            <path id="Path_212" data-name="Path 212" d="M-3864.69-2264.88c40.331,54.579,109.668,363.965,109.668,363.965-36.011,27.551-86.166,19.96-86.166,19.96-75.05-171.126-160.177-340.586-160.177-340.586S-3885.993-2293.707-3864.69-2264.88Z" fill="#070b0b"/>
          </g>
        </g>
        <g id="Group_182" data-name="Group 182">
          <g id="Group_181" data-name="Group 181">
            <path id="Path_213" data-name="Path 213" d="M-3918.035-1791.872c29.734-1.96,56.3-15.858,73.542-35.411s-19.681-102.272-19.681-102.272c38.8.109,106.506-36.3,106.506-36.3,15.925,87.2,4.058,146.5,8.917,153.943,6.483,9.93,17.51,32.929,4.577,47.595s-49.114,9.554-57.914,6.665-13.374-1.781-41.241,8.35-91.284-10.538-96.793-13.513S-3947.766-1789.919-3918.035-1791.872Z" fill="#004184"/>
          </g>
        </g>
        <g id="Group_184" data-name="Group 184">
          <g id="Group_183" data-name="Group 183">
            <path id="Path_214" data-name="Path 214" d="M-3842.81-1762.242c29.882-12.2,34.769-13.616,44.281-11.32,9.09,2.23,45.321,4.689,60.408-8.989.187,6.486-1.418,12.91-6.078,18.241-12.914,14.658-49.081,9.565-57.889,6.654-8.791-2.872-13.4-1.77-41.246,8.355s-91.276-10.518-96.794-13.516c-1.27-.689-2.383-2.542-2.922-5C-3926.737-1763.258-3869.4-1751.335-3842.81-1762.242Z" fill="#001224"/>
          </g>
        </g>
        <g id="Group_186" data-name="Group 186">
          <g id="Group_185" data-name="Group 185">
            <path id="Path_215" data-name="Path 215" d="M-3838.241-2206.286s1.086,53.6-10.655,106.97c-21.077,95.8-94.154,225.6-94.154,225.6-45.338.846-72.7-27.813-72.7-27.813,26.7-72.829,41.593-347.17,41.593-347.17Z" fill="#001224"/>
          </g>
        </g>
        <g id="Group_188" data-name="Group 188">
          <g id="Group_187" data-name="Group 187">
            <path id="Path_216" data-name="Path 216" d="M-3899.654-2307.07c75.9-30.25,321.356-31.785,374.43-21.584s98.759,64.9,75.1,132.859c-9.659,27.739-39.8,68.642-154.73,62.014-109.824-6.33-267.313-37.378-311.6-53.54C-4001.761-2218.456-3995.027-2269.064-3899.654-2307.07Z" fill="#001224"/>
          </g>
        </g>
        <g id="Group_193" data-name="Group 193">
          <g id="Group_190" data-name="Group 190">
            <g id="Group_189" data-name="Group 189">
              <path id="Path_217" data-name="Path 217" d="M-4142.9-1851.544c27.764,10.823,64.676,6.792,88.58-3.615s47.411-120.195,47.411-120.195c67,13.207,95.156,46.047,95.156,46.047s-66.435,121.875-64.339,133.552-3.061,35.015-20.993,42.821-48.528-12.152-55.276-18.495-11.364-7.276-40.9-9.9-78.232-48.212-81.96-53.247S-4170.663-1862.367-4142.9-1851.544Z" fill="#004184"/>
            </g>
          </g>
          <g id="Group_192" data-name="Group 192">
            <g id="Group_191" data-name="Group 191">
              <path id="Path_218" data-name="Path 218" d="M-4087.313-1792.844c32.237,1.616,37.264,2.4,44.91,8.509,7.29,5.872,39.065,23.441,58.528,17.444-2.579,5.953-6.754,11.1-13.231,13.948-17.909,7.809-48.517-12.126-55.26-18.489-6.751-6.324-11.384-7.282-40.9-9.905s-78.229-48.19-81.957-53.242c-.857-1.163-1.086-3.315-.534-5.774C-4162.907-1829.31-4116.017-1794.223-4087.313-1792.844Z" fill="#001224"/>
            </g>
          </g>
        </g>
        <g id="Group_195" data-name="Group 195">
          <g id="Group_194" data-name="Group 194">
            <path id="Path_219" data-name="Path 219" d="M-3372.52-2507.935c11.724,22.053,50.294,128.757,12.224,143.3s-88.893-43.227-110.366-88.423S-3403.789-2566.736-3372.52-2507.935Z" fill="#ecb89e"/>
          </g>
        </g>
        <g id="Group_197" data-name="Group 197">
          <g id="Group_196" data-name="Group 196">
            <path id="Path_220" data-name="Path 220" d="M-3376.154-2499.4c-10.477,3.3-19.425,13.19-18.7,24.535.418,6.533,1.85,13.078,2.04,19.53.2,6.659.028,13.112,1.926,19.584,3.468,11.814,11.272,22.456,18.623,32.106a151.56,151.56,0,0,0,26.14,26.877,26.876,26.876,0,0,1-14.175,12.134c-38.074,14.541-64.434-36.535-85.9-81.731C-3463.721-2483.244-3408.81-2520.9-3376.154-2499.4Z" fill="#ef8985"/>
          </g>
        </g>
        <g id="Group_202" data-name="Group 202">
          <g id="Group_199" data-name="Group 199">
            <g id="Group_198" data-name="Group 198">
              <path id="Path_221" data-name="Path 221" d="M-3859.535-2280.2c-4.41-26.237-18.451-74.171-12.844-102.426s12.95-37.772,19.363-54.095c9.835-25.04,9.835-42.514,43.571-103.98s74.939,14.462,74.939,14.462,1.872,75.9-50.828,141.534c5.353,51.082-19.6,91.494-18.163,126.659,0,0,28,54.288,29.553,66.568s-19.609,37.323-32.082,38.5c-4.839.458-12.827-6.573-12.6-14.817,0,0-13.148,8.847-21.2-10.717,0,0-11.733,5.939-18.239-7.624,0,0-16.617-9.358-16.555-22.637S-3855.126-2253.959-3859.535-2280.2Z" fill="#ecb89e"/>
            </g>
          </g>
          <g id="Group_201" data-name="Group 201">
            <g id="Group_200" data-name="Group 200">
              <path id="Path_222" data-name="Path 222" d="M-3859.535-2280.2c-4.41-26.237-18.451-74.171-12.844-102.426s12.95-37.772,19.363-54.095c9.835-25.04,9.835-42.514,43.571-103.98s74.939,14.462,74.939,14.462,1.177,48.863-25.565,102.079a51.89,51.89,0,0,0-23.167-14.6c-25.7-7.621-50.914,10.24-58.316,34.329-6.313,20.549-3.773,37.037-3.644,62.183.178,35.9.315,63.981-3.969,70.718-6.486,10.2-4.558,36.957-1.318,48.392,3.255,11.487,8.49,11.079,18.92,16.968,11.722,6.623,24.387,12.467,37.459,15.749a47.237,47.237,0,0,0,20.22.681c-.407,12.751-20.228,35.64-32.14,36.767-4.839.458-12.827-6.573-12.6-14.817,0,0-13.148,8.847-21.2-10.717,0,0-11.733,5.939-18.239-7.624,0,0-16.617-9.358-16.555-22.637S-3855.126-2253.959-3859.535-2280.2Z" fill="#dfa88f"/>
            </g>
          </g>
        </g>
        <g id="Group_205" data-name="Group 205">
          <g id="Group_204" data-name="Group 204">
            <g id="Group_203" data-name="Group 203">
              <path id="Path_223" data-name="Path 223" d="M-3735.246-2473.139c.463-1.222.748-1.911.748-1.911Z" fill="#ff1b1a"/>
              <path id="Path_224" data-name="Path 224" d="M-3743.982-2651.189c44.356-2.729,80.177-66.358,135.386-48.882,55.212,17.415,29.319-9.174,114.892,30.131,52.659,24.149,69.262,54.106,80.989,74.834,15.445,27.343,51.671,109.609,51.671,109.609-4.7,28.855-31.233,49.405-52.89,61.656a193.556,193.556,0,0,1-29.433,13.584c14.339,38.433,13.991,53.878,12.249,71.352-1.1,11.668-2.9,24.325-1.334,45.457,6.966,93.587,1.915,50.393-62.644,35.358-64.5-15.037-142.469,7.547-164.587-32.8-22.179-40.351-82.722-59.892-82.722-59.892,10.625-15.1,17.466-9.369,8.7-25.568-8.824-16.256-2.835-26.921-8.7-52.7-3.338-14.58,4.622-37.39,7.159-44.091l.748-1.911s-.285.689-.748,1.911l-13.207,33.8c-51.262-10.162-103.513-33.558-103.513-33.558S-3788.976-2648.459-3743.982-2651.189Z" fill="#ea6222"/>
              <path id="Path_225" data-name="Path 225" d="M-3698.705-2352.132c36.865,7.662-8.643-16.937-32.385-22.307.633-6.048,83.21-16.854,76.062-20.909-28.7-16.291-33.828-45.38-26.131-49.53,6.285-3.388,59-3.129,77.062-5,47.526-4.932,75.231-11.225,45.985-63.6-19.307-34.576,14.055-63.651,13.377-71.781-.363-4.346,23.352-97.391,51.034-84.678,52.656,24.149,69.259,54.106,80.986,74.834,15.445,27.343,51.671,109.609,51.671,109.609-4.7,28.855-31.233,49.407-52.89,61.656a193.556,193.556,0,0,1-29.433,13.584c14.339,38.433,13.991,53.878,12.249,71.352-1.1,11.668-2.9,24.325-1.334,45.457,6.966,93.587,1.915,50.393-62.644,35.358-64.5-15.037-142.469,7.547-164.587-32.8-22.179-40.351-82.722-59.892-82.722-59.892C-3735.52-2360.568-3706.578-2353.767-3698.705-2352.132Z" fill="#d75521"/>
            </g>
          </g>
        </g>
        <path id="Path_226" data-name="Path 226" d="M-3609.949-2709.967c17.814-15.738,46.566,6.3,51.157,14.934,29.569,55.583-36.639,102.537-36.639,102.537-14.518-7.153-7.416-11.577-18.174-21.858-6.255-5.978-24.144-.517-38.8-8C-3652.4-2622.356-3627.763-2694.23-3609.949-2709.967Z" fill="#fff"/>
        <path id="Path_227" data-name="Path 227" d="M-3660.718-2711.452c5.568-4.533,21.554-14.912,27.121,6.6s-18.8,82.5-18.8,82.5-17.24-17.208-27.309-5.8c-5.78,6.542-7.416,9.7-12.7,12.844C-3692.409-2615.317-3699.355-2680-3660.718-2711.452Z" fill="#fff"/>
        <g id="Group_207" data-name="Group 207">
          <g id="Group_206" data-name="Group 206">
            <path id="Path_228" data-name="Path 228" d="M-3595.574-2734.656c.815,4.047-1,19.506,16.52,36.851,17.66,17.488-37.722,78.762-73.347,75.449,0,0,1.481-46.37-23.957-56.228C-3714.128-2693.217-3595.574-2734.656-3595.574-2734.656Z" fill="#ecb89e"/>
          </g>
        </g>
        <g id="Group_209" data-name="Group 209">
          <g id="Group_208" data-name="Group 208">
            <path id="Path_229" data-name="Path 229" d="M-3595.574-2734.656c.815,4.047.014,18.543,16.52,36.851,5.185,5.75,3.3,16.09-2.8,27.329-5.1-3.417-15.83-13.042-21.87-14.641-15.014-3.977-45.642,19.812-65.638,11.6a15.042,15.042,0,0,0-6.991-5.063C-3714.128-2693.217-3595.574-2734.656-3595.574-2734.656Z" fill="#dfa88f"/>
          </g>
        </g>
        <g id="Group_211" data-name="Group 211">
          <g id="Group_210" data-name="Group 210">
            <path id="Path_230" data-name="Path 230" d="M-3720.5-2791.46c.461-17.8,5.454-39.958,5.454-39.958s63.958-1.036,88.3-.634,46.343,43.6,46.036,73.772c-.262,25.932-31.7,32.714-31.7,32.714-9.271,19.57-35.19,45.28-71.056,50.161s-32.341-24.043-36.468-36.962-7.937-40.552-6.707-51.406S-3720.965-2773.664-3720.5-2791.46Z" fill="#ecb89e"/>
          </g>
        </g>
        <g id="Group_213" data-name="Group 213">
          <g id="Group_212" data-name="Group 212">
            <path id="Path_231" data-name="Path 231" d="M-3626.748-2832.052c24.345.4,46.343,43.6,46.036,73.772-.265,25.93-31.7,32.714-31.7,32.714-9.271,19.57-35.19,45.28-71.056,50.161-7.094.968-12.6.572-16.974-.723,87.885-9.042,90.221-149.964-3.762-149.964a85.245,85.245,0,0,0-12.132.941c.74-3.845,1.284-6.267,1.284-6.267S-3651.093-2832.454-3626.748-2832.052Z" fill="#dfa88f"/>
          </g>
        </g>
        <g id="Group_215" data-name="Group 215">
          <g id="Group_214" data-name="Group 214">
            <path id="Path_232" data-name="Path 232" d="M-3683.785-2700.392h19.921a26.964,26.964,0,0,0,16.98-6.037l44.188-35.955a1.43,1.43,0,0,1,2.01.207,1.428,1.428,0,0,1-.207,2.009l-44.188,35.955a29.83,29.83,0,0,1-18.783,6.679h-19.921a1.428,1.428,0,0,1-1.429-1.429A1.428,1.428,0,0,1-3683.785-2700.392Z" fill="#070b0b"/>
          </g>
          <circle id="Ellipse_1" data-name="Ellipse 1" cx="8.3" cy="8.3" r="8.3" transform="translate(-3698.803 -2693.57) rotate(-80.852)" fill="#070b0b"/>
        </g>
        <g id="Group_216" data-name="Group 216">
          <path id="Path_233" data-name="Path 233" d="M-3657.978-2880.045c34.526,10.237,62.382-14.11,87.093,23.581s22.7,47.691,9.84,74.006-3.751,67.129-38.377,52.237c0,0,15.872-14.007,16.67-35.062s-19.372-9.625-20.628-6.048-18.381,18.8-21.822-37.194c-1.241-20.239-15.8-29.915-41.863-16.668-22.921,11.646-47.936-3.4-47.936-3.4s-3.4,19.193-5.124,31.483c0,0-3.176-23.05-6.841-38.129S-3728.4-2900.927-3657.978-2880.045Z" fill="#070b0b"/>
        </g>
        <path id="Path_234" data-name="Path 234" d="M-3413.934-2423.841a193.556,193.556,0,0,1-29.433,13.584c14.339,38.433,13.991,53.878,12.249,71.352-48.243-79.072-63.4-174.576-63.4-174.576C-3466.009-2463.493-3434.832-2437.136-3413.934-2423.841Z" fill="#cb491b"/>
        <g id="Group_218" data-name="Group 218">
          <g id="Group_217" data-name="Group 217">
            <path id="Path_235" data-name="Path 235" d="M-3751.785-2353.025c6.162-5.489,17.457-26.117,21.956-33.194s26.028-13.927,33.77-23.338,35.112-11.4,108.872-15.8,118.1-10.323,162.206-22.533c71.832-19.883,109.944,78.747,55.6,85.487-124.529,15.445-174.271-24.685-210.806-5.71s-51.071,13.338-66.588,27.485-50.635,31.863-49.438,21.749,20.974-19.464,27.323-30.577.19-10.29.19-10.29-28.077,10.109-41.386,29.793-28.375,13.84-25.5,9.028S-3730.9-2334-3730.9-2334c-3.859,11.777-28.1,8.155-21.609,2.679a20.232,20.232,0,0,0,7.058-12.715C-3749.086-2341.791-3757.947-2347.535-3751.785-2353.025Z" fill="#ecb89e"/>
            <path id="Path_236" data-name="Path 236" d="M-3751.785-2353.025c6.162-5.489,17.457-26.119,21.956-33.194,2.551-4.011,10.572-7.951,18.456-12.325,18.618,27.884,49.393,37.758,81.639,29.252.137.044.237.075.377.117.056-.025.109-.051.165-.073,1.613.4,3.231.787,4.87,1.1,11.718,2.6,2.757,3.422,15.274,1.9,13.592-1.655,25.969-7.178,39.131-10.571,18.445-4.756,61.081-6.7,78.477-5.158,19.408,1.722,45.868,8.858,68.65,10.407,26.589,1.809,53.217-.1,77.442-12.123.337-.168.628-.366.962-.539-2.244,11.27-10.147,19.991-25,21.833-124.529,15.445-174.271-24.685-210.806-5.71s-51.071,13.338-66.588,27.485-50.635,31.863-49.438,21.749,20.974-19.464,27.323-30.577.19-10.29.19-10.29-28.077,10.109-41.386,29.793-28.375,13.84-25.5,9.028S-3730.9-2334-3730.9-2334c-3.859,11.775-28.1,8.155-21.609,2.679a20.232,20.232,0,0,0,7.058-12.715C-3749.086-2341.791-3757.947-2347.535-3751.785-2353.025Z" fill="#dfa88f"/>
          </g>
        </g>
        <path id="Path_237" data-name="Path 237" d="M-3613.764-2799.44a35.661,35.661,0,0,1,47.93,15.693,35.662,35.662,0,0,1-15.693,47.93,35.662,35.662,0,0,1-47.931-15.693A35.662,35.662,0,0,1-3613.764-2799.44Z" fill="#c7cdcd"/>
        <path id="Path_238" data-name="Path 238" d="M-3596.614-2789.865a24.528,24.528,0,0,1,32.965,10.795,24.523,24.523,0,0,1-10.8,32.963,24.523,24.523,0,0,1-32.963-10.792A24.527,24.527,0,0,1-3596.614-2789.865Z" fill="url(#linear-gradient-4)"/>
        <g id="Group_219" data-name="Group 219">
          <path id="Path_239" data-name="Path 239" d="M-3658.687-2890.18c1.145-.021,28.121-.454,51.434,22.265,21.64,21.091,32.614,54.477,32.614,99.23a5.716,5.716,0,0,1-5.716,5.716,5.717,5.717,0,0,1-5.716-5.716c0-41.418-9.748-71.989-28.977-90.864-19.7-19.334-42.9-19.233-43.359-19.2a5.8,5.8,0,0,1-5.845-5.566A5.717,5.717,0,0,1-3658.687-2890.18Z" fill="#004184"/>
        </g>
      </g>
      <g id="Group_221" data-name="Group 221">
        <path id="Path_240" data-name="Path 240" d="M-4152.478-2731.075l117.173,49.326-1.085,147.465,563.343,377.841H-4618.282l95.083-573Z" fill="#d9dfdf"/>
      </g>
      <g id="Group_222" data-name="Group 222">
        <path id="Path_241" data-name="Path 241" d="M-4145.969-2929.606V-2637.3l-20.059,63.157L-4181-2887.818l26.3-44.189A4.7,4.7,0,0,1-4145.969-2929.606Z" fill="#1b6ba3"/>
        <path id="Path_242" data-name="Path 242" d="M-4165.427-2872.252v293.813A15.566,15.566,0,0,1-4181-2562.874v-324.944A15.567,15.567,0,0,1-4165.427-2872.252Z" fill="#070b0b"/>
      </g>
      <g id="Group_232" data-name="Group 232">
        <g id="Group_223" data-name="Group 223">
          <path id="Path_243" data-name="Path 243" d="M-3883.883-2261.95l-56.334,18.783-236.486-8.6,44.456-16.444Z" fill="#001224"/>
        </g>
        <g id="Group_224" data-name="Group 224">
          <path id="Path_244" data-name="Path 244" d="M-3941.791-2239.809l-152.07-9.06-2.738-78.842h154.484Z" fill="#001224"/>
        </g>
        <g id="Group_225" data-name="Group 225">
          <path id="Path_245" data-name="Path 245" d="M-3971.093-2239.757l-167.651-9.221-2.992-78.734h170.289Z" fill="#070b0b"/>
        </g>
        <g id="Group_226" data-name="Group 226">
          <path id="Path_246" data-name="Path 246" d="M-3940.217-2226.637l-237.208-10.731-.734-14.711,237.848,8.875Z" fill="#001224"/>
        </g>
        <g id="Group_227" data-name="Group 227">
          <path id="Path_247" data-name="Path 247" d="M-3883.3-2248.69l-56.825,22.053-.09-16.53,56.334-18.783Z" fill="#004184"/>
        </g>
        <g id="Group_228" data-name="Group 228">
          <path id="Path_248" data-name="Path 248" d="M-3799.18-2580.844c1.6,65.027,6.386,259.731,6.417,272.889.036,15.733-12.543,27.15-12.543,27.15l-11.269-320.569C-3802.727-2601.455-3799.478-2592.965-3799.18-2580.844Z" fill="#1b6ba3"/>
        </g>
        <g id="Group_229" data-name="Group 229">
          <path id="Path_249" data-name="Path 249" d="M-4289.948-2602.694l469.4,1.183c6.682.02,11.457,3.974,11.585,9.6l6.788,299.328-489.17-22.3-10.616-276.961C-4302.267-2597.361-4296.348-2602.711-4289.948-2602.694Z" fill="#001224"/>
        </g>
        <g id="Group_230" data-name="Group 230">
          <path id="Path_250" data-name="Path 250" d="M-4279.418-2586.686l444.42,1.5c6.319.02,10.837,3.765,10.966,9.087l6.714,283.247-463.9-21.836-9.6-261.729C-4291.1-2581.645-4285.486-2586.705-4279.418-2586.686Z" fill="#070b0b"/>
        </g>
        <g id="Group_231" data-name="Group 231">
          <path id="Path_251" data-name="Path 251" d="M-4291.344-2314.879l489.17,22.3-2.5,10.466c-.661,2.4-3.491,4.29-6.321,4.234l-479.583-22.469a1.8,1.8,0,0,1-1.942-2.163Z" fill="#001224"/>
        </g>
      </g>
      <rect id="Rectangle_12" data-name="Rectangle 12" width="1928.044" height="1279.965" transform="translate(-2271.686 -2203.548) rotate(-180)" fill="none"/>
    </g>
  </g>
</svg>
