<svg xmlns="http://www.w3.org/2000/svg" width="201.423" height="89.594" viewBox="0 0 201.423 89.594">
  <g id="Group_12" data-name="Group 12" transform="translate(4105.712 3421.624)">
    <g id="Group_10" data-name="Group 10">
      <g id="Group_9" data-name="Group 9">
        <path id="Path_5" data-name="Path 5" d="M-3933.477-3376.29h-43.6a23.112,23.112,0,0,1,21.8-15.423A23.112,23.112,0,0,1-3933.477-3376.29Z" fill="#fff"/>
        <path id="Path_6" data-name="Path 6" d="M-3918.093-3368.635" fill="#fff" stroke="#fff" stroke-miterlimit="10" stroke-width="1"/>
        <path id="Path_7" data-name="Path 7" d="M-3955.275-3406.969v2.383a36.013,36.013,0,0,0-35.988,35.952,35.813,35.813,0,0,0,9.213,24c-.707.436-1.367.9-1.987,1.358a38.172,38.172,0,0,1-9.611-25.358A38.394,38.394,0,0,1-3955.275-3406.969Z" fill="#fff"/>
        <path id="Path_8" data-name="Path 8" d="M-3908.654-3411.633a4.187,4.187,0,0,1,3.068,1.265,4.179,4.179,0,0,1,1.267,3.064,4.1,4.1,0,0,1-1.267,3,4.187,4.187,0,0,1-3.068,1.265,4.1,4.1,0,0,1-3-1.265,4.1,4.1,0,0,1-1.267-3,4.172,4.172,0,0,1,1.267-3.064A4.1,4.1,0,0,1-3908.654-3411.633Z" fill="#fff"/>
        <path id="Path_9" data-name="Path 9" d="M-3908.624-3421.624a4.186,4.186,0,0,1,3.068,1.266,4.174,4.174,0,0,1,1.267,3.064,4.1,4.1,0,0,1-1.267,3,4.182,4.182,0,0,1-3.068,1.266,4.1,4.1,0,0,1-3-1.266,4.091,4.091,0,0,1-1.267-3,4.17,4.17,0,0,1,1.267-3.064A4.106,4.106,0,0,1-3908.624-3421.624Z" fill="#fff"/>
        <line id="Line_1" data-name="Line 1" y1="0.008" transform="translate(-3964.187 -3335.47)" fill="#fff" stroke="#fff" stroke-miterlimit="10" stroke-width="3"/>
        <line id="Line_2" data-name="Line 2" x1="0.008" transform="translate(-3973.392 -3345.405)" fill="#fff" stroke="#fff" stroke-miterlimit="10" stroke-width="3"/>
        <path id="Path_10" data-name="Path 10" d="M-3933.318-3376.29h-43.906a23.287,23.287,0,0,1,21.949-15.581A23.289,23.289,0,0,1-3933.318-3376.29Z" fill="#fff"/>
        <path id="Path_11" data-name="Path 11" d="M-3922.427-3337.646v5.528h-26.321a9.3,9.3,0,0,0,1.844-2.264,35.169,35.169,0,0,0,15.971-8.7A32.744,32.744,0,0,1-3922.427-3337.646Z" fill="#fff"/>
        <path id="Path_12" data-name="Path 12" d="M-3929.363-3373.905a23.053,23.053,0,0,0-.613-2.379,26.474,26.474,0,0,0-25.3-18.769,26.48,26.48,0,0,0-25.292,18.769,20.988,20.988,0,0,0-.6,2.379,26.175,26.175,0,0,0-.534,5.274c0,.673.027,1.338.07,2.011h3.187c-.052-.664-.079-1.338-.079-2.011a22.744,22.744,0,0,1,.622-5.274h-2.837a21.294,21.294,0,0,1,.622-2.379,26.019,26.019,0,0,1,24.846-18.323,26.019,26.019,0,0,1,24.846,18.323,23.39,23.39,0,0,1,.622,2.379h-2.828a22.329,22.329,0,0,1,.622,5.274c0,.673-.027,1.338-.088,2.011h2.749a23.6,23.6,0,0,1-.3,2.388,25.892,25.892,0,0,1-19.715,20.877,7.15,7.15,0,0,0-5.91-3.079,7.214,7.214,0,0,0-7.2,6.769c0,.149-.009.289-.009.429a7.191,7.191,0,0,0,1.576,4.5,7.191,7.191,0,0,0,5.629,2.711,7.217,7.217,0,0,0,6.68-4.5,32.863,32.863,0,0,0,12.948-5.789,32.592,32.592,0,0,0,4.684-4.234l-.674-.3-.762.77a32.1,32.1,0,0,1-15.907,8.763l-.771.166-.332.709a6.53,6.53,0,0,1-5.866,3.708,6.472,6.472,0,0,1-4.517-1.837,6.424,6.424,0,0,1-1.988-4.661,2.3,2.3,0,0,1,.009-.254,6.511,6.511,0,0,1,6.5-6.244,6.42,6.42,0,0,1,5.025,2.387l.648.8.981-.253a26.513,26.513,0,0,0,17.7-15.043l.035-.088a32.5,32.5,0,0,0,1.69-6.3q.2-1.208.288-2.388c.053-.673.071-1.338.071-2.011A26.752,26.752,0,0,0-3929.363-3373.905Z" fill="#fff"/>
        <path id="Path_13" data-name="Path 13" d="M-3955.277-3335.96" fill="#fff" stroke="#fff" stroke-miterlimit="10" stroke-width="1"/>
        <path id="Path_14" data-name="Path 14" d="M-3919.222-3371.979" fill="#fff" stroke="#fff" stroke-miterlimit="10" stroke-width="1"/>
        <path id="Path_15" data-name="Path 15" d="M-3977.952-3364.232c0,.026.009.052.009.087.044.193.079.385.131.56a18.509,18.509,0,0,0,.473,1.811c.088.271.175.542.263.8.052.14.1.28.157.411.088.245.193.49.28.735.053.114.1.219.149.332.088.219.184.446.289.656.061.114.1.219.158.324a.508.508,0,0,0,.07.122c.114.236.236.473.367.709a.306.306,0,0,0,.053.1c.14.271.306.542.473.813.236.4.49.8.761,1.189.167.245.342.49.508.718.018.017.026.035.044.052.166.227.341.446.525.674.079.1.167.2.245.3.438.525.9,1.023,1.384,1.513a19.994,19.994,0,0,0,1.558,1.417l.166.148c.237.175.464.359.7.534.1.079.2.157.3.227.21.158.447.315.666.464a.809.809,0,0,0,.1.07q.42.288.867.551a.008.008,0,0,0,.008.009c.561.349,1.147.664,1.751.962-1.409.245-2.784.542-4.1.883a43.23,43.23,0,0,0-7.774,2.711c-.771.341-1.5.717-2.189,1.1-5.323,2.983-8.562,6.909-8.571,11.212h25.818a9.788,9.788,0,0,1-1.839-2.615,9.694,9.694,0,0,1-.849-2.632,9.872,9.872,0,0,1-.14-1.688,9.793,9.793,0,0,1,1.453-5.169,9.757,9.757,0,0,1,1.988-2.326v-.009a9.923,9.923,0,0,1,6.478-2.405,9.849,9.849,0,0,1,6.435,2.379,22.521,22.521,0,0,0,4.246-1.714c.026-.009.044-.009.061-.035.359-.184.71-.385,1.069-.6a21.019,21.019,0,0,0,2.1-1.417.7.7,0,0,0,.1-.078c.271-.2.525-.412.779-.63.193-.166.385-.324.569-.5a.564.564,0,0,0,.149-.14c.236-.21.464-.428.7-.656.044-.043.1-.087.14-.131.228-.227.447-.472.674-.717a14.78,14.78,0,0,0,.972-1.154,20.371,20.371,0,0,0,1.69-2.4,21.209,21.209,0,0,0,1.077-1.959.034.034,0,0,1,.008-.026,21.6,21.6,0,0,0,1.533-4.216c.1-.367.175-.743.253-1.119a2.43,2.43,0,0,0,.062-.245Zm47.7,20.247a35.08,35.08,0,0,1-16.021,9.305c-.027.053-.053.1-.079.149v.009a10.033,10.033,0,0,1-1.707,2.405.363.363,0,0,0-.079.087h27.91C-3920.232-3336.709-3924.057-3340.942-3930.247-3343.985Z" fill="#fff"/>
        <path id="Path_16" data-name="Path 16" d="M-3985.317-3364.235a30.257,30.257,0,0,0,8.5,16.94c-.54.23-1.065.461-1.582.7-.246.111-.485.222-.723.341h-.008a32.642,32.642,0,0,1-8.594-17.98Z" fill="#fff"/>
        <path id="Path_17" data-name="Path 17" d="M-3972.009-3348.971c-.9.262-1.781.54-2.631.842a28.2,28.2,0,0,1-8.531-16.106h2.425A25.749,25.749,0,0,0-3972.009-3348.971Z" fill="#fff"/>
        <path id="Path_18" data-name="Path 18" d="M-3904.989-3399.5H-3905a4.329,4.329,0,0,0-3.625-1.95,4.311,4.311,0,0,0-3.615,1.95,4.307,4.307,0,0,0-.71,2.362c0,.026.009.052.009.079v21.357a1.658,1.658,0,0,1-.508,1.216,1.832,1.832,0,0,1-1.357.577h-8.054a24.048,24.048,0,0,0-.481-2.379,32.887,32.887,0,0,0-31.938-25.162,32.885,32.885,0,0,0-31.937,25.162,32.332,32.332,0,0,0-.911,7.653v1.985h.911v.026h57.86a23.6,23.6,0,0,1-.3,2.388,25.892,25.892,0,0,1-19.715,20.877,7.15,7.15,0,0,0-5.91-3.079,7.214,7.214,0,0,0-7.2,6.769c0,.149-.009.289-.009.429a7.191,7.191,0,0,0,1.576,4.5,7.191,7.191,0,0,0,5.629,2.711,7.217,7.217,0,0,0,6.68-4.5,32.863,32.863,0,0,0,12.948-5.789,32.592,32.592,0,0,0,4.684-4.234,32.553,32.553,0,0,0,8.23-17.675c.105-.787.192-1.583.236-2.388h10.488a7.457,7.457,0,0,0,5.866-2.711,8.119,8.119,0,0,0,1.856-5.151v-22.652A4.307,4.307,0,0,0-3904.989-3399.5Zm-75.756,25.591a21.294,21.294,0,0,1,.622-2.379,26.019,26.019,0,0,1,24.846-18.323,26.019,26.019,0,0,1,24.846,18.323,23.39,23.39,0,0,1,.622,2.379Z" fill="#fff"/>
        <path id="Path_19" data-name="Path 19" d="M-4000.735-3373.905c-.1-.8-.241-1.6-.4-2.379-2.9-14.422-13.775-25.162-26.716-25.162s-23.83,10.74-26.715,25.162c-.161.779-.3,1.574-.4,2.379a37.7,37.7,0,0,0-.359,5.274v1.915h54.888Zm-48.429,0c.147-.813.315-1.609.52-2.379,2.747-10.609,11.022-18.323,20.791-18.323s18.045,7.714,20.784,18.323c.205.77.373,1.566.512,2.379Z" fill="#fff"/>
      </g>
    </g>
    <rect id="Rectangle_5" data-name="Rectangle 5" width="54.908" height="7.198" transform="translate(-3990.99 -3421.624) rotate(90)" fill="#fff"/>
    <rect id="Rectangle_6" data-name="Rectangle 6" width="54.908" height="7.198" transform="translate(-4070.676 -3421.624) rotate(90)" fill="#fff"/>
    <path id="Rectangle_7" data-name="Rectangle 7" d="M.614,0H6.3a.614.614,0,0,1,.614.614V15.55a0,0,0,0,1,0,0H0a0,0,0,0,1,0,0V.614A.614.614,0,0,1,.614,0Z" transform="translate(-4065.228 -3385.19)" fill="#fff"/>
    <path id="Path_20" data-name="Path 20" d="M-4000.914-3373.871v7.121a.034.034,0,0,1-.034.034h-99.1a5.665,5.665,0,0,1-5.668-5.662v-12.812a3.579,3.579,0,0,1,3.145-3.622,3.459,3.459,0,0,1,3.771,3.441v9.59a1.877,1.877,0,0,0,1.879,1.876h95.969A.034.034,0,0,1-4000.914-3373.871Z" fill="#fff"/>
    <g id="Group_11" data-name="Group 11">
      <path id="Path_21" data-name="Path 21" d="M-4086.92-3362.511v30.481h-7.061v-19.914c-2.7,2.968-4.138,4.537-7.334,7.751v-8.988l8.828-9.33Z" fill="#fff"/>
      <path id="Path_22" data-name="Path 22" d="M-4063.824-3337.682h-12.715v-6.849l12.715-18.03h6.084v18.419h3.153v6.46h-3.153v5.6h-6.084Zm0-6.46v-9.432l-6.718,9.432Z" fill="#fff"/>
      <path id="Path_23" data-name="Path 23" d="M-4048.9-3347.648q0-8.546,2.579-11.959t7.857-3.415a10.024,10.024,0,0,1,4.164.747,7.612,7.612,0,0,1,2.656,1.942,10.364,10.364,0,0,1,1.619,2.514,14.809,14.809,0,0,1,.952,3.077,34.037,34.037,0,0,1,.7,6.992q0,8.157-2.313,11.939t-7.969,3.781a9.659,9.659,0,0,1-5.124-1.205,9.081,9.081,0,0,1-3.2-3.537,14.969,14.969,0,0,1-1.414-4.528A36.757,36.757,0,0,1-4048.9-3347.648Zm6.923.02q0,5.725.848,7.82t2.459,2.1a2.378,2.378,0,0,0,1.842-.889,5.968,5.968,0,0,0,1.148-2.811,34.957,34.957,0,0,0,.369-5.99q0-5.969-.848-8.024a2.757,2.757,0,0,0-2.545-2.054q-1.731,0-2.5,2.095T-4041.978-3347.628Z" fill="#fff"/>
      <path id="Path_24" data-name="Path 24" d="M-4009.988-3337.631H-4022.7v-6.849l12.715-18.031h6.083v18.42h3.153v6.46h-3.153v5.6h-6.083Zm0-6.46v-9.432l-6.719,9.432Z" fill="#fff"/>
    </g>
  </g>
</svg>
