<svg xmlns="http://www.w3.org/2000/svg" width="127.555" height="128.15" viewBox="0 0 127.555 128.15">
  <g id="Group_290" data-name="Group 290" transform="translate(3441.747 -22.071)">
    <g id="Group_271" data-name="Group 271">
      <circle id="Ellipse_2" data-name="Ellipse 2" cx="14.351" cy="14.351" r="14.351" transform="translate(-3391.56 110.102)" fill="#ea6222"/>
      <circle id="Ellipse_3" data-name="Ellipse 3" cx="20.819" cy="20.819" r="20.819" transform="translate(-3399.856 22.071)" fill="#ea6222"/>
      <path id="Path_290" data-name="Path 290" d="M-3379.037,65.072a30.057,30.057,0,0,1-4.085-.282l-.563,5.581h10.266l-.563-5.885A22.222,22.222,0,0,1-3379.037,65.072Z" fill="#ea6222"/>
      <path id="Path_291" data-name="Path 291" d="M-3350.6,75.525a30.058,30.058,0,0,0,4.085-.281l.563,5.58h-10.266l.563-5.885A22.22,22.22,0,0,0-3350.6,75.525Z" fill="#0c2545"/>
      <path id="Path_292" data-name="Path 292" d="M-3354.9,42.89a23.352,23.352,0,0,0-1.968-9.4,20.806,20.806,0,0,1,6.264-.961,20.819,20.819,0,0,1,20.819,20.819A20.819,20.819,0,0,1-3350.6,74.162a20.808,20.808,0,0,1-17.81-10.033A23.444,23.444,0,0,0-3354.9,42.89Z" fill="#0c2545"/>
      <path id="Path_293" data-name="Path 293" d="M-3419.961,127.5a6.921,6.921,0,0,0-6.829-5.953,6.923,6.923,0,0,0-6.683,5.212,5.673,5.673,0,0,0-2.521-.61,5.769,5.769,0,0,0-5.753,5.752,5.734,5.734,0,0,0,.117,1.151h21.669Z" fill="#163b63"/>
      <path id="Path_294" data-name="Path 294" d="M-3335.978,112.453a6.923,6.923,0,0,1,6.829-5.953,6.925,6.925,0,0,1,6.684,5.213,5.657,5.657,0,0,1,2.521-.611,5.77,5.77,0,0,1,5.752,5.753,5.724,5.724,0,0,1-.117,1.15h-21.669Z" fill="#163b63"/>
      <path id="Path_295" data-name="Path 295" d="M-3406.779,75.525a30.069,30.069,0,0,1-4.085-.281l-.563,5.58h10.266l-.563-5.885A22.212,22.212,0,0,1-3406.779,75.525Z" fill="#0c2545"/>
      <path id="Path_296" data-name="Path 296" d="M-3402.483,42.89a23.348,23.348,0,0,1,1.968-9.4,20.809,20.809,0,0,0-6.264-.961A20.819,20.819,0,0,0-3427.6,53.343a20.819,20.819,0,0,0,20.818,20.819,20.806,20.806,0,0,0,17.81-10.033A23.444,23.444,0,0,1-3402.483,42.89Z" fill="#0c2545"/>
    </g>
    <g id="Group_289" data-name="Group 289">
      <g id="Group_272" data-name="Group 272">
        <path id="Path_297" data-name="Path 297" d="M-3351.1,99.238a1.608,1.608,0,0,1-1.608-1.608v-16.4a1.608,1.608,0,0,1,1.608-1.608,1.608,1.608,0,0,1,1.608,1.608v16.4A1.608,1.608,0,0,1-3351.1,99.238Z" fill="#0c2545"/>
      </g>
      <g id="Group_273" data-name="Group 273">
        <path id="Path_298" data-name="Path 298" d="M-3350.308,69.739a16.6,16.6,0,0,1-4.19-.535,1.608,1.608,0,0,1-1.15-1.962,1.608,1.608,0,0,1,1.962-1.15,13.427,13.427,0,0,0,3.378.431,13.238,13.238,0,0,0,12.679-9.577,1.609,1.609,0,0,1,1.988-1.106,1.609,1.609,0,0,1,1.106,1.988A16.469,16.469,0,0,1-3350.308,69.739Z" fill="#fff"/>
      </g>
      <path id="Path_299" data-name="Path 299" d="M-3337.125,51.368a1.624,1.624,0,0,1,1.633-1.617,1.625,1.625,0,0,1,1.618,1.633A1.627,1.627,0,0,1-3335.508,53,1.625,1.625,0,0,1-3337.125,51.368Z" fill="#fff"/>
      <g id="Group_274" data-name="Group 274">
        <path id="Path_300" data-name="Path 300" d="M-3378.539,88.785a1.608,1.608,0,0,1-1.608-1.608v-16.4a1.608,1.608,0,0,1,1.608-1.609,1.609,1.609,0,0,1,1.609,1.609v16.4A1.608,1.608,0,0,1-3378.539,88.785Z" fill="#ea6222"/>
      </g>
      <g id="Group_275" data-name="Group 275">
        <path id="Path_301" data-name="Path 301" d="M-3393.44,141.953a1.608,1.608,0,0,1-1.161-.494,23.6,23.6,0,0,1-6.6-16.4,23.58,23.58,0,0,1,6.685-16.487,1.606,1.606,0,0,1,2.274-.036,1.608,1.608,0,0,1,.037,2.274,20.38,20.38,0,0,0-5.78,14.249,20.391,20.391,0,0,0,5.708,14.175,1.61,1.61,0,0,1-.047,2.275A1.6,1.6,0,0,1-3393.44,141.953Z" fill="#ea6222"/>
      </g>
      <g id="Group_276" data-name="Group 276">
        <path id="Path_302" data-name="Path 302" d="M-3361.876,142.285a1.6,1.6,0,0,1-1.137-.472,1.608,1.608,0,0,1,0-2.274A20.35,20.35,0,0,0-3357,125.056a20.314,20.314,0,0,0-6.317-14.784,1.608,1.608,0,0,1-.047-2.274,1.608,1.608,0,0,1,2.274-.047,23.5,23.5,0,0,1,7.307,17.105,23.545,23.545,0,0,1-6.952,16.757A1.6,1.6,0,0,1-3361.876,142.285Z" fill="#ea6222"/>
      </g>
      <g id="Group_277" data-name="Group 277">
        <path id="Path_303" data-name="Path 303" d="M-3377.193,133.51a1.608,1.608,0,0,1-1.608-1.608V116.489a1.608,1.608,0,0,1,1.608-1.608,1.608,1.608,0,0,1,1.609,1.608V131.9A1.608,1.608,0,0,1-3377.193,133.51Z" fill="#fff"/>
      </g>
      <g id="Group_278" data-name="Group 278">
        <path id="Path_304" data-name="Path 304" d="M-3369.291,125.8h-16.046a1.609,1.609,0,0,1-1.608-1.609,1.608,1.608,0,0,1,1.608-1.608h16.046a1.608,1.608,0,0,1,1.608,1.608A1.609,1.609,0,0,1-3369.291,125.8Z" fill="#fff"/>
      </g>
      <g id="Group_279" data-name="Group 279">
        <path id="Path_305" data-name="Path 305" d="M-3363.835,94.708a1.609,1.609,0,0,1-1.609-1.608V90.474l-26.653,0v2.6a1.608,1.608,0,0,1-1.608,1.608h0a1.608,1.608,0,0,1-1.608-1.608V88.864a1.608,1.608,0,0,1,1.608-1.608h0l29.87,0a1.608,1.608,0,0,1,1.608,1.608V93.1A1.608,1.608,0,0,1-3363.835,94.708Z" fill="#1d2646"/>
      </g>
      <g id="Group_280" data-name="Group 280">
        <path id="Path_306" data-name="Path 306" d="M-3368.74,43.945a9.639,9.639,0,0,1-6.041-2.028,6.454,6.454,0,0,0-4.23-1.47,6.457,6.457,0,0,0-4.231,1.47,9.646,9.646,0,0,1-6.043,2.028,9.636,9.636,0,0,1-6.04-2.028,6.454,6.454,0,0,0-4.229-1.47,1.608,1.608,0,0,1-1.609-1.608,1.608,1.608,0,0,1,1.609-1.608,9.639,9.639,0,0,1,6.04,2.027,6.448,6.448,0,0,0,4.229,1.47,6.455,6.455,0,0,0,4.232-1.47,9.643,9.643,0,0,1,6.042-2.027,9.64,9.64,0,0,1,6.041,2.027,6.449,6.449,0,0,0,4.23,1.47,6.46,6.46,0,0,0,4.234-1.47,9.647,9.647,0,0,1,6.043-2.027,1.609,1.609,0,0,1,1.609,1.608,1.609,1.609,0,0,1-1.609,1.608,6.466,6.466,0,0,0-4.234,1.47A9.643,9.643,0,0,1-3368.74,43.945Z" fill="#fff"/>
      </g>
      <g id="Group_281" data-name="Group 281">
        <path id="Path_307" data-name="Path 307" d="M-3368.74,52.251a9.639,9.639,0,0,1-6.041-2.027,6.449,6.449,0,0,0-4.23-1.47,6.452,6.452,0,0,0-4.231,1.47,9.646,9.646,0,0,1-6.043,2.027,9.636,9.636,0,0,1-6.04-2.027,6.448,6.448,0,0,0-4.229-1.47,1.608,1.608,0,0,1-1.609-1.608,1.609,1.609,0,0,1,1.609-1.609,9.639,9.639,0,0,1,6.04,2.028,6.453,6.453,0,0,0,4.229,1.47,6.46,6.46,0,0,0,4.232-1.47,9.642,9.642,0,0,1,6.042-2.028,9.64,9.64,0,0,1,6.041,2.028,6.454,6.454,0,0,0,4.23,1.47,1.608,1.608,0,0,1,1.608,1.608A1.608,1.608,0,0,1-3368.74,52.251Z" fill="#fff"/>
      </g>
      <g id="Group_282" data-name="Group 282">
        <path id="Path_308" data-name="Path 308" d="M-3406.28,99.238a1.608,1.608,0,0,1-1.608-1.608v-16.4a1.608,1.608,0,0,1,1.608-1.608,1.608,1.608,0,0,1,1.608,1.608v16.4A1.608,1.608,0,0,1-3406.28,99.238Z" fill="#0c2545"/>
      </g>
      <g id="Group_283" data-name="Group 283">
        <path id="Path_309" data-name="Path 309" d="M-3337.981,150.221h-79.847a1.608,1.608,0,0,1-1.608-1.608V97.529a1.608,1.608,0,0,1,1.608-1.608h28.465a1.608,1.608,0,0,1,1.533,1.125l1.334,4.229h16.137l1.334-4.229a1.608,1.608,0,0,1,1.533-1.125h29.511a1.609,1.609,0,0,1,1.609,1.608v51.084A1.609,1.609,0,0,1-3337.981,150.221Zm-78.239-3.216h76.631V99.138h-26.723l-1.334,4.229a1.609,1.609,0,0,1-1.534,1.125h-18.494a1.609,1.609,0,0,1-1.534-1.125l-1.334-4.229h-25.678Z" fill="#1d2646"/>
      </g>
      <g id="Group_284" data-name="Group 284">
        <path id="Path_310" data-name="Path 310" d="M-3338.624,108.11h-9.73a1.608,1.608,0,0,1-1.608-1.608V98.461a1.608,1.608,0,0,1,1.608-1.608,1.608,1.608,0,0,1,1.608,1.608v6.433h8.122a1.608,1.608,0,0,1,1.608,1.608A1.608,1.608,0,0,1-3338.624,108.11Z" fill="#1d2646"/>
      </g>
      <g id="Group_285" data-name="Group 285">
        <path id="Path_311" data-name="Path 311" d="M-3407.858,108.11h-9.729a1.608,1.608,0,0,1-1.608-1.608,1.608,1.608,0,0,1,1.608-1.608h8.121V98.461a1.608,1.608,0,0,1,1.608-1.608,1.608,1.608,0,0,1,1.608,1.608V106.5A1.608,1.608,0,0,1-3407.858,108.11Z" fill="#1d2646"/>
      </g>
      <g id="Group_286" data-name="Group 286">
        <path id="Path_312" data-name="Path 312" d="M-3407.858,149.763a1.608,1.608,0,0,1-1.608-1.609v-6.432h-8.121a1.609,1.609,0,0,1-1.608-1.609,1.608,1.608,0,0,1,1.608-1.608h9.729a1.608,1.608,0,0,1,1.608,1.608v8.041A1.608,1.608,0,0,1-3407.858,149.763Z" fill="#1d2646"/>
      </g>
      <g id="Group_287" data-name="Group 287">
        <path id="Path_313" data-name="Path 313" d="M-3348.354,149.763a1.608,1.608,0,0,1-1.608-1.609v-8.041a1.608,1.608,0,0,1,1.608-1.608h9.73a1.608,1.608,0,0,1,1.608,1.608,1.609,1.609,0,0,1-1.608,1.609h-8.122v6.432A1.608,1.608,0,0,1-3348.354,149.763Z" fill="#1d2646"/>
      </g>
      <g id="Group_288" data-name="Group 288">
        <path id="Path_314" data-name="Path 314" d="M-3407.076,69.739a16.465,16.465,0,0,1-15.772-11.911,1.609,1.609,0,0,1,1.106-1.988,1.611,1.611,0,0,1,1.988,1.106,13.236,13.236,0,0,0,12.678,9.577,13.416,13.416,0,0,0,3.378-.431,1.61,1.61,0,0,1,1.962,1.15,1.608,1.608,0,0,1-1.15,1.962A16.6,16.6,0,0,1-3407.076,69.739Z" fill="#fff"/>
      </g>
      <path id="Path_315" data-name="Path 315" d="M-3420.258,51.368a1.626,1.626,0,0,0-1.634-1.617,1.624,1.624,0,0,0-1.617,1.633A1.625,1.625,0,0,0-3421.876,53,1.626,1.626,0,0,0-3420.258,51.368Z" fill="#fff"/>
    </g>
  </g>
</svg>
