<svg xmlns="http://www.w3.org/2000/svg" width="41.821" height="41.882" viewBox="0 0 41.821 41.882">
  <g id="phone-call" transform="translate(-0.344 0)">
    <g id="Group_1043" data-name="Group 1043" transform="translate(0.344 0)">
      <path id="Path_1136" data-name="Path 1136" d="M33.414,50.928a4.119,4.119,0,0,0-2.988-1.37A4.26,4.26,0,0,0,27.4,50.919L24.61,53.7c-.23-.124-.46-.239-.681-.354-.318-.159-.619-.309-.875-.468a30.359,30.359,0,0,1-7.275-6.63,17.911,17.911,0,0,1-2.387-3.766c.725-.663,1.4-1.352,2.051-2.015.248-.248.5-.5.743-.751a4.056,4.056,0,0,0,0-6.117l-2.413-2.413c-.274-.274-.557-.557-.822-.84-.53-.548-1.087-1.114-1.662-1.644a4.184,4.184,0,0,0-2.961-1.3,4.33,4.33,0,0,0-3.005,1.3l-.018.018L2.3,31.755a6.467,6.467,0,0,0-1.918,4.11,15.5,15.5,0,0,0,1.131,6.559A38.06,38.06,0,0,0,8.275,53.7,41.6,41.6,0,0,0,22.126,64.55a21.582,21.582,0,0,0,7.779,2.3c.186.009.38.018.557.018a6.661,6.661,0,0,0,5.1-2.192c.009-.018.027-.027.035-.044a20.1,20.1,0,0,1,1.547-1.6c.38-.362.769-.743,1.149-1.14a4.41,4.41,0,0,0,1.335-3.058A4.248,4.248,0,0,0,38.267,55.8Zm3.165,9.308c-.009,0-.009.009,0,0-.345.371-.7.707-1.078,1.078a23.246,23.246,0,0,0-1.706,1.768,4.261,4.261,0,0,1-3.324,1.405c-.133,0-.274,0-.407-.009a19.172,19.172,0,0,1-6.895-2.068A39.266,39.266,0,0,1,10.122,52.192a35.887,35.887,0,0,1-6.364-10.6,12.621,12.621,0,0,1-.99-5.534,4.058,4.058,0,0,1,1.22-2.625L7,30.42a2.009,2.009,0,0,1,1.344-.628,1.891,1.891,0,0,1,1.291.619l.027.027c.539.5,1.052,1.025,1.591,1.582.274.283.557.566.84.857l2.413,2.413a1.687,1.687,0,0,1,0,2.74c-.256.256-.5.513-.76.76-.743.76-1.45,1.467-2.219,2.157-.018.018-.035.027-.044.044A1.8,1.8,0,0,0,11.024,43l.027.08a19.374,19.374,0,0,0,2.855,4.658l.009.009a32.444,32.444,0,0,0,7.85,7.142,12.069,12.069,0,0,0,1.087.592c.318.159.619.309.875.469.035.018.071.044.106.062a1.916,1.916,0,0,0,.875.221,1.89,1.89,0,0,0,1.344-.61L29.074,52.6a2,2,0,0,1,1.335-.663,1.8,1.8,0,0,1,1.273.645l.018.018,4.871,4.871A1.748,1.748,0,0,1,36.579,60.236Z" transform="translate(-0.344 -24.983)" fill="#fff"/>
      <path id="Path_1137" data-name="Path 1137" d="M245.926,88.293a11.376,11.376,0,0,1,9.264,9.264,1.186,1.186,0,0,0,1.176.99,1.58,1.58,0,0,0,.2-.018,1.2,1.2,0,0,0,.981-1.379,13.756,13.756,0,0,0-11.209-11.209,1.2,1.2,0,0,0-1.379.972A1.18,1.18,0,0,0,245.926,88.293Z" transform="translate(-223.322 -78.33)" fill="#fff"/>
      <path id="Path_1138" data-name="Path 1138" d="M268.618,18.475A22.651,22.651,0,0,0,250.161.018a1.192,1.192,0,1,0-.389,2.351,20.232,20.232,0,0,1,16.495,16.495,1.186,1.186,0,0,0,1.176.99,1.577,1.577,0,0,0,.2-.018A1.171,1.171,0,0,0,268.618,18.475Z" transform="translate(-226.815 0)" fill="#fff"/>
    </g>
  </g>
</svg>
