<svg xmlns="http://www.w3.org/2000/svg" xmlns:xlink="http://www.w3.org/1999/xlink" width="700.287" height="710.331" viewBox="0 0 700.287 710.331">
  <defs>
    <linearGradient id="linear-gradient" x1="1.314" y1="2.769" x2="0.506" y2="1.604" gradientUnits="objectBoundingBox">
      <stop offset="0" stop-color="#ea6222"/>
      <stop offset="0.247" stop-color="#a64f2c"/>
      <stop offset="0.511" stop-color="#643d37"/>
      <stop offset="0.734" stop-color="#34303e"/>
      <stop offset="0.904" stop-color="#172843"/>
      <stop offset="1" stop-color="#0c2545"/>
    </linearGradient>
    <linearGradient id="linear-gradient-2" x1="1.063" y1="1.082" x2="0.202" y2="0.23" gradientUnits="objectBoundingBox">
      <stop offset="0" stop-color="#acaeb1"/>
      <stop offset="1" stop-color="#fff"/>
    </linearGradient>
    <linearGradient id="linear-gradient-3" x1="0.206" y1="-0.404" x2="0.603" y2="0.884" xlink:href="#linear-gradient-2"/>
    <linearGradient id="linear-gradient-4" x1="0.068" y1="0.083" x2="0.855" y2="0.887" xlink:href="#linear-gradient-2"/>
    <linearGradient id="linear-gradient-5" x1="-0.001" y1="0.711" x2="0.946" y2="0.292" xlink:href="#linear-gradient-2"/>
    <linearGradient id="linear-gradient-6" x1="-1.418" y1="0.572" x2="8.739" y2="0.193" gradientUnits="objectBoundingBox">
      <stop offset="0" stop-color="#fff"/>
      <stop offset="1" stop-color="#fff"/>
    </linearGradient>
    <linearGradient id="linear-gradient-7" x1="-1.837" y1="0.568" x2="11.976" y2="0.167" xlink:href="#linear-gradient-6"/>
    <linearGradient id="linear-gradient-8" x1="-1.263" y1="0.558" x2="10.585" y2="0.17" xlink:href="#linear-gradient-6"/>
    <linearGradient id="linear-gradient-9" x1="-0.622" y1="0.551" x2="9.073" y2="0.109" xlink:href="#linear-gradient-6"/>
    <linearGradient id="linear-gradient-10" x1="-1.437" y1="0.541" x2="19.534" y2="0.1" xlink:href="#linear-gradient-6"/>
    <linearGradient id="linear-gradient-11" x1="-0.42" y1="0.531" x2="11.387" y2="0.138" xlink:href="#linear-gradient-6"/>
    <linearGradient id="linear-gradient-12" x1="-1.261" y1="0.588" x2="6.748" y2="0.188" xlink:href="#linear-gradient-6"/>
    <linearGradient id="linear-gradient-13" x1="451.756" y1="0.5" x2="452.756" y2="0.5" gradientUnits="objectBoundingBox">
      <stop offset="0" stop-color="#8a1a1b"/>
      <stop offset="1" stop-color="#ab2d2d"/>
    </linearGradient>
    <linearGradient id="linear-gradient-14" x1="464.414" y1="0.5" x2="465.414" y2="0.5" xlink:href="#linear-gradient-13"/>
    <linearGradient id="linear-gradient-15" x1="129.298" y1="0.5" x2="130.298" y2="0.5" gradientUnits="objectBoundingBox">
      <stop offset="0" stop-color="#d7bbb3"/>
      <stop offset="1" stop-color="#d2b7b0"/>
    </linearGradient>
    <linearGradient id="linear-gradient-16" x1="139.578" y1="-1.615" x2="137.293" y2="1.548" xlink:href="#linear-gradient-15"/>
    <linearGradient id="linear-gradient-17" x1="113.633" y1="-2.795" x2="111.794" y2="5.663" xlink:href="#linear-gradient-15"/>
    <linearGradient id="linear-gradient-18" x1="161.33" y1="-1.142" x2="158.68" y2="2.815" xlink:href="#linear-gradient-15"/>
    <linearGradient id="linear-gradient-19" x1="87.166" y1="124.485" x2="85.948" y2="125.78" xlink:href="#linear-gradient-15"/>
    <linearGradient id="linear-gradient-20" x1="233.933" y1="393.405" x2="236.634" y2="390.867" xlink:href="#linear-gradient-15"/>
  </defs>
  <g id="Group_398" data-name="Group 398" transform="translate(3307.785 -485.905)">
    <g id="Group_397" data-name="Group 397" transform="translate(-3307.785 515.905)">
      <path id="Path_402" data-name="Path 402" d="M-2733.774,1162.486c-17.294,8.245-32.619,12.381-44.728,15.649-142.334,38.412-280.334-23.595-309.473-37.446-43.028-20.454-126.2-59.99-171.82-139.846-69.017-120.815-12.32-264.327,89.407-340.859,18.607-14,118.251-92.725,268.309-67.4,90.813,15.329,188.017,63.776,247.666,136.811C-2529.206,882.707-2602.72,1100-2733.774,1162.486Z" transform="translate(3290.152 -510.18)" fill="url(#linear-gradient)"/>
      <g id="Group_380" data-name="Group 380" transform="translate(296.031 311.803)">
        <g id="Group_377" data-name="Group 377" transform="translate(0 138.023)">
          <path id="Path_403" data-name="Path 403" d="M-2920.533,1248.895V1110.87a33.07,33.07,0,0,1,32.708-33.087c54.422-.593,166.666-.622,258.505,7.117a24.861,24.861,0,0,1,22.735,23.9l8.584,133.441a31.6,31.6,0,0,1-30.976,32.732l-259.945,4.939A31.02,31.02,0,0,1-2920.533,1248.895Z" transform="translate(2920.533 -1077.55)" fill="url(#linear-gradient-2)"/>
          <path id="Path_404" data-name="Path 404" d="M-2881.2,1135.215c-.231,11.745.117,30.378.4,42.418a10.631,10.631,0,0,0,11.87,10.308l44.788-5.249a10.636,10.636,0,0,0,9.28-12.139l-5.5-36.674a10.636,10.636,0,0,0-10.519-9.059h-39.692A10.621,10.621,0,0,0-2881.2,1135.215Z" transform="translate(2912.716 -1086.961)" fill="#ea6222"/>
          <path id="Path_405" data-name="Path 405" d="M-2736.9,1195.442l37.361,4.03a8.423,8.423,0,0,0,9.3-8.992l-8.168-111.138c-15.661-.5-31.11-.859-46.017-1.113v108.838A8.424,8.424,0,0,0-2736.9,1195.442Z" transform="translate(2885.471 -1077.686)" fill="#fff" opacity="0.37"/>
          <path id="Path_406" data-name="Path 406" d="M-2717.325,1176.264a3.756,3.756,0,0,0,3.748,3.54q.111,0,.221-.007a3.754,3.754,0,0,0,3.533-3.969l-5.634-97c-2.526-.062-5.031-.118-7.537-.175Z" transform="translate(2881.205 -1077.771)" fill="#fff"/>
          <g id="Group_376" data-name="Group 376" transform="translate(41.319 48.95)">
            <path id="Path_407" data-name="Path 407" d="M-2856.107,1173.293a1.254,1.254,0,0,1-1.251-1.174l-1.937-30.552a1.251,1.251,0,0,1,1.172-1.329,1.224,1.224,0,0,1,1.328,1.172l1.938,30.551a1.252,1.252,0,0,1-1.173,1.328C-2856.056,1173.293-2856.083,1173.293-2856.107,1173.293Z" transform="translate(2867.023 -1138.981)" fill="#fff"/>
            <path id="Path_408" data-name="Path 408" d="M-2850.9,1173.148a1.252,1.252,0,0,1-1.252-1.211l-1.016-31.136a1.255,1.255,0,0,1,1.211-1.294,1.185,1.185,0,0,1,1.294,1.211l1.016,31.136a1.254,1.254,0,0,1-1.211,1.294Z" transform="translate(2865.803 -1138.836)" fill="#fff"/>
            <path id="Path_409" data-name="Path 409" d="M-2844.332,1173.148a1.251,1.251,0,0,1-1.25-1.193c-.245-5.119-1.463-30.679-1.463-31.2a1.253,1.253,0,0,1,1.253-1.253,1.253,1.253,0,0,1,1.253,1.24c.014.68.961,20.631,1.458,31.09a1.248,1.248,0,0,1-1.191,1.309A.505.505,0,0,1-2844.332,1173.148Zm-.207-32.389h0Z" transform="translate(2864.583 -1138.836)" fill="#fff"/>
            <path id="Path_410" data-name="Path 410" d="M-2834.063,1174.235a2.5,2.5,0,0,1-2.5-2.417c-1.059-30.167-.873-30.847-.751-31.3a2.508,2.508,0,0,1,3.075-1.759,2.507,2.507,0,0,1,1.825,2.75c-.08,1.812.48,19.365.856,30.13a2.5,2.5,0,0,1-2.415,2.592Z" transform="translate(2862.665 -1138.67)" fill="#fff"/>
            <path id="Path_411" data-name="Path 411" d="M-2826.763,1173.294a1.252,1.252,0,0,1-1.253-1.253V1141.49a1.253,1.253,0,0,1,1.253-1.253,1.252,1.252,0,0,1,1.252,1.253v30.552A1.251,1.251,0,0,1-2826.763,1173.294Z" transform="translate(2860.795 -1138.981)" fill="#fff"/>
            <path id="Path_412" data-name="Path 412" d="M-2821.653,1173.276a1.253,1.253,0,0,1-1.252-1.223c-.24-10.616-.8-27.956-1.3-30.04a1.254,1.254,0,0,1,.047-1.3,1.25,1.25,0,0,1,1.734-.36c.683.448,1.331.872,2.026,31.641a1.254,1.254,0,0,1-1.223,1.281Z" transform="translate(2860.068 -1138.963)" fill="#fff"/>
            <path id="Path_413" data-name="Path 413" d="M-2864.768,1175.764a2.508,2.508,0,0,1-2.5-2.376l-1.671-32.08a2.507,2.507,0,0,1,2.373-2.632,2.536,2.536,0,0,1,2.633,2.373l1.671,32.081a2.509,2.509,0,0,1-2.373,2.633C-2864.681,1175.764-2864.724,1175.764-2864.768,1175.764Z" transform="translate(2868.943 -1138.669)" fill="#fff"/>
          </g>
        </g>
        <g id="Group_379" data-name="Group 379" transform="translate(43.633)">
          <path id="Path_414" data-name="Path 414" d="M-2866.054,1025.548V928.617a23.225,23.225,0,0,1,22.969-23.237c38.219-.416,117.046-.437,181.542,5a17.46,17.46,0,0,1,15.966,16.781l6.029,93.714a22.19,22.19,0,0,1-21.753,22.986l-182.553,3.469A21.785,21.785,0,0,1-2866.054,1025.548Z" transform="translate(2866.054 -905.217)" fill="url(#linear-gradient-3)"/>
          <path id="Path_415" data-name="Path 415" d="M-2838.428,945.713c-.162,8.248.083,21.335.283,29.79a7.466,7.466,0,0,0,8.337,7.238l31.453-3.687a7.467,7.467,0,0,0,6.517-8.525l-3.861-25.756a7.468,7.468,0,0,0-7.386-6.361h-27.875A7.458,7.458,0,0,0-2838.428,945.713Z" transform="translate(2860.564 -911.826)" fill="#ea6222"/>
          <path id="Path_416" data-name="Path 416" d="M-2737.1,988.01l26.239,2.83a5.915,5.915,0,0,0,6.533-6.314l-5.736-78.05c-11-.348-21.847-.6-32.316-.782v76.434A5.916,5.916,0,0,0-2737.1,988.01Z" transform="translate(2841.431 -905.312)" fill="#fff" opacity="0.37"/>
          <path id="Path_417" data-name="Path 417" d="M-2723.346,974.542a2.639,2.639,0,0,0,2.633,2.487c.052,0,.1,0,.155-.006a2.636,2.636,0,0,0,2.481-2.786l-3.957-68.119c-1.773-.044-3.533-.083-5.292-.123Z" transform="translate(2838.435 -905.372)" fill="#fff"/>
          <g id="Group_378" data-name="Group 378" transform="translate(29.017 34.376)">
            <path id="Path_418" data-name="Path 418" d="M-2820.81,972.456a.879.879,0,0,1-.878-.825l-1.361-21.456a.879.879,0,0,1,.823-.933.859.859,0,0,1,.933.823l1.362,21.456a.88.88,0,0,1-.823.933C-2820.774,972.456-2820.793,972.456-2820.81,972.456Z" transform="translate(2828.475 -948.358)" fill="#fff"/>
            <path id="Path_419" data-name="Path 419" d="M-2817.152,972.354a.88.88,0,0,1-.879-.851l-.714-21.866a.882.882,0,0,1,.851-.909.833.833,0,0,1,.909.851l.713,21.866a.881.881,0,0,1-.851.909Z" transform="translate(2827.619 -948.256)" fill="#fff"/>
            <path id="Path_420" data-name="Path 420" d="M-2812.54,972.354a.878.878,0,0,1-.878-.839c-.172-3.594-1.029-21.545-1.029-21.908a.88.88,0,0,1,.881-.879.88.88,0,0,1,.88.871c.01.477.675,14.488,1.023,21.834a.878.878,0,0,1-.837.919A.354.354,0,0,1-2812.54,972.354Zm-.146-22.747h0Z" transform="translate(2826.762 -948.256)" fill="#fff"/>
            <path id="Path_421" data-name="Path 421" d="M-2805.328,973.117a1.758,1.758,0,0,1-1.756-1.7c-.744-21.186-.614-21.663-.527-21.979a1.759,1.759,0,0,1,2.159-1.235,1.76,1.76,0,0,1,1.282,1.931c-.057,1.273.336,13.6.6,21.16a1.758,1.758,0,0,1-1.7,1.82C-2805.285,973.117-2805.308,973.117-2805.328,973.117Z" transform="translate(2825.415 -948.14)" fill="#fff"/>
            <path id="Path_422" data-name="Path 422" d="M-2800.2,972.456a.879.879,0,0,1-.88-.88V950.12a.879.879,0,0,1,.88-.879.879.879,0,0,1,.879.879v21.456A.879.879,0,0,1-2800.2,972.456Z" transform="translate(2824.102 -948.359)" fill="#fff"/>
            <path id="Path_423" data-name="Path 423" d="M-2796.613,972.443a.879.879,0,0,1-.879-.859c-.169-7.456-.562-19.633-.915-21.1a.88.88,0,0,1,.033-.912.877.877,0,0,1,1.218-.252c.48.314.935.612,1.422,22.22a.881.881,0,0,1-.859.9Z" transform="translate(2823.591 -948.346)" fill="#fff"/>
            <path id="Path_424" data-name="Path 424" d="M-2826.892,974.19a1.761,1.761,0,0,1-1.756-1.668l-1.174-22.53a1.762,1.762,0,0,1,1.667-1.849,1.782,1.782,0,0,1,1.849,1.667l1.173,22.53a1.76,1.76,0,0,1-1.666,1.849C-2826.83,974.19-2826.861,974.19-2826.892,974.19Z" transform="translate(2829.824 -948.139)" fill="#fff"/>
          </g>
        </g>
      </g>
      <g id="Group_385" data-name="Group 385" transform="translate(514.382 -30)">
        <g id="Group_381" data-name="Group 381" transform="translate(0.668 46.043)">
          <path id="Path_425" data-name="Path 425" d="M-2578.614,638.4l-.6-.533-67.857-60.29,1.153-1.345,67.258,59.757,63.992-61.38,1.2,1.3Z" transform="translate(2647.07 -573.635)"/>
          <path id="Path_426" data-name="Path 426" d="M-2561.433,659.854l-1.755-.03.374-22.889-.374-63.531,1.755-.01.374,63.551Z" transform="translate(2630.369 -573.393)"/>
          <path id="Path_427" data-name="Path 427" d="M-2569.934,641.057l-33.418-62.293,1.54-.855,31.88,59.425,31.939-59.425,1.539.857Z" transform="translate(2638.366 -574.292)"/>
          <path id="Path_428" data-name="Path 428" d="M-2529.918,708.653l-42.559-27.544-42.006,26.1-.915-1.524,42.94-26.683,43.481,28.141Z" transform="translate(2640.764 -594.42)"/>
        </g>
        <g id="Group_383" data-name="Group 383" transform="translate(20.114 154.255)">
          <g id="Group_382" data-name="Group 382">
            <path id="Path_429" data-name="Path 429" d="M-2525.2,759.058a9.662,9.662,0,0,1-9.374,10.082l-78.672,1.527a9.454,9.454,0,0,1-9.541-9.557V718.584a10.159,10.159,0,0,1,6.16-9.411c.072-.033.155-.057.227-.09a9.518,9.518,0,0,1,3.482-.577c.524-.008,1.062.1,1.618.1h8.8c14.4,0,34.465.037,53.58,1.119,1.825.1,3.643.1,5.445.22.572.041,1.144-.187,1.715-.139.191.017.381-.308.572-.308h.008c2.2,0,4.366,0,6.5,1.785h.063a7.024,7.024,0,0,1,6.818,7.01Z" transform="translate(2622.789 -708.505)" fill="#17609f"/>
            <path id="Path_430" data-name="Path 430" d="M-2598.508,740.1a2.561,2.561,0,0,1-2.818,2.757l-10.866-1.251c-1.294-.137-1.833-1.259-1.833-2.584v-29.94a7.288,7.288,0,0,1,3.167-.577c.524-.008.745.1,1.3.1h8.8Z" transform="translate(2621.044 -708.505)" fill="#fff" opacity="0.37"/>
            <path id="Path_431" data-name="Path 431" d="M-2604.613,735.586a1.138,1.138,0,0,1-1.072,1.206.173.173,0,0,1-.064,0,1.049,1.049,0,0,1-1.135-.977l-1.563-27.184h2.286Z" transform="translate(2619.934 -708.531)" fill="#fff"/>
            <path id="Path_432" data-name="Path 432" d="M-2514.2,740.475a2.521,2.521,0,0,1-2.817,2.693l-11.4-1.283a2.694,2.694,0,0,1-2.369-2.616V709.88c2.631.106,3.735-.187,5.537-.066.762.049,1.615-.067,2.377-.067h.008c2.2,0,4.366,0,6.5,1.785h.063Z" transform="translate(2604.472 -708.753)" fill="#fff" opacity="0.37"/>
            <path id="Path_433" data-name="Path 433" d="M-2520.02,735.447a1.307,1.307,0,0,1-1.073,1.386c-.015.008-.039.092-.063.092a1.112,1.112,0,0,1-1.135-1.049l-1.469-26.083c.763.049,1.524-.046,2.287-.046h.008Z" transform="translate(2603.073 -708.753)" fill="#fff"/>
          </g>
        </g>
        <g id="Group_384" data-name="Group 384">
          <path id="Path_434" data-name="Path 434" d="M-2513.152,565.214l-16.9-8.892-16.509,10.97-16.4-12.414-15.851,12.414-15.261-11.837L-2611.389,567l-16.759-10.682-19.755,10.589c3.7-15.22,17.815-51.007,68.726-51.007C-2530.069,515.905-2516.725,549.186-2513.152,565.214Z" transform="translate(2647.903 -515.905)" fill="#0c2545"/>
          <path id="Path_435" data-name="Path 435" d="M-2623.238,556.323s12.235-38.878,47.621-40.418c0,0-33.192,20.786-30.862,51.1C-2611.355,562.042-2623.238,556.323-2623.238,556.323Z" transform="translate(2642.992 -515.905)" fill="#0a1c32"/>
          <path id="Path_436" data-name="Path 436" d="M-2565.454,567.293l-.375-51.388s-16.721,22.711-14.887,39.551C-2572.043,564.282-2565.454,567.293-2565.454,567.293Z" transform="translate(2634.555 -515.905)" fill="#0a1c32"/>
          <path id="Path_437" data-name="Path 437" d="M-2562.093,515.905s16,20.979,16.226,38.974l16.4,12.414S-2522.566,533.419-2562.093,515.905Z" transform="translate(2630.819 -515.905)" fill="#0a1c32"/>
          <path id="Path_438" data-name="Path 438" d="M-2560.681,516.146s43.616,14.242,48,40.225l16.9,8.892S-2502.625,516.916-2560.681,516.146Z" transform="translate(2630.538 -515.953)" fill="#0a1c32"/>
        </g>
      </g>
      <g id="Group_390" data-name="Group 390" transform="translate(374.843 337.641)">
        <g id="Group_387" data-name="Group 387" transform="translate(0 129.706)">
          <path id="Path_439" data-name="Path 439" d="M-2822.129,1260.447V1130.739a31.078,31.078,0,0,1,30.736-31.094c51.143-.557,156.623-.585,242.929,6.688a23.363,23.363,0,0,1,21.365,22.456l8.066,125.4a29.692,29.692,0,0,1-29.109,30.76l-244.282,4.642A29.152,29.152,0,0,1-2822.129,1260.447Z" transform="translate(2822.129 -1099.427)" fill="url(#linear-gradient-4)"/>
          <path id="Path_440" data-name="Path 440" d="M-2785.162,1153.617c-.217,11.037.11,28.548.379,39.863a9.99,9.99,0,0,0,11.155,9.686l42.089-4.934a9.994,9.994,0,0,0,8.72-11.407l-5.166-34.465a10,10,0,0,0-9.884-8.513h-37.3A9.982,9.982,0,0,0-2785.162,1153.617Z" transform="translate(2814.783 -1108.271)" fill="#ea6222"/>
          <path id="Path_441" data-name="Path 441" d="M-2649.565,1210.214l35.11,3.788a7.915,7.915,0,0,0,8.743-8.45l-7.676-104.442c-14.719-.466-29.236-.806-43.244-1.046v102.28A7.915,7.915,0,0,0-2649.565,1210.214Z" transform="translate(2789.179 -1099.554)" fill="#17609f" opacity="0.69"/>
          <path id="Path_442" data-name="Path 442" d="M-2631.165,1192.193a3.531,3.531,0,0,0,3.522,3.327q.1,0,.208-.007a3.527,3.527,0,0,0,3.32-3.729l-5.294-91.153c-2.374-.059-4.729-.111-7.083-.164Z" transform="translate(2785.17 -1099.634)" fill="#fff"/>
          <g id="Group_386" data-name="Group 386" transform="translate(38.829 46.001)">
            <path id="Path_443" data-name="Path 443" d="M-2761.585,1189.4a1.177,1.177,0,0,1-1.175-1.1l-1.822-28.71a1.177,1.177,0,0,1,1.1-1.249,1.15,1.15,0,0,1,1.249,1.1l1.821,28.711a1.175,1.175,0,0,1-1.1,1.248C-2761.537,1189.4-2761.562,1189.4-2761.585,1189.4Z" transform="translate(2771.844 -1157.156)" fill="#fff"/>
            <path id="Path_444" data-name="Path 444" d="M-2756.691,1189.265a1.178,1.178,0,0,1-1.177-1.138l-.954-29.26a1.178,1.178,0,0,1,1.138-1.216,1.114,1.114,0,0,1,1.216,1.138l.954,29.26a1.178,1.178,0,0,1-1.138,1.217Z" transform="translate(2770.696 -1157.02)" fill="#fff"/>
            <path id="Path_445" data-name="Path 445" d="M-2750.519,1189.265a1.176,1.176,0,0,1-1.175-1.122c-.23-4.81-1.375-28.83-1.375-29.315a1.177,1.177,0,0,1,1.177-1.177,1.177,1.177,0,0,1,1.177,1.165c.013.639.9,19.388,1.37,29.216a1.174,1.174,0,0,1-1.12,1.23A.417.417,0,0,1-2750.519,1189.265Zm-.2-30.437h0Z" transform="translate(2769.551 -1157.02)" fill="#fff"/>
            <path id="Path_446" data-name="Path 446" d="M-2740.869,1190.286a2.352,2.352,0,0,1-2.35-2.271c-1-28.35-.821-28.989-.706-29.413a2.356,2.356,0,0,1,2.89-1.653,2.356,2.356,0,0,1,1.715,2.584c-.076,1.7.45,18.2.8,28.315a2.352,2.352,0,0,1-2.27,2.435C-2740.811,1190.286-2740.842,1190.286-2740.869,1190.286Z" transform="translate(2767.748 -1156.864)" fill="#fff"/>
            <path id="Path_447" data-name="Path 447" d="M-2734.01,1189.4a1.177,1.177,0,0,1-1.177-1.177v-28.71a1.177,1.177,0,0,1,1.177-1.177,1.176,1.176,0,0,1,1.177,1.177v28.71A1.176,1.176,0,0,1-2734.01,1189.4Z" transform="translate(2765.991 -1157.157)" fill="#fff"/>
            <path id="Path_448" data-name="Path 448" d="M-2729.206,1189.385a1.177,1.177,0,0,1-1.177-1.149c-.226-9.976-.752-26.271-1.223-28.23a1.177,1.177,0,0,1,.043-1.221,1.174,1.174,0,0,1,1.63-.338c.642.421,1.251.818,1.9,29.734a1.179,1.179,0,0,1-1.149,1.2Z" transform="translate(2765.308 -1157.14)" fill="#fff"/>
            <path id="Path_449" data-name="Path 449" d="M-2769.725,1191.723a2.355,2.355,0,0,1-2.35-2.232l-1.57-30.148a2.357,2.357,0,0,1,2.23-2.474,2.384,2.384,0,0,1,2.474,2.23l1.569,30.148a2.355,2.355,0,0,1-2.229,2.474C-2769.642,1191.723-2769.684,1191.723-2769.725,1191.723Z" transform="translate(2773.648 -1156.863)" fill="#fff"/>
          </g>
        </g>
        <g id="Group_389" data-name="Group 389" transform="translate(41.003)">
          <path id="Path_450" data-name="Path 450" d="M-2770.933,1050.558v-91.09a21.825,21.825,0,0,1,21.585-21.836c35.917-.391,109.993-.411,170.6,4.7a16.408,16.408,0,0,1,15,15.771l5.665,88.066a20.853,20.853,0,0,1-20.442,21.6l-171.553,3.26A20.473,20.473,0,0,1-2770.933,1050.558Z" transform="translate(2770.933 -937.478)" fill="url(#linear-gradient-5)"/>
          <path id="Path_451" data-name="Path 451" d="M-2744.971,975.534c-.153,7.75.077,20.048.266,27.994a7.015,7.015,0,0,0,7.834,6.8l29.558-3.465a7.019,7.019,0,0,0,6.125-8.011l-3.628-24.2a7.02,7.02,0,0,0-6.941-5.978h-26.2A7.01,7.01,0,0,0-2744.971,975.534Z" transform="translate(2765.774 -943.689)" fill="#ea6222"/>
          <path id="Path_452" data-name="Path 452" d="M-2649.745,1015.282l24.657,2.66a5.559,5.559,0,0,0,6.14-5.934l-5.391-73.346c-10.336-.328-20.531-.567-30.369-.735v71.829A5.559,5.559,0,0,0-2649.745,1015.282Z" transform="translate(2747.793 -937.567)" fill="#17609f" opacity="0.69"/>
          <path id="Path_453" data-name="Path 453" d="M-2636.824,1002.625a2.479,2.479,0,0,0,2.474,2.337c.049,0,.1,0,.146,0a2.479,2.479,0,0,0,2.332-2.619l-3.718-64.015c-1.667-.041-3.321-.078-4.974-.115Z" transform="translate(2744.978 -937.624)" fill="#fff"/>
          <g id="Group_388" data-name="Group 388" transform="translate(27.269 32.306)">
            <path id="Path_454" data-name="Path 454" d="M-2728.415,1000.665a.828.828,0,0,1-.826-.775l-1.278-20.162a.825.825,0,0,1,.773-.877.808.808,0,0,1,.877.774l1.279,20.163a.826.826,0,0,1-.774.876C-2728.381,1000.665-2728.4,1000.665-2728.415,1000.665Z" transform="translate(2735.618 -978.02)" fill="url(#linear-gradient-6)"/>
            <path id="Path_455" data-name="Path 455" d="M-2724.977,1000.569a.827.827,0,0,1-.827-.8l-.67-20.548a.828.828,0,0,1,.8-.855.782.782,0,0,1,.854.8l.671,20.549a.828.828,0,0,1-.8.854Z" transform="translate(2734.813 -977.924)" fill="url(#linear-gradient-7)"/>
            <path id="Path_456" data-name="Path 456" d="M-2720.643,1000.569a.825.825,0,0,1-.825-.788c-.162-3.377-.966-20.246-.966-20.587a.827.827,0,0,1,.827-.826.827.827,0,0,1,.827.818c.01.449.634,13.615.962,20.518a.824.824,0,0,1-.786.863A.316.316,0,0,1-2720.643,1000.569Zm-.137-21.375h0Z" transform="translate(2734.009 -977.924)" fill="url(#linear-gradient-8)"/>
            <path id="Path_457" data-name="Path 457" d="M-2713.866,1001.286a1.651,1.651,0,0,1-1.65-1.595c-.7-19.91-.577-20.358-.5-20.655a1.654,1.654,0,0,1,2.03-1.161,1.655,1.655,0,0,1,1.2,1.815c-.053,1.2.317,12.78.565,19.886a1.651,1.651,0,0,1-1.594,1.709C-2713.826,1001.286-2713.847,1001.286-2713.866,1001.286Z" transform="translate(2732.742 -977.815)" fill="url(#linear-gradient-9)"/>
            <path id="Path_458" data-name="Path 458" d="M-2709.049,1000.665a.826.826,0,0,1-.827-.827V979.676a.826.826,0,0,1,.827-.827.826.826,0,0,1,.827.827v20.163A.826.826,0,0,1-2709.049,1000.665Z" transform="translate(2731.508 -978.02)" fill="url(#linear-gradient-10)"/>
            <path id="Path_459" data-name="Path 459" d="M-2705.675,1000.653a.826.826,0,0,1-.827-.807c-.158-7.006-.528-18.45-.858-19.825a.826.826,0,0,1,.03-.858.824.824,0,0,1,1.145-.237c.451.295.878.575,1.337,20.881a.828.828,0,0,1-.807.846Z" transform="translate(2731.029 -978.008)" fill="url(#linear-gradient-11)"/>
            <path id="Path_460" data-name="Path 460" d="M-2734.131,1002.295a1.654,1.654,0,0,1-1.65-1.567l-1.1-21.172a1.655,1.655,0,0,1,1.566-1.737,1.674,1.674,0,0,1,1.737,1.566l1.1,21.172a1.656,1.656,0,0,1-1.566,1.738Z" transform="translate(2736.886 -977.814)" fill="url(#linear-gradient-12)"/>
          </g>
        </g>
      </g>
      <g id="Group_394" data-name="Group 394" transform="translate(321.25 175.599)">
        <g id="Group_393" data-name="Group 393">
          <g id="Group_392" data-name="Group 392">
            <path id="Path_461" data-name="Path 461" d="M-2538.645,1317.988s3.753,5.915,4.7,22.477a2.7,2.7,0,0,1-2.68,2.858h-29.349a1.73,1.73,0,0,1-1.646-2.276c1.72-5.091,6.92-17.5,18.524-24.593Z" transform="translate(2825.071 -850.887)" fill="#1a1718"/>
            <path id="Path_462" data-name="Path 462" d="M-2533.231,1303.974l-1.66,13.92a2.618,2.618,0,0,1-2.286,2.3,23.188,23.188,0,0,1-6.207-.058,4.3,4.3,0,0,1-3.544-4.265v-13.439Z" transform="translate(2820.932 -848.095)" fill="url(#linear-gradient-13)"/>
            <path id="Path_463" data-name="Path 463" d="M-2633.892,1316.453a40.988,40.988,0,0,1,5.5,20.717,5.185,5.185,0,0,1-5.215,5.072h-45.584a2.182,2.182,0,0,1-1.255-3.969c8.626-6.057,25.58-17.373,37.842-21.82Z" transform="translate(2847.7 -850.887)" fill="#1a1718"/>
            <path id="Path_464" data-name="Path 464" d="M-2619.611,1296.024l-3.541,17.191a3.546,3.546,0,0,1-4.194,2.789,12.836,12.836,0,0,1-4.007-1.676,4.069,4.069,0,0,1-1.818-4.154l3.663-20.827Z" transform="translate(2838.115 -845.491)" fill="url(#linear-gradient-14)"/>
            <path id="Path_465" data-name="Path 465" d="M-2557.3,999.257s12.312,10.854,14.629,23.913-6.564,225.307-6.564,225.307-12.311,2.049-18.657-1.8c0,0-7.528-137.748-13.249-169.578,0,0-30.005,142.689-38.319,168.47,0,0-11.86,1.443-15.685-.813,0,0,7.86-184.965,17.736-217.849Z" transform="translate(2838.495 -787.736)"/>
            <path id="Path_466" data-name="Path 466" d="M-2567.408,1082.828a.546.546,0,0,1-.143-.018.562.562,0,0,1-.4-.685l5.229-20.061a.565.565,0,0,1,.24-.331l11.3-7.248a.561.561,0,0,1,.777.17.563.563,0,0,1-.169.777l-11.114,7.129-5.174,19.848A.562.562,0,0,1-2567.408,1082.828Z" transform="translate(2825.122 -798.713)" fill="#fff"/>
            <path id="Path_467" data-name="Path 467" d="M-2701.312,844.837c51.828-4.3,65.373,6.422,65.373,6.422l-24.906,39.32s-50.925-1.006-87.415-29.131a89.073,89.073,0,0,0,14.614-21.811A68.623,68.623,0,0,0-2701.312,844.837Z" transform="translate(2861.016 -755.957)" fill="#a2471a"/>
            <path id="Path_468" data-name="Path 468" d="M-2791.423,750.764a1.589,1.589,0,0,1,3.026-.608l6.613,14.112a14.694,14.694,0,0,1,1.173,8.747l-2.319,8.214a14.172,14.172,0,0,0,2.892,11.284c6.075,7.6,19.017,21.471,37.441,29.127a89.073,89.073,0,0,1-14.614,21.811c-13.389-10.319-24.837-24.285-31.11-43.2a6.937,6.937,0,0,1-4.893-6.894Z" transform="translate(2869.967 -737.959)" fill="url(#linear-gradient-15)"/>
            <path id="Path_469" data-name="Path 469" d="M-2722.962,866.515c18.245-19.66,53-28.542,73.118-32.191a18.457,18.457,0,0,1,20.628,11.7c9.054,24.34,33.681,87.666,38.454,98.549,3.916,8.928,8,17.649,10.6,23.1a6.545,6.545,0,0,1-3.055,8.721c-16.928,8.16-47.389,17.392-59.738,20.993a4.237,4.237,0,0,1-5.421-4.078,13.238,13.238,0,0,0-1.887-6.812l-46.769-77.938c-29.15,32.322-54.679,35.278-74.291,28.2a147.5,147.5,0,0,0,6.49-30.63C-2735.858,901.176-2722.962,866.515-2722.962,866.515Z" transform="translate(2865.607 -754.839)" fill="#ea6222"/>
            <path id="Path_470" data-name="Path 470" d="M-2823.007,915.56l5.229-6.971c16.927,11.624,31.076,14.38,42.658,12.4a147.493,147.493,0,0,1-6.49,30.63C-2807.446,942.294-2823.007,915.56-2823.007,915.56Z" transform="translate(2875.897 -769.685)" fill="url(#linear-gradient-16)"/>
            <path id="Path_471" data-name="Path 471" d="M-2832.468,913.737l-29.456,1.148-27.121-15.147c3.893-2.44,25.907,2.547,25.907,2.547s23.014-3.48,29.242-3.489c5.173-.006,4.434,7.432,4.035,9.954-.081.514-.148.824-.148.824Z" transform="translate(2889.045 -767.735)" fill="url(#linear-gradient-17)"/>
            <path id="Path_472" data-name="Path 472" d="M-2660.277,789.317l15.542,37.925s-17.857,12.36-32.223,11.184l-7.757-34.1Z" transform="translate(2848.365 -745.938)" fill="url(#linear-gradient-18)"/>
            <g id="Group_391" data-name="Group 391" transform="translate(146.914)">
              <path id="Path_473" data-name="Path 473" d="M-2689.776,756.482c-.356.5-11.244,39.836-11.244,39.836l22.59,5.739,15.858-35.746S-2683.816,748.04-2689.776,756.482Z" transform="translate(2704.697 -738.958)" fill="url(#linear-gradient-19)"/>
              <path id="Path_474" data-name="Path 474" d="M-2671.992,767.941l-6.875,19.471a2.836,2.836,0,0,1-.358.7c-.933,1.326-4.477,5.651-8.68,1.755-3.815-3.535-7.349-6.7-10.611-7.279a2.882,2.882,0,0,0-3.281,2.07,124.744,124.744,0,0,0-3.8,18.977,2.876,2.876,0,0,0,2.339,3.1c4.412.839,13.767,2.345,21.577,1.794a2.883,2.883,0,0,0,2.431-1.674c2.152-4.7,8.747-18.973,11.2-22.665,2.3-3.466,7.946-3.368,10.312-3.158a2.835,2.835,0,0,0,2.125-.7c2.071-1.815,6.011-6.448.468-12a2.888,2.888,0,0,1,.067-4.158c2.38-2.238,4.926-6.208.96-11.131-4.031-5-9.352-4.207-12.613-3.018a2.886,2.886,0,0,1-3.473-1.283,2.284,2.284,0,0,0-2.354-1.1,2.84,2.84,0,0,1-3.03-2.913c.057-3.206-1.091-7.256-6.652-8.988-9.868-3.071-16.021,6.463-16.632,13.576s10.279,9.836,16.682,9.356c4.868-.364,8.482,4.46,9.935,6.794A2.862,2.862,0,0,1-2671.992,767.941Z" transform="translate(2705.611 -735.155)"/>
              <path id="Path_475" data-name="Path 475" d="M-2661.926,801.961s1.594-12.35,6.732-12.955,10.138,3.617,5.03,10.549C-2656.518,808.178-2661.926,801.961-2661.926,801.961Z" transform="translate(2696.914 -745.865)" fill="url(#linear-gradient-20)"/>
            </g>
          </g>
        </g>
      </g>
      <g id="Group_396" data-name="Group 396" transform="translate(285.209 81.502)">
        <path id="Path_476" data-name="Path 476" d="M-2769.764,648.35l-85.477-29.49a21.664,21.664,0,0,0-27.478,13.185c-12,33.576-36,103.082-50.826,161.61a16.288,16.288,0,0,0,9.941,19.185l80.8,33.827a20.7,20.7,0,0,0,26.889-12.19l58.6-159.925A20.321,20.321,0,0,0-2769.764,648.35Z" transform="translate(2934.045 -617.667)" fill="#fff"/>
        <path id="Path_477" data-name="Path 477" d="M-2836.882,647.429c7.322,2.366,18.788,6.563,26.182,9.312a6.965,6.965,0,0,1,3.847,9.554l-12.82,26.615a6.967,6.967,0,0,1-9.5,3.152l-21.537-11.24a6.968,6.968,0,0,1-3.363-8.449l8.481-24.581A6.958,6.958,0,0,1-2836.882,647.429Z" transform="translate(2918.199 -623.525)" fill="#ea6222"/>
        <path id="Path_478" data-name="Path 478" d="M-2829.914,749.175l-5.487,24a5.517,5.517,0,0,1-7.556,3.84l-67.082-28.8c3.039-9.805,6.115-19.45,9.142-28.736l67.4,23.254A5.519,5.519,0,0,1-2829.914,749.175Z" transform="translate(2929.265 -637.936)" fill="#17609f" opacity="0.69"/>
        <path id="Path_479" data-name="Path 479" d="M-2844.074,757.2a2.46,2.46,0,0,1,1.392,3.077c-.016.046-.033.091-.052.135a2.46,2.46,0,0,1-3.213,1.34l-58.865-24.214c.5-1.577,1-3.141,1.5-4.7Z" transform="translate(2928.225 -640.596)" fill="#fff"/>
        <g id="Group_395" data-name="Group 395" transform="translate(72.449 30.566)">
          <path id="Path_480" data-name="Path 480" d="M-2815.967,670.677a.821.821,0,0,0-.46-1.025l-18.506-7.727a.82.82,0,0,0-1.073.441.8.8,0,0,0,.441,1.073l18.506,7.728a.82.82,0,0,0,1.073-.442C-2815.978,670.709-2815.973,670.692-2815.967,670.677Z" transform="translate(2842.092 -657.032)" fill="#fff"/>
          <path id="Path_481" data-name="Path 481" d="M-2817.172,673.871a.822.822,0,0,0-.482-1.035l-19.066-7.281a.821.821,0,0,0-1.06.473.777.777,0,0,0,.473,1.06l19.066,7.281a.822.822,0,0,0,1.06-.473Z" transform="translate(2842.445 -657.756)" fill="#fff"/>
          <path id="Path_482" data-name="Path 482" d="M-2818.586,677.974a.818.818,0,0,1-1.065.459c-6.371-2.543-18.523-7.392-18.942-7.546a.821.821,0,0,1-.5-1.04.82.82,0,0,1,1.044-.509c.321.111,15.889,6.326,19.006,7.571a.821.821,0,0,1,.472,1.03A.293.293,0,0,1-2818.586,677.974Zm-20-7.07.006-.014Z" transform="translate(2842.701 -658.511)" fill="#fff"/>
          <path id="Path_483" data-name="Path 483" d="M-2820.171,684.587a1.64,1.64,0,0,0-.963-2.066c-18.456-7.1-18.917-7.131-19.222-7.152a1.642,1.642,0,0,0-1.747,1.529,1.643,1.643,0,0,0,1.313,1.718c1.14.337,11.89,4.435,18.477,6.968a1.64,1.64,0,0,0,2.121-.942C-2820.183,684.624-2820.177,684.605-2820.171,684.587Z" transform="translate(2843.292 -659.72)" fill="#fff"/>
          <path id="Path_484" data-name="Path 484" d="M-2822.235,688.85a.819.819,0,0,0-.509-1.044l-18.92-6.528a.821.821,0,0,0-1.044.509.82.82,0,0,0,.509,1.044l18.92,6.527A.82.82,0,0,0-2822.235,688.85Z" transform="translate(2843.421 -660.889)" fill="#fff"/>
          <path id="Path_485" data-name="Path 485" d="M-2823.338,692.011a.821.821,0,0,0-.49-1.037c-6.523-2.417-17.143-6.469-18.326-7.224a.822.822,0,0,0-.815-.249.818.818,0,0,0-.593,1c.131.518.255,1.011,19.162,8.015a.822.822,0,0,0,1.055-.484Z" transform="translate(2843.587 -661.335)" fill="#fff"/>
          <path id="Path_486" data-name="Path 486" d="M-2812.663,665.9a1.643,1.643,0,0,0-.937-2.056l-19.51-7.889a1.643,1.643,0,0,0-2.138.907,1.662,1.662,0,0,0,.908,2.138l19.51,7.89a1.643,1.643,0,0,0,2.137-.907C-2812.682,665.951-2812.672,665.923-2812.663,665.9Z" transform="translate(2841.95 -655.831)" fill="#fff"/>
        </g>
      </g>
    </g>
  </g>
</svg>
