<svg xmlns="http://www.w3.org/2000/svg" xmlns:xlink="http://www.w3.org/1999/xlink" width="969" height="836" viewBox="0 0 969 836">
  <defs>
    <linearGradient id="linear-gradient" x1="1.314" y1="2.769" x2="0.506" y2="1.604" gradientUnits="objectBoundingBox">
      <stop offset="0" stop-color="#ea6222"/>
      <stop offset="0.247" stop-color="#a64f2c"/>
      <stop offset="0.511" stop-color="#643d37"/>
      <stop offset="0.734" stop-color="#34303e"/>
      <stop offset="0.904" stop-color="#172843"/>
      <stop offset="1" stop-color="#0c2545"/>
    </linearGradient>
    <linearGradient id="linear-gradient-2" x1="1.063" y1="1.082" x2="0.202" y2="0.23" gradientUnits="objectBoundingBox">
      <stop offset="0" stop-color="#acaeb1"/>
      <stop offset="1" stop-color="#fff"/>
    </linearGradient>
    <linearGradient id="linear-gradient-3" x1="0.206" y1="-0.404" x2="0.603" y2="0.884" xlink:href="#linear-gradient-2"/>
    <linearGradient id="linear-gradient-4" x1="451.756" y1="0.5" x2="452.756" y2="0.5" gradientUnits="objectBoundingBox">
      <stop offset="0" stop-color="#8a1a1b"/>
      <stop offset="1" stop-color="#ab2d2d"/>
    </linearGradient>
    <linearGradient id="linear-gradient-5" x1="464.414" y1="0.5" x2="465.414" y2="0.5" xlink:href="#linear-gradient-4"/>
    <linearGradient id="linear-gradient-6" x1="129.298" y1="0.5" x2="130.298" y2="0.5" gradientUnits="objectBoundingBox">
      <stop offset="0" stop-color="#d7bbb3"/>
      <stop offset="1" stop-color="#d2b7b0"/>
    </linearGradient>
    <linearGradient id="linear-gradient-7" x1="139.578" y1="-1.615" x2="137.293" y2="1.548" xlink:href="#linear-gradient-6"/>
    <linearGradient id="linear-gradient-8" x1="113.633" y1="-2.795" x2="111.794" y2="5.663" xlink:href="#linear-gradient-6"/>
    <linearGradient id="linear-gradient-9" x1="161.33" y1="-1.142" x2="158.68" y2="2.815" xlink:href="#linear-gradient-6"/>
    <linearGradient id="linear-gradient-10" x1="87.166" y1="124.485" x2="85.948" y2="125.78" xlink:href="#linear-gradient-6"/>
    <linearGradient id="linear-gradient-11" x1="233.933" y1="393.405" x2="236.634" y2="390.867" xlink:href="#linear-gradient-6"/>
    <clipPath id="clip-img_without_backage">
      <rect width="969" height="836"/>
    </clipPath>
  </defs>
  <g id="img_without_backage" data-name="img without backage" clip-path="url(#clip-img_without_backage)">
    <path id="Path_402" data-name="Path 402" d="M-2566.112,1335.725c-22.505,10.73-42.449,16.112-58.207,20.365-185.226,49.987-364.812-30.7-402.732-48.73-55.994-26.617-164.232-78.068-223.6-181.988-89.815-157.223-16.032-343.981,116.35-443.576,24.215-18.218,153.885-120.667,349.163-87.705,118.179,19.948,244.675,83,322.3,178.039C-2299.9,971.636-2395.565,1254.412-2566.112,1335.725Z" transform="translate(3309.836 -548.399)" fill="url(#linear-gradient)"/>
    <g id="Group_380" data-name="Group 380" transform="translate(404.922 344.214)">
      <g id="Group_377" data-name="Group 377" transform="translate(0 179.616)">
        <path id="Path_403" data-name="Path 403" d="M-2920.533,1300.529V1120.911a43.036,43.036,0,0,1,42.564-43.058c70.821-.771,216.89-.81,336.4,9.262a32.352,32.352,0,0,1,29.586,31.1l11.171,173.653a41.119,41.119,0,0,1-40.31,42.6l-338.279,6.428A40.368,40.368,0,0,1-2920.533,1300.529Z" transform="translate(2920.533 -1077.551)" fill="url(#linear-gradient-2)"/>
        <path id="Path_404" data-name="Path 404" d="M-2881.172,1138.348c-.3,15.284.152,39.533.524,55.2a13.835,13.835,0,0,0,15.448,13.414l58.284-6.831a13.841,13.841,0,0,0,12.076-15.8l-7.154-47.726a13.842,13.842,0,0,0-13.688-11.789h-51.653A13.822,13.822,0,0,0-2881.172,1138.348Z" transform="translate(2922.193 -1075.553)" fill="#ea6222"/>
        <path id="Path_405" data-name="Path 405" d="M-2734.638,1230.764l48.619,5.245a10.961,10.961,0,0,0,12.108-11.7l-10.629-144.629c-20.381-.646-40.485-1.117-59.884-1.449v141.635A10.963,10.963,0,0,0-2734.638,1230.764Z" transform="translate(2927.975 -1077.522)" fill="#fff" opacity="0.37"/>
        <path id="Path_406" data-name="Path 406" d="M-2715.617,1205.678a4.888,4.888,0,0,0,4.877,4.607c.1,0,.192,0,.289-.009a4.885,4.885,0,0,0,4.6-5.164l-7.332-126.227c-3.287-.081-6.547-.154-9.809-.227Z" transform="translate(2928.881 -1077.504)" fill="#fff"/>
        <g id="Group_376" data-name="Group 376" transform="translate(53.77 63.701)">
          <path id="Path_407" data-name="Path 407" d="M-2855.146,1183.255a1.631,1.631,0,0,1-1.628-1.528l-2.521-39.758a1.628,1.628,0,0,1,1.525-1.729,1.593,1.593,0,0,1,1.729,1.526l2.522,39.758a1.629,1.629,0,0,1-1.526,1.728C-2855.079,1183.255-2855.114,1183.255-2855.146,1183.255Z" transform="translate(2869.351 -1138.603)" fill="#fff"/>
          <path id="Path_408" data-name="Path 408" d="M-2850.216,1183.286a1.63,1.63,0,0,1-1.63-1.576l-1.322-40.519a1.633,1.633,0,0,1,1.576-1.684,1.542,1.542,0,0,1,1.684,1.576l1.322,40.519a1.632,1.632,0,0,1-1.576,1.684Z" transform="translate(2869.61 -1138.634)" fill="#fff"/>
          <path id="Path_409" data-name="Path 409" d="M-2843.514,1183.286a1.628,1.628,0,0,1-1.627-1.553c-.319-6.661-1.9-39.924-1.9-40.6a1.63,1.63,0,0,1,1.63-1.63,1.631,1.631,0,0,1,1.631,1.614c.019.885,1.25,26.848,1.9,40.458a1.624,1.624,0,0,1-1.55,1.7A.644.644,0,0,1-2843.514,1183.286Zm-.27-42.149h0Z" transform="translate(2869.869 -1138.634)" fill="#fff"/>
          <path id="Path_410" data-name="Path 410" d="M-2833.054,1184.951a3.257,3.257,0,0,1-3.254-3.145c-1.378-39.258-1.136-40.143-.978-40.729a3.263,3.263,0,0,1,4-2.289,3.262,3.262,0,0,1,2.375,3.579c-.1,2.359.624,25.2,1.114,39.21a3.258,3.258,0,0,1-3.142,3.373C-2832.975,1184.951-2833.016,1184.951-2833.054,1184.951Z" transform="translate(2870.276 -1138.669)" fill="#fff"/>
          <path id="Path_411" data-name="Path 411" d="M-2826.386,1183.255a1.629,1.629,0,0,1-1.63-1.63v-39.758a1.63,1.63,0,0,1,1.63-1.63,1.629,1.629,0,0,1,1.63,1.63v39.758A1.628,1.628,0,0,1-2826.386,1183.255Z" transform="translate(2870.672 -1138.603)" fill="#fff"/>
          <path id="Path_412" data-name="Path 412" d="M-2820.835,1183.259a1.63,1.63,0,0,1-1.63-1.592c-.312-13.815-1.042-36.38-1.694-39.093a1.632,1.632,0,0,1,.061-1.691,1.626,1.626,0,0,1,2.257-.468c.888.583,1.732,1.134,2.636,41.176a1.632,1.632,0,0,1-1.591,1.668Z" transform="translate(2870.827 -1138.607)" fill="#fff"/>
          <path id="Path_413" data-name="Path 413" d="M-2863.51,1186.942a3.263,3.263,0,0,1-3.255-3.093l-2.175-41.748a3.263,3.263,0,0,1,3.088-3.426,3.3,3.3,0,0,1,3.426,3.088l2.175,41.749a3.265,3.265,0,0,1-3.088,3.426C-2863.4,1186.942-2863.453,1186.942-2863.51,1186.942Z" transform="translate(2868.944 -1138.669)" fill="#fff"/>
        </g>
      </g>
      <g id="Group_379" data-name="Group 379" transform="translate(56.781)">
        <path id="Path_414" data-name="Path 414" d="M-2866.054,1061.809V935.669a30.224,30.224,0,0,1,29.891-30.239c49.736-.541,152.317-.568,236.249,6.5a22.721,22.721,0,0,1,20.777,21.838l7.845,121.954a28.876,28.876,0,0,1-28.309,29.913l-237.565,4.515A28.35,28.35,0,0,1-2866.054,1061.809Z" transform="translate(2866.054 -905.217)" fill="url(#linear-gradient-3)"/>
        <path id="Path_415" data-name="Path 415" d="M-2838.413,947.913c-.211,10.733.107,27.764.368,38.767A9.716,9.716,0,0,0-2827.2,996.1l40.931-4.8a9.718,9.718,0,0,0,8.481-11.094l-5.025-33.517a9.719,9.719,0,0,0-9.612-8.277h-36.275A9.706,9.706,0,0,0-2838.413,947.913Z" transform="translate(2867.219 -903.815)" fill="#ea6222"/>
        <path id="Path_416" data-name="Path 416" d="M-2735.505,1012.815l34.145,3.683a7.7,7.7,0,0,0,8.5-8.217l-7.465-101.57c-14.313-.453-28.431-.785-42.054-1.017v99.467A7.7,7.7,0,0,0-2735.505,1012.815Z" transform="translate(2871.281 -905.197)" fill="#fff" opacity="0.37"/>
        <path id="Path_417" data-name="Path 417" d="M-2722.147,995.2a3.434,3.434,0,0,0,3.426,3.236c.068,0,.135,0,.2-.007a3.431,3.431,0,0,0,3.229-3.626l-5.149-88.646c-2.308-.057-4.6-.108-6.887-.16Z" transform="translate(2871.917 -905.184)" fill="#fff"/>
        <g id="Group_378" data-name="Group 378" transform="translate(37.761 44.736)">
          <path id="Path_418" data-name="Path 418" d="M-2820.135,979.452a1.144,1.144,0,0,1-1.143-1.073l-1.771-27.921a1.144,1.144,0,0,1,1.07-1.214,1.118,1.118,0,0,1,1.214,1.071l1.772,27.921a1.145,1.145,0,0,1-1.071,1.214C-2820.088,979.452-2820.113,979.452-2820.135,979.452Z" transform="translate(2830.111 -948.093)" fill="#fff"/>
          <path id="Path_419" data-name="Path 419" d="M-2816.672,979.474a1.145,1.145,0,0,1-1.145-1.107l-.929-28.456a1.148,1.148,0,0,1,1.107-1.183,1.083,1.083,0,0,1,1.183,1.107l.928,28.456a1.146,1.146,0,0,1-1.106,1.183Z" transform="translate(2830.293 -948.114)" fill="#fff"/>
          <path id="Path_420" data-name="Path 420" d="M-2811.965,979.474a1.142,1.142,0,0,1-1.143-1.091c-.224-4.678-1.338-28.038-1.338-28.51a1.145,1.145,0,0,1,1.146-1.144,1.145,1.145,0,0,1,1.145,1.134c.013.621.878,18.854,1.332,28.413a1.142,1.142,0,0,1-1.089,1.2A.452.452,0,0,1-2811.965,979.474Zm-.19-29.6h0Z" transform="translate(2830.474 -948.114)" fill="#fff"/>
          <path id="Path_421" data-name="Path 421" d="M-2804.62,980.643a2.288,2.288,0,0,1-2.286-2.21c-.968-27.57-.8-28.191-.686-28.6a2.289,2.289,0,0,1,2.81-1.607,2.291,2.291,0,0,1,1.669,2.513c-.074,1.657.438,17.7.782,27.536a2.288,2.288,0,0,1-2.208,2.368C-2804.564,980.643-2804.593,980.643-2804.62,980.643Z" transform="translate(2830.76 -948.139)" fill="#fff"/>
          <path id="Path_422" data-name="Path 422" d="M-2799.937,979.452a1.144,1.144,0,0,1-1.146-1.146V950.385a1.144,1.144,0,0,1,1.146-1.144,1.144,1.144,0,0,1,1.145,1.144v27.921A1.144,1.144,0,0,1-2799.937,979.452Z" transform="translate(2831.039 -948.093)" fill="#fff"/>
          <path id="Path_423" data-name="Path 423" d="M-2796.039,979.455a1.144,1.144,0,0,1-1.144-1.118c-.22-9.7-.732-25.549-1.19-27.454a1.146,1.146,0,0,1,.042-1.187,1.142,1.142,0,0,1,1.585-.328c.625.408,1.216.8,1.851,28.916a1.146,1.146,0,0,1-1.117,1.172Z" transform="translate(2831.147 -948.095)" fill="#fff"/>
          <path id="Path_424" data-name="Path 424" d="M-2826.008,982.041a2.292,2.292,0,0,1-2.286-2.171l-1.527-29.319a2.293,2.293,0,0,1,2.169-2.407,2.319,2.319,0,0,1,2.406,2.169l1.527,29.32a2.291,2.291,0,0,1-2.168,2.406C-2825.928,982.041-2825.969,982.041-2826.008,982.041Z" transform="translate(2829.824 -948.139)" fill="#fff"/>
        </g>
      </g>
    </g>
    <g id="Group_394" data-name="Group 394" transform="translate(437.741 166.965)">
      <g id="Group_393" data-name="Group 393">
        <g id="Group_392" data-name="Group 392">
          <path id="Path_461" data-name="Path 461" d="M-2529.885,1318.45s4.884,7.7,6.112,29.25a3.511,3.511,0,0,1-3.487,3.719h-38.194a2.252,2.252,0,0,1-2.142-2.962c2.238-6.625,9.006-22.774,24.106-32Z" transform="translate(2902.624 -710.59)" fill="#1a1718"/>
          <path id="Path_462" data-name="Path 462" d="M-2529.1,1304.438l-2.16,18.115a3.407,3.407,0,0,1-2.974,2.993,30.176,30.176,0,0,1-8.077-.076,5.6,5.6,0,0,1-4.613-5.55v-17.489Z" transform="translate(2903.502 -711.183)" fill="url(#linear-gradient-4)"/>
          <path id="Path_463" data-name="Path 463" d="M-2619.581,1316.453a53.339,53.339,0,0,1,7.154,26.96,6.748,6.748,0,0,1-6.786,6.6h-59.32a2.84,2.84,0,0,1-1.633-5.165c11.225-7.883,33.288-22.608,49.245-28.4Z" transform="translate(2897.82 -710.59)" fill="#1a1718"/>
          <path id="Path_464" data-name="Path 464" d="M-2615.506,1298.036l-4.608,22.371a4.615,4.615,0,0,1-5.458,3.629,16.7,16.7,0,0,1-5.214-2.182,5.3,5.3,0,0,1-2.366-5.405l4.767-27.1Z" transform="translate(2899.855 -711.736)" fill="url(#linear-gradient-5)"/>
          <path id="Path_465" data-name="Path 465" d="M-2533.84,999.257s16.022,14.125,19.037,31.119-8.542,293.2-8.542,293.2-16.021,2.666-24.28-2.339c0,0-9.8-179.258-17.241-220.68,0,0-39.047,185.688-49.866,219.238,0,0-15.433,1.878-20.411-1.058,0,0,10.229-240.7,23.081-283.5Z" transform="translate(2899.775 -723.995)"/>
          <path id="Path_466" data-name="Path 466" d="M-2567.239,1091.4a.709.709,0,0,1-.186-.024.731.731,0,0,1-.523-.892l6.8-26.107a.737.737,0,0,1,.313-.431l14.7-9.432a.731.731,0,0,1,1.011.221.732.732,0,0,1-.22,1.011l-14.464,9.277-6.733,25.829A.731.731,0,0,1-2567.239,1091.4Z" transform="translate(2902.613 -721.664)" fill="#fff"/>
          <path id="Path_467" data-name="Path 467" d="M-2687.165,846.4c67.446-5.6,85.073,8.358,85.073,8.358L-2634.5,905.93s-66.271-1.309-113.757-37.909a115.914,115.914,0,0,0,19.018-28.384A89.3,89.3,0,0,0-2687.165,846.4Z" transform="translate(2894.995 -730.74)" fill="#a2471a"/>
          <path id="Path_468" data-name="Path 468" d="M-2790.882,751.223a2.068,2.068,0,0,1,3.938-.791l8.606,18.365a19.122,19.122,0,0,1,1.527,11.383l-3.018,10.689a18.443,18.443,0,0,0,3.764,14.684c7.906,9.886,24.748,27.941,48.723,37.9a115.912,115.912,0,0,1-19.018,28.384c-17.423-13.428-32.321-31.6-40.484-56.215a9.027,9.027,0,0,1-6.368-8.972Z" transform="translate(2893.094 -734.56)" fill="url(#linear-gradient-6)"/>
          <path id="Path_469" data-name="Path 469" d="M-2708.39,876.306c23.743-25.584,68.968-37.143,95.152-41.892a24.019,24.019,0,0,1,26.844,15.231c11.783,31.674,43.831,114.084,50.042,128.247,5.1,11.619,10.417,22.967,13.8,30.063a8.517,8.517,0,0,1-3.975,11.349c-22.03,10.618-61.669,22.633-77.74,27.32a5.514,5.514,0,0,1-7.055-5.306,17.228,17.228,0,0,0-2.456-8.865l-60.863-101.424c-37.935,42.063-71.157,45.908-96.678,36.7a191.958,191.958,0,0,0,8.446-39.86C-2725.172,921.412-2708.39,876.306-2708.39,876.306Z" transform="translate(2894.02 -730.977)" fill="#ea6222"/>
          <path id="Path_470" data-name="Path 470" d="M-2823.007,917.661l6.8-9.072c22.028,15.127,40.441,18.714,55.513,16.131a191.954,191.954,0,0,1-8.446,39.86C-2802.757,952.451-2823.007,917.661-2823.007,917.661Z" transform="translate(2891.836 -727.826)" fill="url(#linear-gradient-7)"/>
          <path id="Path_471" data-name="Path 471" d="M-2815.419,918.239l-38.332,1.494-35.294-19.711c5.066-3.176,33.715,3.314,33.715,3.314s29.949-4.529,38.054-4.54c6.732-.008,5.77,9.672,5.251,12.953-.105.669-.193,1.073-.193,1.073Z" transform="translate(2889.045 -728.24)" fill="url(#linear-gradient-8)"/>
          <path id="Path_472" data-name="Path 472" d="M-2652.913,789.317l20.225,49.354s-23.238,16.084-41.934,14.554l-10.095-44.378Z" transform="translate(2897.68 -732.866)" fill="url(#linear-gradient-9)"/>
          <g id="Group_391" data-name="Group 391" transform="translate(191.186)">
            <path id="Path_473" data-name="Path 473" d="M-2686.388,757.154c-.464.657-14.632,51.841-14.632,51.841l29.4,7.469,20.637-46.518S-2678.632,746.167-2686.388,757.154Z" transform="translate(2705.805 -734.348)" fill="url(#linear-gradient-10)"/>
            <path id="Path_474" data-name="Path 474" d="M-2661.861,777.821l-8.947,25.338a3.7,3.7,0,0,1-.466.907c-1.214,1.725-5.826,7.353-11.3,2.284-4.965-4.6-9.563-8.725-13.809-9.473a3.75,3.75,0,0,0-4.27,2.693,162.341,162.341,0,0,0-4.943,24.7,3.743,3.743,0,0,0,3.044,4.036c5.742,1.091,17.916,3.052,28.08,2.335a3.752,3.752,0,0,0,3.163-2.178c2.8-6.12,11.383-24.69,14.574-29.495,3-4.51,10.34-4.383,13.42-4.11a3.689,3.689,0,0,0,2.765-.9c2.694-2.362,7.823-8.391.609-15.61a3.759,3.759,0,0,1,.087-5.411c3.1-2.912,6.411-8.079,1.25-14.485-5.246-6.512-12.17-5.475-16.413-3.927a3.756,3.756,0,0,1-4.52-1.67,2.973,2.973,0,0,0-3.063-1.432,3.7,3.7,0,0,1-3.943-3.791c.074-4.172-1.42-9.443-8.657-11.7-12.842-4-20.85,8.41-21.644,17.667s13.376,12.8,21.709,12.176c6.335-.474,11.038,5.8,12.929,8.842A3.724,3.724,0,0,1-2661.861,777.821Z" transform="translate(2705.611 -735.155)"/>
            <path id="Path_475" data-name="Path 475" d="M-2661.926,805.883s2.074-16.072,8.76-16.859,13.193,4.707,6.546,13.729C-2654.888,813.973-2661.926,805.883-2661.926,805.883Z" transform="translate(2707.457 -732.882)" fill="url(#linear-gradient-11)"/>
          </g>
        </g>
      </g>
    </g>
    <g id="Group_396" data-name="Group 396" transform="translate(390.839 44.511)">
      <path id="Path_476" data-name="Path 476" d="M-2720.259,657.6l-111.235-38.377a28.192,28.192,0,0,0-35.759,17.159c-15.61,43.695-46.843,134.145-66.142,210.311a21.2,21.2,0,0,0,12.937,24.966l105.155,44.021a26.937,26.937,0,0,0,34.992-15.863l76.258-208.118A26.445,26.445,0,0,0-2720.259,657.6Z" transform="translate(2934.045 -617.667)" fill="#fff"/>
      <path id="Path_477" data-name="Path 477" d="M-2831.586,647.531c9.528,3.079,24.449,8.541,34.072,12.118a9.064,9.064,0,0,1,5.006,12.433l-16.683,34.635a9.067,9.067,0,0,1-12.363,4.1l-28.028-14.627a9.068,9.068,0,0,1-4.376-10.995l11.036-31.989A9.055,9.055,0,0,1-2831.586,647.531Z" transform="translate(2937.409 -616.424)" fill="#ea6222"/>
      <path id="Path_478" data-name="Path 478" d="M-2805.769,758.125l-7.14,31.23a7.18,7.18,0,0,1-9.833,5l-87.3-37.484c3.955-12.76,7.958-25.311,11.9-37.4l87.713,30.262A7.182,7.182,0,0,1-2805.769,758.125Z" transform="translate(2935.06 -613.365)" fill="#17609f" opacity="0.69"/>
      <path id="Path_479" data-name="Path 479" d="M-2825.772,764.546a3.2,3.2,0,0,1,1.812,4c-.021.059-.043.118-.067.176a3.2,3.2,0,0,1-4.181,1.744l-76.6-31.511c.651-2.052,1.3-4.088,1.954-6.122Z" transform="translate(2935.28 -612.8)" fill="#fff"/>
      <g id="Group_395" data-name="Group 395" transform="translate(94.281 39.777)">
        <path id="Path_480" data-name="Path 480" d="M-2809.907,673.333a1.069,1.069,0,0,0-.6-1.334l-24.083-10.056a1.067,1.067,0,0,0-1.4.574,1.042,1.042,0,0,0,.574,1.4l24.083,10.057a1.067,1.067,0,0,0,1.4-.575C-2809.921,673.375-2809.915,673.353-2809.907,673.333Z" transform="translate(2843.905 -655.576)" fill="#fff"/>
        <path id="Path_481" data-name="Path 481" d="M-2810.941,676.394a1.069,1.069,0,0,0-.627-1.347l-24.811-9.475a1.069,1.069,0,0,0-1.38.616,1.011,1.011,0,0,0,.616,1.38l24.812,9.475a1.07,1.07,0,0,0,1.38-.616Z" transform="translate(2843.83 -655.423)" fill="#fff"/>
        <path id="Path_482" data-name="Path 482" d="M-2812.393,680.59a1.065,1.065,0,0,1-1.386.6c-8.291-3.309-24.105-9.619-24.65-9.82a1.068,1.068,0,0,1-.652-1.354,1.067,1.067,0,0,1,1.358-.662c.417.144,20.677,8.233,24.734,9.852a1.068,1.068,0,0,1,.615,1.34A.41.41,0,0,1-2812.393,680.59Zm-26.033-9.2.007-.019Z" transform="translate(2843.775 -655.262)" fill="#fff"/>
        <path id="Path_483" data-name="Path 483" d="M-2813.561,687.366a2.134,2.134,0,0,0-1.253-2.688c-24.018-9.242-24.618-9.28-25.014-9.307a2.137,2.137,0,0,0-2.273,1.99,2.138,2.138,0,0,0,1.708,2.236c1.484.439,15.474,5.771,24.045,9.068a2.134,2.134,0,0,0,2.76-1.226C-2813.577,687.415-2813.569,687.39-2813.561,687.366Z" transform="translate(2843.65 -655.006)" fill="#fff"/>
        <path id="Path_484" data-name="Path 484" d="M-2816.053,691.145a1.066,1.066,0,0,0-.662-1.358l-24.621-8.5a1.068,1.068,0,0,0-1.358.662,1.067,1.067,0,0,0,.662,1.358l24.622,8.495A1.067,1.067,0,0,0-2816.053,691.145Z" transform="translate(2843.622 -654.758)" fill="#fff"/>
        <path id="Path_485" data-name="Path 485" d="M-2817.237,694.583a1.068,1.068,0,0,0-.637-1.35c-8.489-3.146-22.308-8.418-23.848-9.4a1.07,1.07,0,0,0-1.061-.324,1.064,1.064,0,0,0-.771,1.3c.17.674.331,1.315,24.936,10.43a1.07,1.07,0,0,0,1.373-.629Z" transform="translate(2843.587 -654.663)" fill="#fff"/>
        <path id="Path_486" data-name="Path 486" d="M-2805.821,668.929a2.137,2.137,0,0,0-1.219-2.675l-25.39-10.266a2.138,2.138,0,0,0-2.782,1.18,2.162,2.162,0,0,0,1.181,2.782l25.389,10.267a2.138,2.138,0,0,0,2.781-1.181C-2805.846,669-2805.834,668.965-2805.821,668.929Z" transform="translate(2843.935 -655.831)" fill="#fff"/>
      </g>
    </g>
  </g>
</svg>
