<svg xmlns="http://www.w3.org/2000/svg" width="269.837" height="76.035" viewBox="0 0 269.837 76.035">
  <g id="Group_340" data-name="Group 340" transform="translate(3567.982 2139.667)">
    <path id="Path_367" data-name="Path 367" d="M-3305.973-2139.667l-7.969,8.945v8.35h7.969l7.828-8.647v-8.648Z" fill="#238acf"/>
    <path id="Path_368" data-name="Path 368" d="M-3330.007-2112.794l-7.969,8.945v8.35h7.969l7.828-8.648v-8.647Z" fill="#238acf"/>
    <path id="Path_369" data-name="Path 369" d="M-3354.493-2086.39l-7.969,8.945v8.35h7.969l7.828-8.647v-8.648Z" fill="#238acf"/>
    <path id="Path_370" data-name="Path 370" d="M-3338.154-2139.667v8.648l7.9,9.117h7.9v-9.117l-7.9-8.648Z" fill="#d0001c"/>
    <path id="Path_371" data-name="Path 371" d="M-3313.942-2113.029v8.648l7.9,9.117h7.9v-9.117l-7.9-8.648Z" fill="#d0001c"/>
    <path id="Path_372" data-name="Path 372" d="M-3362.461-2113.029v8.648l7.9,9.117h7.9v-9.117l-7.9-8.648Z" fill="#d0001c"/>
    <path id="Path_373" data-name="Path 373" d="M-3338.35-2086.625v8.647l7.9,9.117h7.9v-9.117l-7.9-8.647Z" fill="#d0001c"/>
    <text id="LUXEMBOURG" transform="translate(-3464.037 -2095.5)" fill="#1a1718" font-size="26.795" font-family="SegoeUI, Segoe UI" letter-spacing="0.065em"><tspan x="-93.797" y="0">LUXEMBOURG</tspan></text>
    <text id="AID_DEVELOPMENT" data-name="AID &amp; DEVELOPMENT" transform="translate(-3463.982 -2068.632)" fill="#1a1718" font-size="18.23" font-family="SegoeUI, Segoe UI" letter-spacing="0.105em"><tspan x="-103.92" y="0">AID &amp; DEVELOPMENT</tspan></text>
  </g>
</svg>
