<svg xmlns="http://www.w3.org/2000/svg" width="132.448" height="120.362" viewBox="0 0 132.448 120.362">
  <g id="Group_269" data-name="Group 269" transform="translate(3935.491 -25.965)">
    <g id="Group_257" data-name="Group 257">
      <path id="Path_271" data-name="Path 271" d="M-3884.194,25.965c-.905,1.6-2,4.208-.87,5.778,1.264,1.856,4.515,3.887,5.035,6.758.411,2.144-1.083,4.754-4.645,4.811.42-.884,1.552-1.578,1.165-2.949-.227-.807-1.034-1.318-1.753-1.778C-3892.923,33.368-3889.75,27.276-3884.194,25.965Z" fill="#ea6222"/>
      <path id="Path_272" data-name="Path 272" d="M-3872.385,25.965c-.9,1.6-2,4.208-.869,5.778,1.264,1.856,4.515,3.887,5.034,6.758.412,2.144-1.082,4.754-4.644,4.811.419-.884,1.552-1.578,1.165-2.949-.227-.807-1.035-1.318-1.753-1.778C-3881.113,33.368-3877.941,27.276-3872.385,25.965Z" fill="#ea6222"/>
      <path id="Path_273" data-name="Path 273" d="M-3860.575,25.965c-.9,1.6-2,4.208-.869,5.778,1.264,1.856,4.515,3.887,5.034,6.758.412,2.144-1.082,4.754-4.645,4.811.42-.884,1.553-1.578,1.166-2.949-.227-.807-1.035-1.318-1.753-1.778C-3869.3,33.368-3866.131,27.276-3860.575,25.965Z" fill="#ea6222"/>
      <path id="Path_274" data-name="Path 274" d="M-3817.376,133.3l-11.636-1.285-28.677,5.383-7.17-2.109-23.6-14.571,2.328-3.788s13.472,10.134,24.649,13.3c9.816,2.778,25.729-2.953,33.321-3.8s12.653-5.062,14.34-10.545S-3817.376,133.3-3817.376,133.3Z" fill="#163b63" opacity="0.71"/>
      <path id="Path_275" data-name="Path 275" d="M-3846.313,76.8s-7.827,4.247-12.325,6.057c-8.646,3.48-23.788,7.727-25.482,7.916-3.8.421-9.982-3.459-13.216-4.443s-7.03-2.385-11.107-2.418c-3.832-.031-8.238.393-8.238.393V66.056c-.456.186-3.763.76-4.2.895l-.495,25.537s10.229-2.238,14.059-2.39c4.64-.186,8.168,1.513,11.318,2.957,6.045,2.772,9.795,4.24,12.477,3.194,1.586-.624,15.424-5.392,23.515-8.752,6.125-2.544,15.289-6.432,15.289-6.432Z" fill="#163b63" opacity="0.71"/>
      <path id="Path_276" data-name="Path 276" d="M-3875.107,82.425l-1.1-4.327a3.806,3.806,0,0,1-1.849,1.49,3.825,3.825,0,0,1-2.879-.075l-9.906-4.445a9.742,9.742,0,0,0-7.265-.162l-.765.461,9.308,4.93s10.877,3.753,10.96,3.723S-3875.107,82.425-3875.107,82.425Z" fill="#163b63" opacity="0.71"/>
      <path id="Path_277" data-name="Path 277" d="M-3843.271,117.879l-11.3,5.117a3,3,0,0,1-1.249.263,3.133,3.133,0,0,1-2.316-1.026c0-.013,0-.013-.013-.013a3.281,3.281,0,0,1-.486-.763,2.969,2.969,0,0,1-.264-1.026,2.719,2.719,0,0,1-.447-.421,4.593,4.593,0,0,1-.684-.974,4.751,4.751,0,0,1-.539-2.512,4.607,4.607,0,0,1,.8-2.381,2.733,2.733,0,0,1-.263-.408.609.609,0,0,1-.053-.132l.54-.249.829-.369a3.755,3.755,0,0,0-.855.855,2.988,2.988,0,0,0,.131.75,2.411,2.411,0,0,0,.145.4,3.105,3.105,0,0,0,2.815,1.815,3.027,3.027,0,0,0,1.25-.276l1.013-.461,7.906-3.565v.027l.513-.237a3.028,3.028,0,0,1,1.25-.276,3.107,3.107,0,0,1,2.815,1.815A3.08,3.08,0,0,1-3843.271,117.879Z" fill="#163b63" opacity="0.71"/>
    </g>
    <g id="Group_268" data-name="Group 268">
      <g id="Group_258" data-name="Group 258">
        <path id="Path_278" data-name="Path 278" d="M-3886.037,106.422a18.479,18.479,0,0,1-5.192-.745l-.306-.094-12.682-4.234a1.689,1.689,0,0,1-1.066-2.135,1.69,1.69,0,0,1,2.135-1.066l12.891,4.3a15.084,15.084,0,0,0,4.22.6,14.969,14.969,0,0,0,6.439-1.448c.044-.02.089-.039.135-.056l14.967-5.535a1.691,1.691,0,0,1,2.168,1,1.687,1.687,0,0,1-1,2.167l-14.9,5.51A18.326,18.326,0,0,1-3886.037,106.422Z" fill="#0c2545"/>
      </g>
      <g id="Group_259" data-name="Group 259">
        <path id="Path_279" data-name="Path 279" d="M-3886.04,98.828a10.917,10.917,0,0,1-3.063-.439l-12.709-4.241a35.033,35.033,0,0,0-13.379-1.823c-3.549.225-4.863.857-5.264,1.119a1.689,1.689,0,0,1-2.335-.49,1.689,1.689,0,0,1,.49-2.336c1.377-.9,3.7-1.458,6.9-1.661a38.476,38.476,0,0,1,14.662,1.989l12.647,4.223a7.474,7.474,0,0,0,5.465-.536,1.717,1.717,0,0,1,.181-.079l34.479-12.75a3.658,3.658,0,0,0,1.69-4.507c-.225-.6-.9-2.435-5.136-2.034l-23.042,1.662a1.711,1.711,0,0,1-.813-.145l-22.815-10.28a18.675,18.675,0,0,0-14.335-.454l-8.8,3.212a1.689,1.689,0,0,1-2.163-1.006,1.686,1.686,0,0,1,1.007-2.163l8.783-3.207a22.016,22.016,0,0,1,16.892.542l22.426,10.1L-3851.7,71.9c5.877-.549,7.9,2.4,8.576,4.212a7.031,7.031,0,0,1-3.4,8.741,1.8,1.8,0,0,1-.18.079l-34.491,12.754A10.883,10.883,0,0,1-3886.04,98.828Z" fill="#0c2545"/>
      </g>
      <g id="Group_260" data-name="Group 260">
        <path id="Path_280" data-name="Path 280" d="M-3879.848,85.864a7.006,7.006,0,0,1-2.9-.63l-15.756-7.141a1.686,1.686,0,0,1-.84-2.233,1.684,1.684,0,0,1,2.232-.84l15.757,7.141a3.7,3.7,0,0,0,4.882-1.837,3.693,3.693,0,0,0-1.838-4.882l-12.14-5.5a1.686,1.686,0,0,1-.84-2.232,1.683,1.683,0,0,1,2.232-.841l12.141,5.5a7.07,7.07,0,0,1,3.518,9.348A7.074,7.074,0,0,1-3879.848,85.864Z" fill="#0c2545"/>
      </g>
      <g id="Group_261" data-name="Group 261">
        <path id="Path_281" data-name="Path 281" d="M-3921.846,97.687h-11.81A1.688,1.688,0,0,1-3935.343,96a1.687,1.687,0,0,1,1.687-1.687h10.123v-28.6H-3933.8a1.687,1.687,0,0,1-1.687-1.687,1.687,1.687,0,0,1,1.687-1.687h11.958a1.687,1.687,0,0,1,1.687,1.687V96A1.688,1.688,0,0,1-3921.846,97.687Z" fill="#0c2545"/>
      </g>
      <g id="Group_262" data-name="Group 262">
        <path id="Path_282" data-name="Path 282" d="M-3804.748,146.072a1.72,1.72,0,0,1-.348-.036l-14.324-2.97a1.7,1.7,0,0,1-1.08-.734,1.705,1.705,0,0,1-.244-1.282l7.021-33.864a1.71,1.71,0,0,1,2.016-1.324l7.3,1.514a1.707,1.707,0,0,1,1.325,2.017,1.708,1.708,0,0,1-2.017,1.324l-5.633-1.168-6.328,30.523,12.653,2.623a1.707,1.707,0,0,1,1.325,2.017A1.707,1.707,0,0,1-3804.748,146.072Z" fill="#0c2545"/>
      </g>
      <g id="Group_263" data-name="Group 263">
        <path id="Path_283" data-name="Path 283" d="M-3858.12,146.327a19.137,19.137,0,0,1-7.439-1.382c-1.468-.576-6.44-3.3-10.718-5.745a1.707,1.707,0,0,1-.634-2.328,1.707,1.707,0,0,1,2.328-.634c4.775,2.73,9.189,5.107,10.269,5.53a15.9,15.9,0,0,0,6.194,1.147,52.676,52.676,0,0,0,11.1-1.61l3.333-.758c3.078-.7,5.934-1.357,8.393-1.847a1.706,1.706,0,0,1,2.006,1.339,1.707,1.707,0,0,1-1.339,2.007c-2.411.48-5.245,1.128-8.245,1.814l-3.393.773A55.8,55.8,0,0,1-3858.12,146.327Z" fill="#0c2545"/>
      </g>
      <g id="Group_264" data-name="Group 264">
        <path id="Path_284" data-name="Path 284" d="M-3858.152,138.74a11.5,11.5,0,0,1-4.634-.863c-1.537-.6-13.152-7.044-18.816-10.706a39.754,39.754,0,0,0-4.03-2.236c-2.132-1.068-3.816-1.912-4.436-3.647a4.164,4.164,0,0,1,.145-3.265,5.532,5.532,0,0,1,3.23-2.708h0c6.014-2.087,12.754.482,18.7,2.75,2.087.8,4.128,1.575,6.015,2.107a6.553,6.553,0,0,1-.421-4.97,6.551,6.551,0,0,1,3.229-3.883c1.818-.954,3.927-2.1,6.108-3.29,8.75-4.763,14.218-7.663,16.369-7.778a31.2,31.2,0,0,1,8.749.791c1.441.3,3.664,1.492,6.477,3a61.562,61.562,0,0,0,9.486,4.455,1.705,1.705,0,0,1,1.156,1.979l-4.883,23.168a1.706,1.706,0,0,1-1.9,1.339c-.086-.012-8.583-1.154-11.478-1.271-2.944-.112-8.511,1.147-15.542,2.755l-3.322.757A48.639,48.639,0,0,1-3858.152,138.74Zm-27.423-20.2a2.249,2.249,0,0,0-1.271.96.763.763,0,0,0-.01.642c.159.446,1.537,1.137,2.753,1.745a43.539,43.539,0,0,1,4.353,2.422c5.769,3.73,17.137,9.971,18.209,10.4,1.517.6,3.4,1.335,12.843-.8l3.315-.754c7.277-1.664,13.025-2.972,16.441-2.839,2.287.093,7.568.749,10.223,1.092l4.249-20.157a78.243,78.243,0,0,1-8.611-4.191,34.615,34.615,0,0,0-5.551-2.668,27.509,27.509,0,0,0-7.878-.725c-1.587.11-9.61,4.477-14.92,7.368-2.2,1.195-4.322,2.352-6.153,3.313a3.168,3.168,0,0,0-1.558,1.878,3.159,3.159,0,0,0,.216,2.428,3.164,3.164,0,0,0,1.877,1.557,3.152,3.152,0,0,0,2.429-.216,1.709,1.709,0,0,1,2.265.65,1.7,1.7,0,0,1-.543,2.291c-4.405,2.864-10.189.66-16.31-1.674-5.667-2.161-11.528-4.4-16.368-2.716Z" fill="#0c2545"/>
      </g>
      <g id="Group_265" data-name="Group 265">
        <path id="Path_285" data-name="Path 285" d="M-3858.186,124.385a10.839,10.839,0,0,1-3.569-.617,1.706,1.706,0,0,1-1.051-2.172,1.706,1.706,0,0,1,2.171-1.051,7.289,7.289,0,0,0,2.968.409,7.535,7.535,0,0,0,3.106-.986,105.322,105.322,0,0,1,10.743-4.722,1.707,1.707,0,0,1,2.21.968,1.707,1.707,0,0,1-.968,2.211,101.684,101.684,0,0,0-10.332,4.529,11.059,11.059,0,0,1-4.5,1.4C-3857.666,124.376-3857.926,124.385-3858.186,124.385Z" fill="#0c2545"/>
      </g>
      <g id="Group_266" data-name="Group 266">
        <path id="Path_286" data-name="Path 286" d="M-3847.675,69.7a1.684,1.684,0,0,1-1.311-.625,1.687,1.687,0,0,1,.248-2.373,22.863,22.863,0,0,0,8.45-16.152h-65.675a22.964,22.964,0,0,0,.85,4.741,1.686,1.686,0,0,1-1.149,2.09,1.682,1.682,0,0,1-2.09-1.148,26.331,26.331,0,0,1-1.047-7.37,1.687,1.687,0,0,1,1.687-1.687h69.172a1.687,1.687,0,0,1,1.687,1.687,26.233,26.233,0,0,1-9.76,20.46A1.685,1.685,0,0,1-3847.675,69.7Z" fill="#0c2545"/>
      </g>
      <g id="Group_267" data-name="Group 267">
        <path id="Path_287" data-name="Path 287" d="M-3846.132,58.043h-2.53a1.688,1.688,0,0,1-1.688-1.687,1.688,1.688,0,0,1,1.688-1.688h2.53a1.687,1.687,0,0,1,1.687,1.688A1.687,1.687,0,0,1-3846.132,58.043Zm-10.966,0h-2.531a1.688,1.688,0,0,1-1.687-1.687,1.688,1.688,0,0,1,1.687-1.688h2.531a1.688,1.688,0,0,1,1.687,1.688A1.687,1.687,0,0,1-3857.1,58.043Zm-10.966,0h-2.531a1.687,1.687,0,0,1-1.687-1.687,1.687,1.687,0,0,1,1.687-1.688h2.531a1.688,1.688,0,0,1,1.687,1.688A1.688,1.688,0,0,1-3868.064,58.043Zm-10.967,0h-2.53a1.687,1.687,0,0,1-1.687-1.687,1.688,1.688,0,0,1,1.687-1.688h2.53a1.688,1.688,0,0,1,1.688,1.688A1.688,1.688,0,0,1-3879.031,58.043Zm-10.966,0h-2.53a1.688,1.688,0,0,1-1.688-1.687,1.688,1.688,0,0,1,1.688-1.688h2.53a1.687,1.687,0,0,1,1.687,1.688A1.687,1.687,0,0,1-3890,58.043Z" fill="#0c2545"/>
      </g>
      <path id="Path_288" data-name="Path 288" d="M-3854.6,95.075a1.705,1.705,0,0,0-1.713-1.7,1.706,1.706,0,0,0-1.7,1.714,1.7,1.7,0,0,0,1.713,1.7A1.706,1.706,0,0,0-3854.6,95.075Z" fill="#0c2545"/>
      <path id="Path_289" data-name="Path 289" d="M-3880.465,133.317a1.7,1.7,0,0,0-1.713-1.7,1.7,1.7,0,0,0-1.7,1.713,1.7,1.7,0,0,0,1.713,1.7A1.7,1.7,0,0,0-3880.465,133.317Z" fill="#0c2545"/>
    </g>
  </g>
</svg>
