<svg xmlns="http://www.w3.org/2000/svg" width="56.81" height="56.81" viewBox="0 0 56.81 56.81">
  <g id="Group_801" data-name="Group 801" transform="translate(3895.211 -4452.567)">
    <circle id="Ellipse_10" data-name="Ellipse 10" cx="27.905" cy="27.905" r="27.905" transform="translate(-3894.711 4453.067)" fill="none" stroke="#fff" stroke-miterlimit="10" stroke-width="1"/>
    <g id="Group_800" data-name="Group 800">
      <path id="Path_691" data-name="Path 691" d="M-3852.981,4471.721v-.508c0-.112-.113-.169-.226-.112-4.731.056-9.4.056-14.134.112h-.393c-4.674-.056-9.405-.056-14.078-.112-.058-.057-.169,0-.169.112v.508c-.056,1.069-.056,2.082-.056,3.1v.28a74.839,74.839,0,0,0,14.358,9.349c.058.056.113.113.169.056a.108.108,0,0,0,.169-.056,73.128,73.128,0,0,0,14.36-9.349v-.225a.055.055,0,0,0,.056-.055C-3852.981,4473.8-3852.981,4472.79-3852.981,4471.721Zm-14.529,12.5a74.591,74.591,0,0,1-14.36-9.29c.058,0,.058-.058.058-.113.055-1.07.055-2.141.055-3.21v-.226c4.674,0,9.405.057,14.078.057h.394c4.675,0,9.347-.057,14.022-.057v.226c0,1.069.056,2.14.056,3.21,0,.055,0,.113.056.113A72.844,72.844,0,0,1-3867.51,4484.221Z" fill="#fff"/>
      <path id="Path_692" data-name="Path 692" d="M-3853.151,4477.914c-.056,0-.056,0-.112.058-4.111,2.758-8.278,5.4-12.557,7.939-.564.056-1.126.056-1.69.056s-1.126,0-1.69-.056c-4.278-2.534-8.446-5.181-12.557-7.939l-.055-.058c-.113-.055-.282-.055-.225.113,0,4.392.056,8.841.112,13.29-.056,0-.056,0-.056.056v.393c0,.058.056.058.056.113a.119.119,0,0,0,.113.113c2.7,0,5.349-.055,8.052,0,2.59,0,5.237.112,7.827.057,2.7-.057,5.405-.112,8.108-.057h4.618c.113,0,.113-.055.113-.113s.056-.055.056-.113v-.449c0-4.449.057-8.9.113-13.29A.136.136,0,0,0-3853.151,4477.914Zm-.169,13.459v.393c-1.464-.055-2.928-.055-4.392-.055-2.646,0-5.349,0-8.052.055-2.647.058-5.293-.055-7.939-.055-.677,0-8-.056-8,.055v-.393l-.113-13.121c4.054,2.759,8.221,5.406,12.445,7.883.056.058.056.058.112.058h.055c.451,0,.959.055,1.466.055h.449c.508,0,1.014-.055,1.465-.055h.056c.056,0,.113,0,.113-.058,4.223-2.477,8.39-5.124,12.444-7.883Z" fill="#fff"/>
      <path id="Path_693" data-name="Path 693" d="M-3853.151,4477.914a.136.136,0,0,1,.226.113c-.056,4.392-.113,8.841-.113,13.29v.449c0,.058-.056.058-.056.113s0,.113-.113.113h-4.618c-2.7-.055-5.405,0-8.108.057-2.59.055-5.237-.057-7.827-.057-2.7-.055-5.349,0-8.052,0a.119.119,0,0,1-.113-.113c0-.055-.056-.055-.056-.113v-.393c0-.056,0-.056.056-.056-.056-4.449-.112-8.9-.112-13.29-.057-.168.112-.168.225-.113l.055.058c4.111,2.758,8.279,5.4,12.557,7.939.564.056,1.128.056,1.69.056s1.126,0,1.69-.056c4.279-2.534,8.446-5.181,12.557-7.939C-3853.207,4477.914-3853.207,4477.914-3853.151,4477.914Z" fill="#fff"/>
      <path id="Path_694" data-name="Path 694" d="M-3867.679,4484.447a74.839,74.839,0,0,1-14.358-9.349v-.28c0-1.015,0-2.028.056-3.1v-.508c0-.112.111-.169.169-.112,4.673.056,9.4.056,14.078.112h.393c4.731-.056,9.4-.056,14.134-.112.113-.057.226,0,.226.112v.508c0,1.069,0,2.082.056,3.1a.055.055,0,0,1-.056.055v.225a73.128,73.128,0,0,1-14.36,9.349.108.108,0,0,1-.169.056C-3867.566,4484.56-3867.621,4484.5-3867.679,4484.447Z" fill="#fff"/>
    </g>
  </g>
</svg>
