<svg xmlns="http://www.w3.org/2000/svg" width="368.049" height="430.344" viewBox="0 0 368.049 430.344">
  <g id="Group_250" data-name="Group 250" transform="translate(4163 1091.347)">
    <g id="Group_238" data-name="Group 238">
      <path id="Path_256" data-name="Path 256" d="M-4003.875-943.325a64.105,64.105,0,0,1-16.335-5.378c-16.408-7.833-31.31-22.225-41.96-40.526s-15.8-38.368-14.505-56.5c1.318-18.436,9.123-32.709,21.978-40.191s29.12-7.214,45.8.748c16.408,7.832,31.31,22.225,41.96,40.526s15.8,38.367,14.505,56.5c-1.318,18.436-9.123,32.709-21.978,40.19C-3983-942.954-3993.126-941.415-4003.875-943.325Zm-22.077-143.033c-9.769-1.736-18.9-.373-26.606,4.11-11.6,6.752-18.661,19.828-19.875,36.818-1.237,17.292,3.714,36.492,13.938,54.062s24.472,31.359,40.117,38.828c15.372,7.336,30.229,7.66,41.831.909s18.661-19.828,19.875-36.819c1.237-17.292-3.714-36.491-13.938-54.061s-24.472-31.359-40.117-38.828A59.76,59.76,0,0,0-4025.952-1086.358Z" fill="#0c2545"/>
    </g>
    <g id="Group_239" data-name="Group 239">
      <path id="Path_257" data-name="Path 257" d="M-4004.928-958.115c-16.8-2.985-34.88-16.561-46.864-37.153-17.763-30.522-15.507-65.075,5.027-77.025s51.689,3.16,69.452,33.682,15.506,65.076-5.027,77.025C-3989.02-957.7-3996.827-956.675-4004.928-958.115Zm-19.864-113.521c-7.15-1.271-13.992-.382-19.834,3.018-18.507,10.77-20.074,42.716-3.491,71.211s45.13,42.915,63.638,32.146,20.073-42.716,3.491-71.211C-3992.337-1055.972-4009.289-1068.882-4024.792-1071.636Z" fill="#0c2545"/>
    </g>
    <g id="Group_240" data-name="Group 240">
      <path id="Path_258" data-name="Path 258" d="M-4009.846-960.967a43.6,43.6,0,0,1-12.622-4.492c-11.14-5.872-21.437-16.255-28.992-29.239-15.779-27.115-14.516-57.379,2.814-67.465s44.267,3.769,60.047,30.883c7.555,12.984,11.5,27.066,11.1,39.653-.41,12.952-5.351,22.83-13.912,27.812C-3996.76-960.7-4003.07-959.763-4009.846-960.967Zm-21.021-99.862c-5.686-1.011-11.066-.32-15.64,2.342-15.3,8.906-15.877,36.562-1.278,61.65,7.16,12.3,16.856,22.111,27.3,27.616,10.121,5.333,19.686,5.949,26.934,1.73s11.439-12.837,11.8-24.271c.374-11.8-3.363-25.075-10.524-37.379C-4002.51-1046.73-4017.529-1058.459-4030.867-1060.829Z" fill="#0c2545"/>
    </g>
    <g id="Group_241" data-name="Group 241">
      <path id="Path_259" data-name="Path 259" d="M-3836.928-690.081q-1.675-.3-3.381-.714c-13.261-3.238-26.315-11.535-36.758-23.361s-17.059-25.808-18.631-39.368c-1.6-13.844,2.216-25.622,10.758-33.165s20.711-9.863,34.242-6.57c13.261,3.239,26.316,11.536,36.758,23.362s17.059,25.807,18.631,39.367c1.6,13.844-2.216,25.622-10.758,33.165C-3813.891-690.456-3824.753-687.917-3836.928-690.081Zm-17.883-99.7c-10.878-1.933-20.488.254-27.314,6.282-7.468,6.594-10.789,17.066-9.349,29.488,1.473,12.705,7.721,25.86,17.6,37.042s22.153,19.011,34.579,22.045c12.152,2.973,22.95.968,30.418-5.626s10.789-17.068,9.349-29.489c-1.472-12.7-7.721-25.86-17.594-37.041s-22.154-19.012-34.58-22.046Q-3853.274-789.51-3854.811-789.783Z" fill="#0c2545"/>
    </g>
    <g id="Group_242" data-name="Group 242">
      <path id="Path_260" data-name="Path 260" d="M-3837.768-700.794q-1.611-.286-3.261-.713c-10.435-2.7-20.761-9.38-29.076-18.8-17.367-19.669-20.461-45.415-6.9-57.394,6.692-5.909,16.294-7.627,27.023-4.849,10.435,2.705,20.761,9.381,29.076,18.8s13.661,20.49,15.053,31.179c1.432,11-1.465,20.306-8.157,26.215C-3820.013-701.052-3828.36-699.122-3837.768-700.794Zm-16.2-78.277c-8.112-1.441-15.211.14-20.217,4.561-11.808,10.426-8.547,33.48,7.269,51.392,7.759,8.787,17.332,15,26.955,17.494,9.319,2.42,17.542,1.025,23.141-3.919s8-12.928,6.756-22.479c-1.284-9.857-6.265-20.125-14.024-28.913s-17.333-15-26.956-17.495Q-3852.526-778.814-3853.969-779.071Z" fill="#0c2545"/>
    </g>
    <g id="Group_243" data-name="Group 243">
      <path id="Path_261" data-name="Path 261" d="M-3845.656-716.97c-5.578-.991-11.644-4.529-16.661-10.21a31.706,31.706,0,0,1-7.8-15.616c-.887-5.666.5-10.44,3.9-13.447s8.317-3.8,13.825-2.208a31.7,31.7,0,0,1,14.531,9.672,31.707,31.707,0,0,1,7.8,15.617c.887,5.664-.5,10.439-3.9,13.446C-3837.014-717.02-3841.178-716.174-3845.656-716.97Zm-9.655-37.8c-3.315-.589-6.144,0-8.087,1.717-2.278,2.012-3.172,5.421-2.518,9.6a27.424,27.424,0,0,0,6.786,13.459c7.217,8.172,17.453,11.419,22.355,7.091,2.278-2.011,3.172-5.421,2.517-9.6a27.42,27.42,0,0,0-6.786-13.46,27.418,27.418,0,0,0-12.517-8.4A17.578,17.578,0,0,0-3855.311-754.773Z" fill="#0c2545"/>
    </g>
    <g id="Group_244" data-name="Group 244">
      <path id="Path_262" data-name="Path 262" d="M-4042.422-921.861l-.563-.1c-20.5-3.753-41.142-18.506-55.229-39.464-14.821-22.051-20.264-47.2-15.325-70.83,6.466-30.925,29.335-49.9,69.916-58.009a2.127,2.127,0,0,1,2.5,1.669,2.128,2.128,0,0,1-1.669,2.5c-38.726,7.738-60.507,25.634-66.586,54.709-4.7,22.493.515,46.5,14.691,67.587,13.461,20.026,33.074,34.1,52.466,37.653l.536.1c28.511,5.068,53.143-2.932,71.268-23.153a2.127,2.127,0,0,1,3-.163,2.126,2.126,0,0,1,.164,3C-3986.407-924.991-4012.392-916.526-4042.422-921.861Z" fill="#0c2545"/>
    </g>
    <g id="Group_245" data-name="Group 245">
      <path id="Path_263" data-name="Path 263" d="M-3927.279-664.588q-11.287-2.005-23.357-5.138c-24-6.231-82.125-29.061-130.324-70.863-28.83-25.005-50.4-53.341-64.111-84.224-16.633-37.464-21.727-78.873-15.14-123.077,12.617-84.673,69.564-123.923,70.137-124.309a2.124,2.124,0,0,1,2.95.575,2.126,2.126,0,0,1-.573,2.951c-.558.377-55.978,38.668-68.308,121.41-11.905,79.89,14.281,148.345,77.831,203.461,47.6,41.287,104.939,63.816,128.607,69.96,66.943,17.386,115.485,8.267,140.366-26.358a2.128,2.128,0,0,1,2.968-.485,2.126,2.126,0,0,1,.485,2.967C-3828.7-665.775-3870.457-654.492-3927.279-664.588Z" fill="#0c2545"/>
    </g>
    <g id="Group_246" data-name="Group 246">
      <path id="Path_264" data-name="Path 264" d="M-4028.068-891.015a2.128,2.128,0,0,1-1.751-2.136c.595-29.481,24.457-34.091,24.7-34.134a2.128,2.128,0,0,1,2.468,1.718,2.128,2.128,0,0,1-1.719,2.468c-.838.155-20.672,4.122-21.195,30.034a2.128,2.128,0,0,1-2.169,2.083A2.271,2.271,0,0,1-4028.068-891.015Z" fill="#0c2545"/>
    </g>
    <g id="Group_247" data-name="Group 247">
      <path id="Path_265" data-name="Path 265" d="M-3908.879-754.977a2.186,2.186,0,0,1-.532-.169,263.5,263.5,0,0,1-59.285-40.88c-37.565-34.838-53.586-74.3-46.332-114.134a2.125,2.125,0,0,1,2.463-1.712,2.127,2.127,0,0,1,1.72,2.474c-8.819,48.423,19.625,86.685,45.041,110.255A258.551,258.551,0,0,0-3907.6-759a2.127,2.127,0,0,1,1.022,2.828A2.129,2.129,0,0,1-3908.879-754.977Z" fill="#0c2545"/>
    </g>
    <g id="Group_248" data-name="Group 248">
      <path id="Path_266" data-name="Path 266" d="M-3909.883-731.437a2.127,2.127,0,0,1-1.745-1.911c-3.293-38.06,26.844-53.5,27.149-53.651a2.124,2.124,0,0,1,2.85.957,2.126,2.126,0,0,1-.956,2.85c-1.159.582-27.843,14.385-24.807,49.478a2.125,2.125,0,0,1-1.935,2.3A2.1,2.1,0,0,1-3909.883-731.437Z" fill="#0c2545"/>
    </g>
    <g id="Group_249" data-name="Group 249">
      <path id="Path_267" data-name="Path 267" d="M-3936.246-724.552a2.083,2.083,0,0,1-.508-.158,420.206,420.206,0,0,1-69.124-41.993c-33.047-24.727-75.173-64.733-88.194-114.9a2.126,2.126,0,0,1,1.525-2.592,2.126,2.126,0,0,1,2.592,1.524c24.369,93.892,153.655,153.5,154.958,154.088a2.126,2.126,0,0,1,1.058,2.814A2.127,2.127,0,0,1-3936.246-724.552Z" fill="#0c2545"/>
    </g>
  </g>
</svg>
