<svg xmlns="http://www.w3.org/2000/svg" width="106.249" height="136.809" viewBox="0 0 106.249 136.809">
  <g id="Group_306" data-name="Group 306" transform="translate(2920.366 -17.742)">
    <g id="Group_292" data-name="Group 292">
      <path id="Path_316" data-name="Path 316" d="M-2842.351,128.25a1.661,1.661,0,0,1-1.286-.607,1.663,1.663,0,0,1,.227-2.343,87.634,87.634,0,0,0,15.928-17.506c12.909-19.437,13.42-48.3,1.3-73.542l-2.58-5.374-5.843,1.187a37.361,37.361,0,0,1-14.808,0,37.492,37.492,0,0,1-13.517-5.706l-4.31-2.938-4.31,2.938a37.46,37.46,0,0,1-13.521,5.706,37.345,37.345,0,0,1-14.8,0l-5.843-1.187-2.58,5.374c-12.12,25.239-11.61,54.105,1.3,73.539a74.134,74.134,0,0,0,4.826,6.451,1.667,1.667,0,0,1-.213,2.346,1.666,1.666,0,0,1-2.345-.212,77.674,77.674,0,0,1-5.042-6.744c-13.547-20.39-14.147-50.545-1.529-76.822l3.142-6.544a1.668,1.668,0,0,1,1.832-.91l7.115,1.446a33.967,33.967,0,0,0,13.476,0,34.12,34.12,0,0,0,12.311-5.194l5.248-3.577a1.663,1.663,0,0,1,1.875,0l5.247,3.577a34.108,34.108,0,0,0,12.307,5.194,33.983,33.983,0,0,0,13.479,0l7.116-1.446a1.671,1.671,0,0,1,1.832.91l3.142,6.544c12.618,26.276,12.017,56.432-1.53,76.827a91.253,91.253,0,0,1-16.584,18.234A1.663,1.663,0,0,1-2842.351,128.25Z" fill="#0c2545"/>
    </g>
    <g id="Group_293" data-name="Group 293">
      <path id="Path_317" data-name="Path 317" d="M-2859.359,146.253c-2.1,0-4.631-.1-7.713-.317-2.826-.2-5.428-.433-7.8-.642-5.556-.49-9.973-.881-12.717-.512l-1.774.756a1.664,1.664,0,0,1-2.184-.879,1.665,1.665,0,0,1,.879-2.185l1.974-.841a1.659,1.659,0,0,1,.4-.114c3.121-.477,7.565-.085,13.713.458,2.357.207,4.943.436,7.746.637,10.842.766,14.05-.039,15.764-.926.331-.2,20.489-10.388,26.926-13.586.773-.384,1.321-1.434,1.05-2.01a1.8,1.8,0,0,0-1.048-.839c-5.934-1.043-12.707,1.318-19.254,3.6-6.841,2.388-13.3,4.647-19.2,3.464l-1.5-.3c-4.3-.85-9.641-1.907-16.637-3.9a1.666,1.666,0,0,1-1.144-2.059,1.666,1.666,0,0,1,2.059-1.143c6.862,1.961,12.133,3,16.368,3.84l1.5.3c5.005,1,11.049-1.109,17.449-3.342,6.949-2.426,14.137-4.931,20.911-3.741a5.038,5.038,0,0,1,3.5,2.7c1.157,2.451-.432,5.346-2.581,6.41-6.954,3.457-26.183,13.19-26.84,13.542C-2851.384,145.6-2853.966,146.252-2859.359,146.253Z" fill="#0c2545"/>
    </g>
    <g id="Group_294" data-name="Group 294">
      <path id="Path_318" data-name="Path 318" d="M-2860.05,132.352a1.665,1.665,0,0,1-1.579-1.138,1.665,1.665,0,0,1,1.052-2.107c.016,0,2.512-.894,3.12-3.044.612-2.17-.267-3.985-2.24-4.622l-2.711-.882c-14.385-4.685-19.228-6.255-23.187-5.714-.1.015-11.032,2.192-20,13.8a1.664,1.664,0,0,1-2.335.3,1.664,1.664,0,0,1-.3-2.335c9.913-12.828,22.058-15.044,22.176-15.06,4.716-.654,9.748.983,24.678,5.843l2.707.881c3.706,1.2,5.523,4.775,4.417,8.7-1.092,3.865-5.1,5.242-5.27,5.3A1.648,1.648,0,0,1-2860.05,132.352Z" fill="#0c2545"/>
    </g>
    <g id="Group_295" data-name="Group 295">
      <path id="Path_319" data-name="Path 319" d="M-2893.349,154.551a1.658,1.658,0,0,1-1.129-.443,1.664,1.664,0,0,1-.093-2.353l3.712-4.016-18.468-19.707-6.163,6.062a1.664,1.664,0,0,1-2.354-.02,1.665,1.665,0,0,1,.019-2.354l7.379-7.258a1.805,1.805,0,0,1,1.2-.478,1.667,1.667,0,0,1,1.181.526l20.694,22.083a1.665,1.665,0,0,1,.008,2.269l-4.764,5.154A1.661,1.661,0,0,1-2893.349,154.551Z" fill="#0c2545"/>
    </g>
    <g id="Group_296" data-name="Group 296">
      <path id="Path_320" data-name="Path 320" d="M-2890.917,78.657c-6.5,0-11.813-5.812-12.093-13.231a1.666,1.666,0,0,1,1.6-1.727,1.643,1.643,0,0,1,1.726,1.6c.212,5.623,4.061,10.027,8.765,10.027,4.842,0,8.781-4.72,8.781-10.523a11.64,11.64,0,0,0-1.1-5.107,1.665,1.665,0,0,1,.773-2.224,1.667,1.667,0,0,1,2.224.774,14.92,14.92,0,0,1,1.437,6.557C-2878.806,72.443-2884.239,78.657-2890.917,78.657Z" fill="#0c2545"/>
    </g>
    <g id="Group_297" data-name="Group 297">
      <path id="Path_321" data-name="Path 321" d="M-2901.362,67.134a1.662,1.662,0,0,1-1.293-.615,13.283,13.283,0,0,1-1.928-10.85s1.322-5.223,6.149-7.39a10.014,10.014,0,0,1,5.874-.6,18.787,18.787,0,0,0,5.23.029,19.69,19.69,0,0,0,5.823-1.815,1.663,1.663,0,0,1,1.31-.065,1.67,1.67,0,0,1,.95.9c1.9,4.421,1.425,9.257-1.187,12.036a2.726,2.726,0,0,1-.335.316,9.667,9.667,0,0,1-6.945,2.455,13.718,13.718,0,0,1-9.212-3.918,9.415,9.415,0,0,0-1.469,2.4c-.476,1.127-1.363,3.228-1.306,4.245a1.664,1.664,0,0,1-.092.648,1.666,1.666,0,0,1-.52,1.847A1.664,1.664,0,0,1-2901.362,67.134Zm6.519-16.293a5.106,5.106,0,0,0-2.222.473c-3.216,1.444-4.284,5.15-4.294,5.188a9.44,9.44,0,0,0-.316,2.731q.1-.249.213-.508a12.813,12.813,0,0,1,3.5-4.767,1.667,1.667,0,0,1,1.225-.387,1.663,1.663,0,0,1,1.135.6,10.632,10.632,0,0,0,7.936,4.043,6.419,6.419,0,0,0,4.652-1.592,1.774,1.774,0,0,1,.152-.134c1.413-1.5,1.8-4.161,1.1-6.842a22.643,22.643,0,0,1-5.1,1.364,22.071,22.071,0,0,1-6.077-.017A17.478,17.478,0,0,0-2894.843,50.841Z" fill="#0c2545"/>
    </g>
    <path id="Path_322" data-name="Path 322" d="M-2879.44,91.283c1.038-2.219,3.114-4.439,4.039-6.049-1.979-2.7-3.089-5.007-6.538-6.16A15.263,15.263,0,0,1-2890.852,82a18.724,18.724,0,0,1-8.847-2.931c-6.061,2-8.294,6.941-9.915,13.175a4.745,4.745,0,0,0,4.445,5.694h24.691S-2880.1,92.687-2879.44,91.283Z" fill="#ea6222"/>
    <path id="Path_323" data-name="Path 323" d="M-2852.755,91.283c-.98-2.219-2.938-4.439-3.81-6.049a15.427,15.427,0,0,1,7.667-5.884A8.61,8.61,0,0,0-2841.99,82a10.35,10.35,0,0,0,6.908-2.676c5.717,2,9.26,6.686,10.789,12.92.476,2.965-1.533,5.694-4.192,5.694h-23.291S-2852.136,92.687-2852.755,91.283Z" fill="#ea6222"/>
    <g id="Group_298" data-name="Group 298">
      <path id="Path_324" data-name="Path 324" d="M-2865.767,83a9.928,9.928,0,0,1-9.687-10.131c0-4.619,0-11.6,9.687-11.6s9.687,6.979,9.687,11.6A9.927,9.927,0,0,1-2865.767,83Zm0-18.4c-6.062,0-6.358,2.987-6.358,8.268a6.6,6.6,0,0,0,6.358,6.8,6.6,6.6,0,0,0,6.357-6.8C-2859.41,67.59-2859.7,64.6-2865.767,64.6Z" fill="#0c2545"/>
    </g>
    <path id="Path_325" data-name="Path 325" d="M-2871.705,84.624c-4.222.94-5.754,2.836-7.769,6.659l6.66,1.11V104.6h15.539V93.5l4.439-2.22c-.585-3.512-2.91-6.365-6.659-6.659C-2862.825,86.844-2868.229,86.441-2871.705,84.624Z" fill="#163b63" opacity="0.77"/>
    <g id="Group_299" data-name="Group 299">
      <path id="Path_326" data-name="Path 326" d="M-2880.277,104.872a1.665,1.665,0,0,1-1.637-1.375c-1.583-8.943,2.2-16.145,4.168-18.058a10.358,10.358,0,0,1,4.712-2.409,1.67,1.67,0,0,1,1.964,1.3,1.665,1.665,0,0,1-1.294,1.963,7.208,7.208,0,0,0-3.061,1.537c-.826.8-4.7,6.65-3.21,15.088a1.664,1.664,0,0,1-1.35,1.93A1.607,1.607,0,0,1-2880.277,104.872Z" fill="#0c2545"/>
    </g>
    <g id="Group_300" data-name="Group 300">
      <path id="Path_327" data-name="Path 327" d="M-2851.413,104.872a1.913,1.913,0,0,1-.238-.016,1.666,1.666,0,0,1-1.413-1.884,22.979,22.979,0,0,0-2.078-14.3c-.75-1.5-3.183-2.233-3.976-2.372a1.664,1.664,0,0,1-1.354-1.926,1.669,1.669,0,0,1,1.926-1.354c.483.083,4.758.915,6.383,4.162.907,1.817,3.67,7.344,2.4,16.259A1.666,1.666,0,0,1-2851.413,104.872Z" fill="#0c2545"/>
    </g>
    <g id="Group_301" data-name="Group 301">
      <path id="Path_328" data-name="Path 328" d="M-2843.017,76.849c-5.587,0-9.053-4.432-10.3-13.174a1.676,1.676,0,0,1,.39-1.326,1.671,1.671,0,0,1,1.258-.574c3.127-.005,11.61-.936,13.29-5.135a1.665,1.665,0,0,1,2.163-.928,1.666,1.666,0,0,1,.928,2.164c-2.224,5.562-10.573,6.845-14.426,7.141,1.676,8.5,5.415,8.5,6.7,8.5,3.654,0,6.091-3.507,6.688-9.623a1.661,1.661,0,0,1,1.818-1.5,1.667,1.667,0,0,1,1.5,1.819C-2833.787,72.127-2837.526,76.849-2843.017,76.849Z" fill="#0c2545"/>
    </g>
    <g id="Group_302" data-name="Group 302">
      <path id="Path_329" data-name="Path 329" d="M-2828.108,82.673a1.652,1.652,0,0,1-.743-.176,1.665,1.665,0,0,1-.745-2.234c.975-1.951.927-9.131-.076-11.134a11.779,11.779,0,0,1-1.442-7.183A12.363,12.363,0,0,0-2832.2,55.4a8.434,8.434,0,0,0-10.29-5.221,1.648,1.648,0,0,1-.852.054c-1.761-.351-5.082-.64-7.566,1.4-2.177,1.784-3.281,4.945-3.281,9.393a1.666,1.666,0,0,1-1.665,1.665,1.666,1.666,0,0,1-1.665-1.665c0-5.494,1.514-9.521,4.5-11.969a12.047,12.047,0,0,1,9.908-2.166,11.79,11.79,0,0,1,14,7.274,15.719,15.719,0,0,1,1.317,8.018,8.554,8.554,0,0,0,1.1,5.454c1.466,2.931,1.511,11.24.076,14.113A1.667,1.667,0,0,1-2828.108,82.673Z" fill="#0c2545"/>
    </g>
    <g id="Group_303" data-name="Group 303">
      <path id="Path_330" data-name="Path 330" d="M-2872.575,73.2a1.665,1.665,0,0,1-1.646-1.429,1.664,1.664,0,0,1,1.413-1.884c1.464-.21,8.835-1.252,10.125-1.252a1.665,1.665,0,0,1,1.665,1.665,1.666,1.666,0,0,1-1.665,1.665c-.772,0-6.11.713-9.655,1.219A1.729,1.729,0,0,1-2872.575,73.2Z" fill="#0c2545"/>
    </g>
    <g id="Group_304" data-name="Group 304">
      <path id="Path_331" data-name="Path 331" d="M-2873.369,104.6a1.665,1.665,0,0,1-1.665-1.665V93.8l-3.136-1.616a1.664,1.664,0,0,1-.718-2.242,1.665,1.665,0,0,1,2.243-.717l4.039,2.081a1.666,1.666,0,0,1,.9,1.48v10.155A1.665,1.665,0,0,1-2873.369,104.6Z" fill="#0c2545"/>
    </g>
    <g id="Group_305" data-name="Group 305">
      <path id="Path_332" data-name="Path 332" d="M-2857.83,104.6a1.666,1.666,0,0,1-1.665-1.665V92.783a1.665,1.665,0,0,1,.9-1.48l4.037-2.081a1.667,1.667,0,0,1,2.243.717,1.663,1.663,0,0,1-.717,2.242l-3.135,1.616v9.141A1.666,1.666,0,0,1-2857.83,104.6Z" fill="#0c2545"/>
    </g>
  </g>
</svg>
