<svg xmlns="http://www.w3.org/2000/svg" width="130.734" height="125.495" viewBox="0 0 130.734 125.495">
  <g id="Group_318" data-name="Group 318" transform="translate(3209.849 -286.227)">
    <path id="Path_333" data-name="Path 333" d="M-3194.087,396.972h21.1l13.712-27.424,13.712,28.479h21.1l-35.863-65.4Z" fill="#ea6222"/>
    <g id="Group_309" data-name="Group 309">
      <path id="Path_334" data-name="Path 334" d="M-3085.97,399.082a1.583,1.583,0,0,1-1.379-.8l-36.464-64.592h-33.358l33.122,62.232h29.639a1.582,1.582,0,0,1,1.583,1.582,1.582,1.582,0,0,1-1.583,1.582H-3125a1.581,1.581,0,0,1-1.4-.839l-34.808-65.4a1.584,1.584,0,0,1,.04-1.558,1.586,1.586,0,0,1,1.357-.768h36.917a1.583,1.583,0,0,1,1.378.805l36.918,65.4a1.583,1.583,0,0,1-.6,2.156A1.573,1.573,0,0,1-3085.97,399.082Z" fill="#0c2545"/>
    </g>
    <g id="Group_310" data-name="Group 310">
      <path id="Path_335" data-name="Path 335" d="M-3172.464,399.081h-22.15a1.585,1.585,0,0,1-1.357-.767,1.587,1.587,0,0,1-.04-1.558l34.808-65.4a1.583,1.583,0,0,1,2.141-.653,1.583,1.583,0,0,1,.653,2.14l-33.57,63.071h18.487l12.1-27.233V345.815a1.582,1.582,0,0,1,1.582-1.582,1.582,1.582,0,0,1,1.582,1.582v23.2a1.585,1.585,0,0,1-.136.643l-12.657,28.479A1.584,1.584,0,0,1-3172.464,399.081Z" fill="#0c2545"/>
    </g>
    <g id="Group_311" data-name="Group 311">
      <path id="Path_336" data-name="Path 336" d="M-3146.095,399.081a1.585,1.585,0,0,1-1.425-.895l-13.712-28.479a1.585,1.585,0,0,1,.282-1.781,1.586,1.586,0,0,1,1.767-.36l14.767,6.328a1.581,1.581,0,0,1,.957,1.53l-1.055,22.15a1.58,1.58,0,0,1-1.265,1.475A1.539,1.539,0,0,1-3146.095,399.081Zm-10.454-26.944,9.172,19.049.7-14.816Z" fill="#0c2545"/>
    </g>
    <g id="Group_312" data-name="Group 312">
      <path id="Path_337" data-name="Path 337" d="M-3194.614,387.479h-13.653a1.581,1.581,0,0,1-1.369-.791,1.577,1.577,0,0,1,0-1.583l14.463-25.051h-6.637a1.585,1.585,0,0,1-1.357-.767,1.587,1.587,0,0,1-.04-1.558l11.106-20.88h-3.263a1.582,1.582,0,0,1-1.37-.791,1.579,1.579,0,0,1,0-1.582l12.892-22.329a1.581,1.581,0,0,1,1.37-.791,1.579,1.579,0,0,1,1.37.791l12.892,22.329a1.58,1.58,0,0,1,0,1.582,1.584,1.584,0,0,1-1.37.791h-3.264l2.677,5.033a1.583,1.583,0,0,1-.654,2.14,1.583,1.583,0,0,1-2.139-.654l-3.914-7.358a1.585,1.585,0,0,1,.04-1.558,1.582,1.582,0,0,1,1.356-.767h3.158l-10.152-17.583-10.152,17.583h3.157a1.585,1.585,0,0,1,1.357.767,1.584,1.584,0,0,1,.04,1.558l-11.106,20.88h6.743a1.584,1.584,0,0,1,1.37.791,1.58,1.58,0,0,1,0,1.582l-14.463,25.051h10.912a1.583,1.583,0,0,1,1.582,1.583A1.582,1.582,0,0,1-3194.614,387.479Z" fill="#0c2545"/>
    </g>
    <path id="Path_338" data-name="Path 338" d="M-3135.239,313.644a3.5,3.5,0,0,0,.22-1.186,3.57,3.57,0,0,0-3.559-3.56,7.139,7.139,0,0,0-7.118-7.118,7.139,7.139,0,0,0-6.892,5.375,5.7,5.7,0,0,0-4.957-.121,5.918,5.918,0,0,0-3.344,3.773,5.974,5.974,0,0,0-.11,2.837Z" fill="#163b63" opacity="0.71"/>
    <path id="Path_339" data-name="Path 339" d="M-3092.856,335.8c.154-1.606-.223-3.367-3.222-5.558a4.535,4.535,0,0,0-2.644-.91,5.881,5.881,0,0,0-4.979,2.752,4.021,4.021,0,0,0-2.018-.542,4.052,4.052,0,0,0-4.047,4.252C-3109.76,335.8-3092.856,335.8-3092.856,335.8Z" fill="#163b63" opacity="0.71"/>
    <g id="Group_313" data-name="Group 313">
      <path id="Path_340" data-name="Path 340" d="M-3132.382,399.081h-13.712a1.582,1.582,0,0,1-1.582-1.582,1.582,1.582,0,0,1,1.582-1.582h13.712a1.582,1.582,0,0,1,1.582,1.582A1.582,1.582,0,0,1-3132.382,399.081Z" fill="#1d2646"/>
    </g>
    <g id="Group_314" data-name="Group 314" opacity="0.71">
      <path id="Path_341" data-name="Path 341" d="M-3203,348.087l-.064,0a1.582,1.582,0,0,1-1.518-1.644q.048-1.191.14-2.372a1.576,1.576,0,0,1,1.7-1.454,1.582,1.582,0,0,1,1.454,1.7q-.087,1.121-.132,2.253A1.582,1.582,0,0,1-3203,348.087Zm1.215-9.951a1.609,1.609,0,0,1-.322-.033,1.583,1.583,0,0,1-1.23-1.87q.242-1.167.526-2.318a1.584,1.584,0,0,1,1.915-1.158,1.583,1.583,0,0,1,1.156,1.915q-.269,1.094-.5,2.2A1.583,1.583,0,0,1-3201.788,338.136Zm2.829-9.62a1.6,1.6,0,0,1-.571-.107,1.583,1.583,0,0,1-.905-2.046q.428-1.107.9-2.193a1.58,1.58,0,0,1,2.079-.828,1.582,1.582,0,0,1,.828,2.078q-.445,1.033-.851,2.084A1.584,1.584,0,0,1-3198.959,328.516Zm4.366-9.014a1.569,1.569,0,0,1-.8-.22,1.581,1.581,0,0,1-.558-2.166q.6-1.023,1.245-2.02a1.582,1.582,0,0,1,2.186-.476,1.581,1.581,0,0,1,.476,2.186q-.607.948-1.182,1.919A1.58,1.58,0,0,1-3194.593,319.5Zm5.783-8.184a1.574,1.574,0,0,1-1.014-.369,1.583,1.583,0,0,1-.2-2.229q.764-.91,1.559-1.792a1.58,1.58,0,0,1,2.234-.113,1.581,1.581,0,0,1,.114,2.234q-.756.837-1.48,1.7A1.579,1.579,0,0,1-3188.81,311.318Zm7.042-7.139a1.577,1.577,0,0,1-1.2-.55,1.58,1.58,0,0,1,.167-2.231q.9-.775,1.831-1.517a1.584,1.584,0,0,1,2.224.252,1.582,1.582,0,0,1-.252,2.223q-.883.705-1.739,1.44A1.575,1.575,0,0,1-3181.768,304.179Zm8.111-5.9a1.581,1.581,0,0,1-1.354-.761,1.582,1.582,0,0,1,.531-2.173q1.014-.618,2.054-1.2a1.582,1.582,0,0,1,2.152.61,1.58,1.58,0,0,1-.609,2.152q-.988.554-1.953,1.14A1.581,1.581,0,0,1-3173.657,298.278Zm8.967-4.5a1.584,1.584,0,0,1-1.468-.992,1.582,1.582,0,0,1,.878-2.058q1.1-.445,2.228-.847a1.582,1.582,0,0,1,2.023.956,1.582,1.582,0,0,1-.956,2.023q-1.066.383-2.114.8A1.579,1.579,0,0,1-3164.69,293.78Zm41.615-1.452a1.571,1.571,0,0,1-.485-.077q-1.072-.345-2.162-.652a1.582,1.582,0,0,1-1.095-1.951,1.584,1.584,0,0,1,1.952-1.1q1.146.322,2.275.686a1.582,1.582,0,0,1,1.021,1.991A1.584,1.584,0,0,1-3123.075,292.328Zm-32.025-1.511a1.584,1.584,0,0,1-1.544-1.243,1.583,1.583,0,0,1,1.205-1.885q1.158-.255,2.33-.466a1.589,1.589,0,0,1,1.839,1.276,1.582,1.582,0,0,1-1.276,1.838q-1.115.2-2.213.443A1.59,1.59,0,0,1-3155.1,290.817Zm22.261-.771a1.681,1.681,0,0,1-.234-.017q-1.113-.165-2.237-.288a1.581,1.581,0,0,1-1.4-1.744,1.584,1.584,0,0,1,1.744-1.4q1.187.129,2.359.3a1.582,1.582,0,0,1,1.333,1.8A1.583,1.583,0,0,1-3132.839,290.046Zm-12.326-.575a1.583,1.583,0,0,1-1.579-1.5,1.582,1.582,0,0,1,1.5-1.664q1.182-.064,2.376-.082a1.588,1.588,0,0,1,1.606,1.558,1.583,1.583,0,0,1-1.559,1.607c-.755.011-1.505.037-2.254.077Z" fill="#163b63"/>
    </g>
    <g id="Group_315" data-name="Group 315" opacity="0.71">
      <path id="Path_342" data-name="Path 342" d="M-3088.339,380.19a1.585,1.585,0,0,1-.767-.2,1.582,1.582,0,0,1-.616-2.151q.547-.987,1.058-2a1.584,1.584,0,0,1,2.128-.7,1.582,1.582,0,0,1,.694,2.127q-.538,1.061-1.113,2.1A1.579,1.579,0,0,1-3088.339,380.19Zm4.127-9.14a1.574,1.574,0,0,1-.528-.091,1.584,1.584,0,0,1-.964-2.02q.378-1.062.715-2.14a1.581,1.581,0,0,1,1.982-1.039,1.581,1.581,0,0,1,1.038,1.982q-.354,1.137-.751,2.254A1.585,1.585,0,0,1-3084.212,371.05Zm2.567-9.695a1.557,1.557,0,0,1-.279-.025,1.582,1.582,0,0,1-1.281-1.835q.2-1.107.354-2.229a1.585,1.585,0,0,1,1.785-1.347,1.58,1.58,0,0,1,1.348,1.785q-.163,1.18-.372,2.346A1.581,1.581,0,0,1-3081.645,361.355Zm.942-9.984a1.585,1.585,0,0,1-1.582-1.6l0-.792q0-.736-.018-1.47a1.583,1.583,0,0,1,1.543-1.621,1.593,1.593,0,0,1,1.621,1.543q.019.773.019,1.548l-.005.828A1.583,1.583,0,0,1-3080.7,351.371Zm-.683-10.009a1.583,1.583,0,0,1-1.563-1.347q-.168-1.118-.379-2.223a1.582,1.582,0,0,1,1.257-1.85,1.582,1.582,0,0,1,1.852,1.258q.222,1.164.4,2.344a1.581,1.581,0,0,1-1.329,1.8A1.6,1.6,0,0,1-3081.386,341.362Zm-2.307-9.761a1.583,1.583,0,0,1-1.5-1.092q-.351-1.074-.74-2.132a1.58,1.58,0,0,1,.936-2.031,1.58,1.58,0,0,1,2.032.936q.411,1.113.78,2.246a1.582,1.582,0,0,1-1.013,1.995A1.586,1.586,0,0,1-3083.693,331.6Zm-3.881-9.247a1.581,1.581,0,0,1-1.4-.852q-.522-1-1.081-1.982a1.581,1.581,0,0,1,.591-2.158,1.583,1.583,0,0,1,2.158.591q.588,1.031,1.138,2.087a1.582,1.582,0,0,1-.672,2.134A1.575,1.575,0,0,1-3087.574,322.354Z" fill="#163b63"/>
    </g>
    <g id="Group_316" data-name="Group 316" opacity="0.71">
      <path id="Path_343" data-name="Path 343" d="M-3140.433,411.722a1.584,1.584,0,0,1-1.581-1.546,1.583,1.583,0,0,1,1.545-1.618q1.134-.027,2.259-.094a1.575,1.575,0,0,1,1.674,1.483,1.583,1.583,0,0,1-1.484,1.675q-1.182.072-2.375.1Zm-7.711-.3c-.053,0-.107,0-.162-.008q-1.187-.121-2.358-.285a1.582,1.582,0,0,1-1.348-1.786,1.582,1.582,0,0,1,1.786-1.348q1.115.156,2.24.271a1.582,1.582,0,0,1,1.414,1.734A1.581,1.581,0,0,1-3148.144,411.421Zm17.686-.745a1.583,1.583,0,0,1-1.552-1.289,1.582,1.582,0,0,1,1.261-1.849q1.113-.21,2.209-.46a1.585,1.585,0,0,1,1.9,1.19,1.583,1.583,0,0,1-1.19,1.895q-1.156.264-2.327.485A1.657,1.657,0,0,1-3130.458,410.676ZM-3158,409.591a1.579,1.579,0,0,1-.417-.057q-1.149-.312-2.28-.668a1.585,1.585,0,0,1-1.037-1.984,1.582,1.582,0,0,1,1.984-1.035q1.074.336,2.166.634a1.582,1.582,0,0,1,1.11,1.942A1.583,1.583,0,0,1-3158,409.591Zm37.216-1.583a1.584,1.584,0,0,1-1.486-1.037,1.583,1.583,0,0,1,.94-2.031q1.061-.39,2.1-.819a1.581,1.581,0,0,1,2.064.863,1.582,1.582,0,0,1-.863,2.065q-1.1.45-2.214.861A1.591,1.591,0,0,1-3120.788,408.008Zm-46.641-1.845a1.571,1.571,0,0,1-.66-.146q-1.081-.5-2.139-1.034a1.582,1.582,0,0,1-.7-2.127,1.582,1.582,0,0,1,2.126-.695q1.007.508,2.033.982a1.581,1.581,0,0,1,.775,2.1A1.582,1.582,0,0,1-3167.429,406.163Z" fill="#163b63"/>
    </g>
    <g id="Group_317" data-name="Group 317">
      <path id="Path_344" data-name="Path 344" d="M-3080.7,399.081h-124.465a1.582,1.582,0,0,1-1.582-1.582,1.582,1.582,0,0,1,1.582-1.582H-3080.7a1.582,1.582,0,0,1,1.582,1.582A1.582,1.582,0,0,1-3080.7,399.081Z" fill="#0c2545"/>
    </g>
  </g>
</svg>
